<svg width="51" height="51" viewBox="0 0 51 51" fill="none" xmlns="http://www.w3.org/2000/svg">
<path d="M32.8324 20.7564C32.798 20.7565 32.7645 20.7421 32.7372 20.7155C32.7099 20.6889 32.6903 20.6515 32.6813 20.6093C32.6724 20.567 32.6748 20.5222 32.688 20.4818C32.7012 20.4414 32.7245 20.4077 32.7543 20.3859L33.6668 19.711L21.6043 10.9555C21.5716 10.9275 21.5484 10.8849 21.5394 10.8361C21.5304 10.7874 21.5362 10.7361 21.5557 10.6925C21.5752 10.649 21.6069 10.6164 21.6446 10.6014C21.6822 10.5863 21.7229 10.5899 21.7585 10.6114L34.0574 19.5376C34.0813 19.5551 34.1011 19.5801 34.115 19.6103C34.1289 19.6405 34.1363 19.6747 34.1366 19.7096C34.1366 19.7445 34.1294 19.7788 34.1157 19.809C34.102 19.8392 34.0823 19.8643 34.0585 19.8817L32.9106 20.73C32.8868 20.7474 32.8599 20.7565 32.8324 20.7564Z" fill="#39332F"/>
<path d="M20.6606 11.7349C20.6261 11.735 20.5927 11.7206 20.5653 11.694C20.538 11.6674 20.5184 11.6301 20.5095 11.5878C20.5006 11.5456 20.5029 11.5007 20.5161 11.4604C20.5293 11.42 20.5526 11.3862 20.5825 11.3644L21.6033 10.6101C21.6211 10.597 21.6407 10.5886 21.6611 10.5852C21.6814 10.5818 21.7021 10.5835 21.7219 10.5903C21.7418 10.597 21.7603 10.6087 21.7766 10.6246C21.7929 10.6405 21.8066 10.6603 21.8168 10.6829C21.8271 10.7055 21.8337 10.7304 21.8364 10.7563C21.8391 10.7821 21.8377 10.8084 21.8324 10.8336C21.8271 10.8588 21.8179 10.8824 21.8054 10.9031C21.7929 10.9238 21.7773 10.9411 21.7595 10.9542L20.7387 11.7085C20.7149 11.7259 20.688 11.735 20.6606 11.7349ZM22.6439 13.1907C22.6095 13.1907 22.576 13.1763 22.5487 13.1497C22.5214 13.1231 22.5017 13.0858 22.4928 13.0435C22.4839 13.0013 22.4862 12.9565 22.4994 12.9161C22.5126 12.8757 22.5359 12.8419 22.5658 12.8201L23.5856 12.0658C23.6215 12.0395 23.6642 12.0323 23.7042 12.046C23.7443 12.0596 23.7784 12.093 23.7991 12.1386C23.8198 12.1842 23.8254 12.2384 23.8147 12.2893C23.804 12.3402 23.7777 12.3835 23.7418 12.4099L22.721 13.1642C22.6975 13.1814 22.671 13.1905 22.6439 13.1907ZM24.6262 14.6437C24.5918 14.6438 24.5583 14.6294 24.531 14.6028C24.5036 14.5762 24.484 14.5388 24.4751 14.4966C24.4662 14.4543 24.4685 14.4095 24.4817 14.3691C24.4949 14.3287 24.5182 14.295 24.5481 14.2732L25.5689 13.5189C25.6048 13.4925 25.6475 13.4854 25.6875 13.4991C25.7276 13.5127 25.7617 13.546 25.7825 13.5917C25.8032 13.6373 25.8088 13.6915 25.798 13.7424C25.7873 13.7933 25.7611 13.8366 25.7252 13.8629L24.7043 14.6173C24.6806 14.6347 24.6536 14.6438 24.6262 14.6437ZM26.6085 16.0981C26.5741 16.0982 26.5406 16.0838 26.5133 16.0572C26.4859 16.0306 26.4663 15.9932 26.4574 15.951C26.4485 15.9087 26.4508 15.8639 26.464 15.8235C26.4772 15.7831 26.5005 15.7494 26.5304 15.7276L27.5512 14.9733C27.5871 14.9469 27.6298 14.9398 27.6698 14.9535C27.7099 14.9671 27.744 15.0004 27.7647 15.046C27.7855 15.0917 27.7911 15.1459 27.7803 15.1968C27.7696 15.2476 27.7434 15.291 27.7075 15.3173L26.6866 16.0717C26.6629 16.089 26.6359 16.0982 26.6085 16.0981ZM28.5908 17.5512C28.5634 17.5514 28.5365 17.5424 28.5128 17.5252C28.489 17.508 28.4692 17.4832 28.4554 17.4533C28.4348 17.4077 28.4292 17.3538 28.4397 17.303C28.4502 17.2522 28.4761 17.2088 28.5116 17.182L29.5325 16.4277C29.5503 16.4144 29.57 16.4058 29.5905 16.4023C29.6109 16.3987 29.6317 16.4004 29.6517 16.4072C29.6716 16.414 29.6903 16.4257 29.7067 16.4417C29.7231 16.4577 29.7368 16.4777 29.747 16.5004C29.7675 16.5461 29.773 16.6003 29.7622 16.651C29.7515 16.7018 29.7255 16.7452 29.6897 16.7717L28.6689 17.5261C28.6451 17.5434 28.6182 17.5512 28.5908 17.5512ZM30.5731 19.0069C30.5455 19.0068 30.5185 18.9975 30.4947 18.9798C30.4709 18.9621 30.4512 18.9368 30.4377 18.9064C30.4274 18.8838 30.4207 18.8588 30.418 18.833C30.4154 18.8071 30.4167 18.7808 30.422 18.7556C30.4274 18.7304 30.4365 18.7068 30.4491 18.6861C30.4616 18.6654 30.4772 18.6481 30.495 18.6351L31.5158 17.8821C31.5335 17.8688 31.5532 17.8602 31.5736 17.8567C31.5939 17.8532 31.6147 17.8549 31.6345 17.8617C31.6544 17.8685 31.673 17.8802 31.6893 17.8962C31.7056 17.9122 31.7192 17.9321 31.7293 17.9548C31.7502 18.0003 31.7559 18.0544 31.7454 18.1053C31.7348 18.1561 31.7088 18.1996 31.6731 18.2261L30.6522 18.9805C30.6282 18.9981 30.6008 19.0072 30.5731 19.0069Z" fill="#39332F"/>
<path d="M43.3085 49.7584C43.2679 50.1077 43.1835 50.4465 43.2043 50.8356C43.2043 50.8356 38.5429 48.3741 37.1762 48.0366C35.8397 47.6859 27.6293 43.8905 25.3752 42.309C23.3147 40.8705 9.79079 30.9187 9.79079 30.9187L2.1512 25.3459L2.01162 24.0252L45.2845 45.6532C44.2741 46.8575 43.5241 48.1663 43.3095 49.7597L43.3085 49.7584Z" fill="#F45170"/>
<path d="M46.8616 43.8018C45.8512 45.0074 43.5231 48.165 43.3095 49.7583C41.922 49.045 38.8897 47.5179 37.8387 47.2585C36.472 46.8959 28.1189 43.0342 25.8137 41.4277C23.7127 39.9508 9.94391 29.8176 9.94391 29.8176L2.01162 24.0239L1.36891 16.1564L46.8606 43.8018H46.8616Z" fill="#9EA9C9"/>
<path d="M48.2647 42.1568C47.4283 43.647 45.9377 46.8826 45.6512 48.0882C45.5595 48.4508 45.5293 48.7751 45.5595 49.0728L43.2033 50.8356C43.1929 50.4624 43.2138 50.0888 43.2658 49.7213C43.4793 48.1015 44.295 46.8178 45.2845 45.6519L48.2647 42.1568Z" fill="#B0B8CF"/>
<path d="M45.6522 48.0882C45.5595 48.4508 45.5293 48.7751 45.5595 49.0728L43.2033 50.8356C43.1929 50.4624 43.2138 50.0888 43.2658 49.7213L45.6522 48.0882Z" fill="#DF3260"/>
<path d="M3.65849 15.2962L3.6512 18.3969L0.923077 16.3959L0.930368 13.2952L3.65849 15.2962Z" fill="#C9CEE2"/>
<path d="M40.4439 24.6154L40.4377 27.7161L37.6887 29.7448L37.696 26.6455L40.4439 24.6154ZM24.6762 32.4035L24.6689 35.5042L2.50224 19.2451L2.50954 16.1445L24.6762 32.4035Z" fill="#B0B8CF"/>
<path d="M27.7877 35.9436L27.7804 39.0429L23.8147 36.1341L23.821 33.0348L27.7877 35.9436Z" fill="#C9CEE2"/>
<path d="M43.4127 43.2619L43.4064 46.3612L27.7804 39.0429L27.7877 35.9436L43.4127 43.2619Z" fill="#B0B8CF"/>
<path d="M50.9231 37.7169L50.9158 40.8163L47.847 44.5231L43.4064 46.3612L43.4127 43.2619L50.9231 37.7169Z" fill="#C9CEE2"/>
<path d="M40.4439 24.6154L37.696 26.6455L50.9231 37.7169L43.4127 43.2619L27.7877 35.9436L23.821 33.0348L24.6762 32.4035L2.50954 16.1445L3.65849 15.2962L0.930368 13.2952L9.9262 6.65316L13.7231 8.99819L14.546 8.94526L15.6585 9.57254L16.2377 9.14509L21.6908 11.2519L24.8835 14.6623L33.8293 20.546L34.9252 20.5672L40.4439 24.6154Z" fill="#E3E7F0"/>
<path d="M50.3502 37.6997L43.3814 42.8476L38.8918 40.7435L38.5064 40.5582L34.996 38.9172L34.621 38.7319L31.1106 37.0909L30.7252 36.9189L27.8918 35.5823L27.3397 35.172L27.0272 34.9471L24.4231 33.0282L25.2772 32.4062L24.996 32.2077L24.6835 31.9695L21.8085 29.8653L21.496 29.6271L18.621 27.5229L18.3085 27.2979L15.4231 25.1805L15.121 24.9555L12.2356 22.8381L11.9231 22.5999L9.04808 20.4957L8.73558 20.2708L5.86058 18.1533L5.54808 17.9284L3.11058 16.1418L4.25641 15.2948L3.81891 14.9772L3.50641 14.739L1.52724 13.2965L9.93349 7.08988L12.0793 8.40002L12.4127 8.61176L13.6627 9.37933L14.4856 9.32639L15.6731 10.0013L16.2772 9.55137L16.6731 9.71017L17.0897 9.86898L20.8606 11.3247L21.2668 11.4835L21.5481 11.5894L23.7147 13.9053L23.9647 14.17L24.6939 14.9508L26.7877 16.3271L27.121 16.5521L30.1522 18.5504L30.4856 18.7621L33.5168 20.7604L33.7564 20.9192H33.9127L34.8397 20.9457L37.246 22.7058L37.5585 22.9308L38.996 23.9895L39.3814 24.2674L39.8502 24.6115L39.746 24.6909L39.6314 24.7703L38.7147 25.4452L38.5897 25.5378L37.6731 26.226L37.5377 26.3186L37.2877 26.5171L37.1731 26.5965H37.1627L37.1314 26.623L37.6835 27.0862L37.9752 27.3244L40.6627 29.5741L40.9543 29.8256L43.6418 32.0753L43.9335 32.3135L46.621 34.5765L46.9127 34.8147L50.3502 37.6997Z" fill="#423B37"/>
<path d="M12.4127 8.61177L3.81891 14.9772L3.50641 14.739L12.0793 8.40002L12.4127 8.61177ZM17.0897 9.86898L5.86058 18.1533L5.54808 17.9284L16.6731 9.71017L17.0897 9.86898ZM21.2668 11.4835L9.04808 20.4957L8.73558 20.2708L20.8606 11.3247L21.2668 11.4835ZM23.9647 14.17L12.2356 22.8381L11.9231 22.5999L23.7147 13.9053L23.9647 14.17ZM27.121 16.5521L15.4231 25.1805L15.121 24.9555L26.7877 16.3271L27.121 16.5521ZM30.4856 18.7621L18.621 27.5229L18.3085 27.2979L30.1522 18.5504L30.4856 18.7621ZM33.9127 20.9192L21.8085 29.8653L21.496 29.6271L33.5168 20.7604L33.7564 20.9192H33.9127ZM37.5585 22.9308L24.996 32.2077L24.6835 31.9695L37.246 22.7058L37.5585 22.9308ZM37.9752 27.3244L27.3397 35.172L27.0272 34.9471L37.6835 27.0862L37.9752 27.3244ZM40.9543 29.8256L31.1106 37.0909L30.7252 36.9189L40.6627 29.5741L40.9543 29.8256ZM43.9335 32.3135L34.996 38.9172L34.621 38.7319L43.6418 32.0753L43.9335 32.3135ZM46.9127 34.8147L38.8918 40.7435L38.5064 40.5582L46.621 34.5765L46.9127 34.8147Z" fill="#383330"/>
<path d="M48.5293 37.0314C48.5191 37.0238 48.5087 37.0167 48.4981 37.0102L38.5699 31.2734L33.6241 34.9246L43.5512 40.6614L43.5845 40.6826C43.7616 40.8123 43.9075 41.1233 43.9064 41.3866L43.9043 42.4639L48.8491 38.8127L48.8512 37.7354C48.8453 37.5941 48.813 37.4565 48.7571 37.3341C48.7011 37.2117 48.623 37.1079 48.5293 37.0314Z" fill="#383330"/>
<path d="M44.3293 40.1321C44.3191 40.1245 44.3087 40.1174 44.2981 40.1109L34.371 34.374L34.2606 34.4534L44.1877 40.1916C44.1991 40.1969 44.2106 40.2049 44.221 40.2128C44.3981 40.3425 44.5439 40.6535 44.5429 40.9168L44.5408 41.9941L44.6502 41.9147L44.6522 40.8361C44.6462 40.6946 44.6138 40.557 44.5577 40.4346C44.5015 40.3122 44.4232 40.2085 44.3293 40.1321Z" fill="#E5AF05"/>
<path d="M44.8658 39.7364C44.8553 39.7288 44.8445 39.7217 44.8335 39.7152L34.9064 33.9783L34.796 34.0591L44.7231 39.7959L44.7564 39.8171C44.9335 39.9468 45.0793 40.2591 45.0783 40.5225L45.0752 41.5997L45.1845 41.519L45.1877 40.4417C45.1818 40.3 45.1495 40.1621 45.0933 40.0395C45.0371 39.9168 44.9588 39.8129 44.8647 39.7364H44.8658ZM47.6783 37.66C47.6674 37.6523 47.6563 37.6453 47.645 37.6388L37.7179 31.902L37.6085 31.9827L47.5356 37.7195L47.5679 37.7407C47.745 37.8704 47.8908 38.1827 47.8908 38.4461L47.8877 39.5233L47.997 39.4426L47.9991 38.3654C47.9934 38.2238 47.9612 38.086 47.9052 37.9633C47.8493 37.8406 47.7721 37.7367 47.6783 37.66Z" fill="#E5AF05"/>
<path d="M48.2127 37.2656C48.2021 37.258 48.1914 37.2509 48.1804 37.2444L38.2533 31.5076L38.1429 31.587L48.07 37.3252L48.1033 37.3464C48.2804 37.476 48.4262 37.787 48.4252 38.0504L48.4231 39.1276L48.5325 39.0482L48.5345 37.9697C48.5285 37.8282 48.4961 37.6906 48.4399 37.5681C48.3838 37.4457 48.3066 37.342 48.2127 37.2656Z" fill="#E5AF05"/>
<path d="M43.5845 40.6826C43.7616 40.8123 43.9075 41.1233 43.9064 41.3866L43.9043 42.4639L33.6241 34.9246L43.5512 40.6614L43.5845 40.6826Z" fill="#191716"/>
<path d="M46.2835 38.6896C46.273 38.682 46.2622 38.6749 46.2512 38.6684L36.6304 33.1102L36.521 33.1896L46.1418 38.7491L46.1731 38.7703C46.3512 38.9 46.496 39.211 46.496 39.4757L46.4939 40.5516L46.6033 40.4722L46.6054 39.3949C46.5995 39.2532 46.5672 39.1153 46.511 38.9927C46.4549 38.87 46.3765 38.7661 46.2824 38.6896H46.2835Z" fill="#DF3260"/>
<path d="M36.7345 34.0247L36.5512 33.6197L37.5168 32.9064L37.7002 33.3114L36.7345 34.0247ZM37.6179 34.4587L37.4345 34.0551L38.4002 33.3418L38.5835 33.7454L37.6179 34.4587ZM38.5022 34.8941L38.3179 34.4905L39.2835 33.7772L39.4679 34.1808L38.5022 34.8941ZM39.3856 35.3295L39.2012 34.9259L40.1668 34.2126L40.3512 34.6162L39.3856 35.3295ZM40.27 35.7636L40.0856 35.36L41.0512 34.6467L41.2356 35.0503L40.27 35.7636ZM41.1533 36.199L40.9689 35.7953L41.9345 35.082L42.1189 35.4857L41.1533 36.199ZM41.8439 36.776L41.6595 36.3723L42.8179 35.5174L43.0022 35.9211L41.8439 36.776ZM42.7929 37.1637L42.6085 36.7601L43.7022 35.9528L43.8856 36.3565L42.7929 37.1637ZM43.4314 37.7791L43.247 37.3755L44.5856 36.3882L44.7699 36.7919L43.4314 37.7791ZM44.1002 38.3852L43.9158 37.9816L45.2554 36.993L45.4387 37.3966L44.1002 38.3852ZM44.7699 38.9926L44.5856 38.589L45.9241 37.5991L46.1085 38.0027L44.7699 38.9926ZM45.4387 39.5987L45.2554 39.1951L46.5939 38.2065L46.7772 38.6102L45.4387 39.5987Z" fill="#383330"/>
<path d="M6.70745 14.2533L6.64183 14.3711L6.21474 14.2176L6.34495 14.1237L6.70745 14.2533ZM7.66995 14.5855L8.62933 14.9217L8.55849 15.0381L7.59808 14.7033L7.66995 14.5855ZM9.59078 15.2578L10.5512 15.5926L10.4793 15.7104L9.51995 15.3742L9.59078 15.2578Z" fill="#F45170"/>
<path d="M7.66891 14.5855L8.62933 14.9217L8.55849 15.0381L7.59808 14.7033L7.66891 14.5855ZM5.74808 13.9132L6.70849 14.2494L6.63766 14.3672L5.67724 14.031L5.74808 13.9132ZM3.82724 13.241L4.78766 13.5771L4.71683 13.6949L3.75641 13.3587L3.82724 13.241ZM2.87099 12.8995L2.79808 13.0186L2.18349 12.8069L2.31891 12.7142L2.87099 12.8995ZM11.5106 15.9287L12.471 16.2649L12.4012 16.3827L11.4397 16.0465L11.5106 15.9287ZM5.66058 15.9804L6.14599 16.1524L6.07412 16.2702L5.58974 16.0981L5.66058 15.9804ZM6.63141 16.3244L7.11578 16.4965L7.04391 16.6129L6.55849 16.4422L6.63141 16.3244ZM4.70953 15.6522L5.19391 15.8242L5.12308 15.942L4.63766 15.7699L4.70953 15.6522ZM13.4314 16.601L14.3918 16.9372L14.321 17.0536L13.3606 16.7188L13.4314 16.601ZM7.60016 16.6685L8.08558 16.8406L8.0137 16.957L7.52828 16.785L7.60016 16.6685ZM8.56995 17.0126L9.05433 17.1833L8.98349 17.3011L8.49808 17.1291L8.56995 17.0126ZM15.3522 17.2733L16.3127 17.6081L16.2418 17.7259L15.2814 17.3898L15.3522 17.2733ZM9.53974 17.3553L10.0252 17.5274L9.95224 17.6438L9.46787 17.4731L9.53974 17.3553ZM10.5085 17.6994L10.9939 17.8715L10.922 17.9879L10.4377 17.8159L10.5085 17.6994ZM17.2731 17.9443L18.2335 18.2804L18.1627 18.3982L17.2022 18.062L17.2731 17.9443ZM11.4793 18.0435L11.9637 18.2142L11.8918 18.332L11.4064 18.16L11.4793 18.0435ZM19.1929 18.6165L20.1533 18.9527L20.0824 19.0691L19.122 18.733L19.1929 18.6165ZM13.4179 18.7303L13.4856 18.7542L13.7908 19.0559L13.6502 19.1313L13.372 18.8574L13.346 18.8468L13.4179 18.7303ZM21.1137 19.2875L22.0741 19.6236L22.0033 19.7414L21.0429 19.4053L21.1137 19.2875ZM13.972 19.4503L14.1127 19.3762L14.4356 19.6951L14.2939 19.7692L13.972 19.4503ZM23.0345 19.9598L23.9949 20.2959L23.9241 20.4124L22.9637 20.0775L23.0345 19.9598ZM14.845 19.8751L15.3356 20.0378L15.2689 20.1569L14.7783 19.9942L14.845 19.8751ZM15.8252 20.2006L16.3158 20.3634L16.2491 20.4825L15.7585 20.3197L15.8252 20.2006ZM24.9554 20.632L25.9158 20.9669L25.845 21.0846L24.8845 20.7485L24.9554 20.632ZM16.8064 20.5262L17.297 20.6889L17.2293 20.8081L16.7387 20.6453L16.8064 20.5262ZM17.7877 20.8517L18.2772 21.0145L18.2095 21.1323L17.72 20.9695L17.7877 20.8517ZM26.8762 21.303L27.8356 21.6391L27.7647 21.7569L26.8043 21.4208L26.8762 21.303ZM18.7679 21.1773L19.2585 21.3401L19.1908 21.4578L18.7002 21.2951L18.7679 21.1773ZM19.7481 21.5028L20.2377 21.6656L20.1699 21.7834L19.6804 21.6206L19.7481 21.5028ZM28.796 21.9753L29.7564 22.3101L29.6856 22.4279L28.7262 22.0917L28.796 21.9753ZM30.7168 22.6462L31.6772 22.9824L31.6064 23.1001L30.646 22.764L30.7168 22.6462ZM32.6366 23.3185L33.597 23.6533L33.5262 23.7711L32.5668 23.435L32.6366 23.3185ZM20.7283 21.8271L21.2189 21.9898L21.1512 22.1089L20.6606 21.9462L20.7283 21.8271ZM21.7085 22.1526L22.1991 22.3154L22.1314 22.4332L21.6408 22.2717L21.7085 22.1526Z" fill="#F45170"/>
<path d="M30.7168 22.6462L31.6772 22.9824L31.6064 23.1001L30.646 22.764L30.7168 22.6462ZM22.6897 22.4782L23.1793 22.6409L23.1116 22.7587L22.622 22.5959L22.6897 22.4782ZM23.67 22.8037L24.1595 22.9665L24.0929 23.0843L23.6022 22.9215L23.67 22.8037ZM24.6502 23.1293L25.1408 23.2907L25.072 23.4098L24.5825 23.247L24.6502 23.1293ZM26.6106 23.779L27.1012 23.9418L27.0335 24.0596L26.5429 23.8981L26.6106 23.779ZM34.5585 23.9895L35.5179 24.3256L35.447 24.4434L34.4877 24.1072L34.5585 23.9895ZM27.5918 24.1046L28.0814 24.2674L28.0137 24.3851L27.5241 24.2224L27.5918 24.1046Z" fill="#F45170"/>
<path d="M26.6106 23.779L27.1012 23.9418L27.0335 24.0609L26.5439 23.8981L26.6106 23.779ZM25.6304 23.4535L26.121 23.6163L26.0533 23.7354L25.5627 23.5726L25.6304 23.4535ZM28.572 24.4301L29.0616 24.5929L28.9949 24.7107L28.5043 24.5479L28.572 24.4301ZM36.4793 24.6617L37.4397 24.9979L37.3679 25.1143L36.4074 24.7795L36.4793 24.6617ZM29.5522 24.7557L30.0429 24.9172L29.9752 25.0363L29.4845 24.8735L29.5522 24.7557ZM30.5324 25.0799L31.0231 25.2427L30.9554 25.3618L30.4647 25.199L30.5324 25.0799Z" fill="#F45170"/>
<path d="M30.5325 25.0799L31.0231 25.2427L30.9554 25.3618L30.4647 25.199L30.5325 25.0799ZM31.5127 25.4055L32.0033 25.5683L31.9356 25.6874L31.445 25.5246L31.5127 25.4055ZM38.7147 25.4452L38.5897 25.5378L38.3293 25.4452L38.4022 25.3393L38.7147 25.4452ZM32.4929 25.731L32.9835 25.8938L32.9168 26.0116L32.4262 25.8488L32.4929 25.731ZM33.4741 26.0566L33.9637 26.2194L33.897 26.3371L33.4064 26.1744L33.4741 26.0566ZM34.4543 26.3808L34.945 26.5436L34.8772 26.6627L34.3877 26.4999L34.4543 26.3808ZM35.4345 26.7064L35.9252 26.8691L35.8585 26.9882L35.3679 26.8255L35.4345 26.7064ZM36.4158 27.0319L36.9064 27.1947L36.8387 27.3138L36.3481 27.151L36.4158 27.0319ZM37.397 27.3575L37.8866 27.5202L37.8189 27.638L37.3293 27.4752L37.397 27.3575Z" fill="#F45170"/>
<path d="M37.8189 24.0159L38.0168 23.791H38.0272L39.3814 24.2674L38.996 23.9895L16.7356 16.208L16.7147 16.1947H16.7043L10.6418 14.0773L10.6731 14.1038L10.6418 14.0906V14.0773L3.73558 11.6688L3.61058 11.7614L10.5481 14.1832L10.3397 14.4082V14.3949L3.35016 11.9467L3.21474 12.0526L39.6314 24.7703L39.746 24.6909L37.8189 24.0159ZM38.0585 23.738V23.7513L37.9335 23.6851L38.0585 23.738ZM10.4752 14.4876L10.5064 14.4611L10.7147 14.2361L13.5377 15.2287L13.3293 15.4404L10.4752 14.4876ZM13.496 15.4933L13.7043 15.2816L16.6002 16.3006L16.4022 16.5124L13.496 15.4933ZM16.5585 16.5918L16.5689 16.5785L16.7668 16.3668V16.3535L19.6939 17.3726L19.746 17.3196V17.3329L19.6939 17.3858L19.496 17.5975L16.5585 16.5918ZM19.6627 17.6505L19.8606 17.4387L22.7043 18.4313L22.7564 18.3783V18.3651L22.8918 18.4445L22.7564 18.3783L22.7043 18.4445L22.5064 18.6562L19.6627 17.6505ZM22.6731 18.7092L22.871 18.4974V18.4842L25.7772 19.4503V19.4635L25.746 19.5032L25.5377 19.7149L22.6731 18.7092ZM25.7043 19.7679L25.9127 19.5561V19.5429L28.7668 20.5487L28.5585 20.7604L25.7043 19.7679ZM28.6939 20.853L28.7147 20.8266L28.9231 20.6148L31.8085 21.6074L31.6106 21.8323L28.6939 20.853ZM31.7772 21.8985L31.9647 21.6735L34.7981 22.6528L34.8397 22.6131L34.7981 22.6661L34.5897 22.8778L31.7772 21.8985ZM34.7564 22.9308L34.9647 22.719V22.7058L37.8606 23.7248L37.9127 23.6718L37.8606 23.738L37.6522 23.9498L34.7564 22.9308ZM9.39183 16.7506L9.38141 16.7638L9.35016 16.7903L11.3293 17.452L11.7564 17.5843L9.39183 16.7506ZM12.6002 17.452L5.29808 14.8978L3.38141 14.2229H3.36058L2.28766 13.8524L2.63141 14.1038L3.24599 14.3155L5.16266 14.9905L7.49599 15.811L9.45432 16.4462L9.62099 16.4991L13.6002 17.796L12.6002 17.452ZM21.5064 21.0648V21.0516L11.3293 17.452L9.38141 16.7638L9.21474 16.6976L7.91266 16.2477L7.28766 16.0227L4.89183 15.189L3.39183 14.6596L3.76683 14.9375L3.81891 14.9772L35.4022 25.9878L37.1627 26.5965L21.5064 21.0648ZM13.6522 17.8093L13.6106 17.796H13.6002L12.6002 17.452L5.29808 14.8978L3.38141 14.2229H3.36058L3.24599 14.3155L5.16266 14.9905L7.49599 15.811L9.42307 16.4859L9.58974 16.5388L12.4647 17.4652H12.4752L12.5168 17.4784L15.5793 18.4842L13.6522 17.8093ZM33.5585 25.3128L33.496 25.2864L21.5064 21.0516L15.4439 18.8812H15.4231L12.3606 17.796L12.2043 17.7431L11.7564 17.5843L9.39183 16.7506L9.21474 16.6976L7.91266 16.2477L7.28766 16.0227L4.89183 15.189L3.39183 14.6596L3.76683 14.9375L4.76683 15.2816L35.4022 25.9878L37.1627 26.5965L33.5585 25.3128ZM37.5377 26.3186L37.6731 26.226L27.7252 22.7455L27.871 22.8249L27.7252 22.7587V22.7455L15.6002 18.5107L15.5897 18.4974H15.5793L15.4752 18.6033L15.2772 18.815L12.3606 17.796L12.5689 17.5843H12.5793L15.4752 18.5901L15.5793 18.4842L13.6522 17.8093L13.6106 17.796H13.6002L12.6002 17.452L5.29808 14.8978L5.16266 14.9905L7.49599 15.811L9.42307 16.4859L9.21474 16.6976L7.91266 16.2477L7.28766 16.0227L4.89183 15.189L4.76683 15.2816L35.4022 25.9878L37.1627 26.5965H37.1731L37.2877 26.5171L36.6939 26.3054L36.8918 26.0936L37.5377 26.3186ZM33.6627 24.9555V24.9688L33.4647 25.1805H33.4543L30.6418 24.188L30.8397 23.9762L33.6627 24.9555ZM27.7981 22.9175L30.6731 23.9101L30.7356 23.8571V23.8704L30.6731 23.9101L30.4752 24.135V24.1218L27.5689 23.1425L27.5897 23.1293L27.7981 22.9175ZM24.7877 21.8588L27.6314 22.8514L27.4231 23.0631L24.5689 22.0706L24.7772 21.8588H24.7877ZM24.6522 21.7662L24.621 21.8059L24.4127 22.0176L21.5481 21.0119L21.746 20.8001L21.7564 20.7869L24.6522 21.7529V21.7662ZM21.5793 20.7339L21.6418 20.6678L21.7877 20.7472L21.6418 20.681L21.5793 20.7339L21.3814 20.9589L18.5377 19.9664L18.7252 19.7414L21.5793 20.7339ZM15.6418 18.6695V18.6562H15.6522L18.5689 19.6752L18.371 19.9002V19.887L15.4439 18.8812L15.6418 18.6695ZM12.6106 17.5446L12.4752 17.4652L12.5168 17.4784L12.6106 17.5446ZM9.58974 16.5388L12.4022 17.5314L12.2043 17.7431L11.7564 17.5843L9.39183 16.7506L9.58974 16.5388ZM36.7252 26.0407L36.5168 26.2524L33.621 25.2334L33.8293 25.0217V25.0085L36.7252 26.0275L36.7668 25.9878L36.7252 26.0407ZM36.9439 26.0407V26.0539L36.7877 25.9745L36.9439 26.0407Z" fill="#E3E7F0"/>
<mask id="mask0_4_789" style="mask-type:luminance" maskUnits="userSpaceOnUse" x="15" y="8" width="1" height="2">
<path d="M15.7488 8.96775L15.7468 9.93912C15.7438 9.68635 15.7428 9.5421 15.7418 9.28669L15.7438 8.31533C15.7448 8.57074 15.7458 8.71366 15.7488 8.96775Z" fill="white"/>
</mask>
<g mask="url(#mask0_4_789)">
<path d="M15.7488 8.96775L15.7468 9.93912C15.7438 9.68635 15.7428 9.5421 15.7418 9.28669L15.7438 8.31533C15.7448 8.57074 15.7458 8.71366 15.7488 8.96775Z" fill="#B0B8CF"/>
</g>
<path d="M24.2877 11.5444V14.8131L22.1939 16.335H21.3189L15.746 12.2325V8.96379L21.3189 13.0795H22.2043L24.2877 11.5444Z" fill="#9EA9C9"/>
<path d="M24.2845 11.5431L24.2825 14.8078L22.1981 16.3403L22.2002 13.0742L24.2845 11.5431Z" fill="#C9CEE2"/>
<path d="M21.3158 13.0742L21.3137 16.3403L15.747 12.2325L15.7491 8.96775L21.3158 13.0742Z" fill="#B0B8CF"/>
<path d="M21.3147 13.0742H22.1991V16.3403H21.3147V13.0742Z" fill="#9EA9C9"/>
<path d="M24.2835 10.8906L24.2845 11.5431L22.2002 13.0742H21.3158L15.7491 8.96776C15.746 8.71367 15.745 8.57074 15.7439 8.31533L17.8283 6.78285H18.7168L24.2835 10.8906Z" fill="#E3E7F0"/>
<path d="M24.1627 10.9872V11.4465L22.1668 12.9194H21.347L15.8762 8.87247C15.8762 8.79307 15.8689 8.72293 15.8762 8.65279C15.8689 8.57339 15.8689 8.50193 15.8689 8.40135L17.8627 6.94034H18.6825L24.1616 10.9859L24.1627 10.9872Z" fill="#B0B8CF"/>
<path d="M24.1627 11.2254V11.4464L22.1668 12.9194H21.347L15.8762 8.87247C15.8762 8.79307 15.8689 8.72293 15.8762 8.65279L17.8627 7.19045H18.6825L24.1616 11.2268L24.1627 11.2254Z" fill="#423B37"/>
<path d="M18.1814 3.52866V3.54719C18.1783 3.56836 18.1668 3.58689 18.146 3.60277C18.1188 3.62001 18.0889 3.62898 18.0585 3.62898C18.0281 3.62898 17.9982 3.62001 17.971 3.60277C17.9491 3.58689 17.9377 3.56704 17.9345 3.54586V3.52866C17.9362 3.49105 17.9485 3.45548 17.9692 3.42848C17.9898 3.40149 18.0175 3.3849 18.047 3.38176H18.0575C18.1231 3.38176 18.1772 3.44661 18.1814 3.52866Z" fill="#191716"/>
<path d="M18.1814 3.52866V3.54719C18.1783 3.56836 18.1668 3.58689 18.146 3.60277C18.1365 3.60946 18.1264 3.61436 18.1158 3.61733C18.0778 3.62312 18.0394 3.61437 18.0054 3.59218C17.9845 3.5763 17.972 3.55645 17.9689 3.5366V3.51807C17.9701 3.488 17.9781 3.45902 17.992 3.4346C18.0058 3.41018 18.025 3.39137 18.047 3.38044H18.0575C18.1231 3.38044 18.1772 3.44529 18.1814 3.52734V3.52866Z" fill="#423B37"/>
<path d="M20.5158 6.83446L20.2856 7.90905L19.0356 7.9461L16.9075 6.35408L16.5908 8.69911L19.0658 10.5492L20.5887 10.5042L20.8272 9.24831L20.5158 6.83446Z" fill="#9EA9C9"/>
<path d="M20.5158 6.83447L20.8272 9.24831L20.5887 10.5042L20.2856 7.90905L20.5158 6.83447Z" fill="#B0B8CF"/>
<path d="M20.2856 7.90905L20.5887 10.5042L19.0658 10.5505L19.0356 7.94611L20.2856 7.90905Z" fill="#9EA9C9"/>
<path d="M19.0356 7.9461L19.0658 10.5505L16.5908 8.69911L16.9075 6.35408L19.0356 7.9461Z" fill="#B0B8CF"/>
<path d="M20.5168 6.8477L20.2856 7.9064L19.0272 7.94611L16.9085 6.3554L18.395 5.25699L20.5168 6.8477Z" fill="#E3E7F0"/>
<path d="M20.3502 7.0687L20.3835 6.91519L18.3939 5.42506L17.1335 6.35673L17.2533 6.44539L18.3939 5.60107L20.3502 7.0687Z" fill="#B0B8CF"/>
<path d="M20.1981 7.7648L20.3502 7.0687L18.3939 5.60107L17.2533 6.44539L19.0575 7.80053L20.1981 7.7648Z" fill="white"/>
<path d="M17.5293 7.68805L17.1085 7.3797L17.1106 6.99063L17.0679 6.96019L17.0658 7.41808L17.5293 7.75819V7.68805Z" fill="#211A67"/>
<path d="M17.5293 7.29765L17.5147 7.28706L17.4595 7.24736L17.3325 7.15208L17.1106 6.99063L17.1085 7.38102L17.3325 7.5438L17.4595 7.63776L17.5147 7.67878L17.5293 7.68937V7.29765Z" fill="#423D9B"/>
<path opacity="0.24" d="M17.3325 7.15208V7.5438L17.4595 7.63776V7.24736L17.3325 7.15208Z" fill="white"/>
<path d="M18.1585 8.14991L17.7377 7.84024L17.7397 7.45249L17.697 7.42072L17.695 7.87861L18.1585 8.21872V8.14991Z" fill="#211A67"/>
<path d="M18.1585 7.75951L18.1439 7.74892L18.0887 7.7079L17.9616 7.61394L17.7397 7.45116L17.7377 7.84288L17.9616 8.00433L18.0887 8.09962L18.1439 8.13932L18.1585 8.14991V7.75951Z" fill="#423D9B"/>
<path opacity="0.24" d="M17.9616 7.61394V8.00434L18.0887 8.09962V7.7079L17.9616 7.61394Z" fill="white"/>
<path d="M18.7877 8.61044L18.3668 8.3021L18.3689 7.91302L18.3262 7.88258L18.3241 8.34047L18.7877 8.68058V8.61044Z" fill="#211A67"/>
<path d="M18.7877 8.22005L18.7731 8.20946L18.7179 8.16976L18.5908 8.07447L18.3689 7.91302L18.3668 8.30342L18.5908 8.46619L18.7179 8.56016L18.7731 8.60118L18.7877 8.61177V8.22005Z" fill="#423D9B"/>
<path opacity="0.24" d="M18.5908 8.07447V8.46619L18.7179 8.56015V8.16976L18.5908 8.07447Z" fill="white"/>
<path d="M17.5293 8.54824L17.1085 8.2399L17.1106 7.85082L17.0679 7.82038L17.0658 8.27827L17.5293 8.61706V8.54824Z" fill="#211A67"/>
<path d="M17.5293 8.15785L17.5147 8.14726L17.4595 8.10756L17.3325 8.01228L17.1106 7.85082L17.1085 8.24122L17.3325 8.404L17.4595 8.49796L17.5147 8.53898L17.5293 8.54957V8.15785Z" fill="#423D9B"/>
<path opacity="0.24" d="M17.3325 8.01227V8.404L17.4595 8.49796V8.10756L17.3325 8.01227Z" fill="white"/>
<path d="M18.1585 9.00878L17.7377 8.70043L17.7397 8.31268L17.697 8.28092L17.695 8.73881L18.1585 9.07892V9.00878Z" fill="#211A67"/>
<path d="M18.1585 8.61971L18.1439 8.60912L18.0887 8.56809L17.9616 8.47413L17.7397 8.31136L17.7377 8.70308L17.9616 8.86453L18.0887 8.95849L18.1439 8.99952L18.1585 9.0101V8.61971Z" fill="#423D9B"/>
<path opacity="0.24" d="M17.9616 8.47413V8.86453L18.0887 8.95849V8.56809L17.9616 8.47413Z" fill="white"/>
<path d="M18.7877 9.47064L18.3668 9.16229L18.3689 8.77322L18.3262 8.74278L18.3241 9.20067L18.7877 9.53946V9.47064Z" fill="#211A67"/>
<path d="M18.7877 9.08024L18.7731 9.06966L18.7179 9.02863L18.5908 8.93467L18.3689 8.7719L18.3668 9.16362L18.5908 9.32507L18.7179 9.42035L18.7731 9.46138L18.7877 9.47197V9.08024Z" fill="#423D9B"/>
<path opacity="0.24" d="M18.5908 8.93467V9.32507L18.7179 9.42035V9.02863L18.5908 8.93467Z" fill="white"/>
<path d="M19.2085 8.34577L20.1325 8.31798L20.1668 8.73617L19.2043 8.76528L19.2085 8.34577ZM19.2377 9.13186L20.1616 9.10407L20.196 9.52225L19.2335 9.55137L19.2377 9.13186ZM20.3762 8.31798L20.5262 7.62982L20.5658 7.85347L20.4064 8.68058L20.3762 8.31798ZM20.4616 9.12656L20.6116 8.43973L20.6512 8.66206L20.4918 9.48917L20.4616 9.12656Z" fill="#423D9B"/>
<path d="M19.1908 5.0479L18.8845 4.8216L18.5616 5.05716L18.8689 5.28346L19.1908 5.0479Z" fill="#ADB2C3"/>
<path d="M19.3543 6.45995L19.1929 6.34084L19.1908 5.0479L18.8689 5.28346L18.5616 5.05716L18.5637 6.58831L18.3897 6.71536L18.3908 7.12164L18.6981 7.34926L19.5095 6.75374L19.3543 6.45995Z" fill="#9EA9C9"/>
<path d="M19.3543 6.45995L19.047 6.23365L18.8856 6.35143L19.1929 6.57773L19.3543 6.45995ZM18.87 6.81461L18.5637 6.58831L18.3897 6.71536L18.697 6.94166L18.87 6.81461Z" fill="#E3E7F0"/>
<path d="M18.697 6.94166L18.3897 6.71536L18.3908 7.12164L18.6981 7.34926L18.697 6.94166ZM18.8689 5.28346L18.5616 5.05717L18.5637 6.58832L18.87 6.81462L18.8689 5.28346Z" fill="#C9CEE2"/>
<path d="M18.8689 5.28346L18.87 6.81461L18.697 6.94166L18.6981 7.34926L19.5095 6.75374L19.3543 6.45995L19.1929 6.57773L19.1908 5.0479L18.8689 5.28346Z" fill="#9EA9C9"/>
<path d="M17.5856 5.53623L17.5866 5.72547L17.9522 5.99676V5.80752L17.5856 5.53623Z" fill="#C9CEE2"/>
<path d="M17.9522 5.80752V5.99676L20.4397 4.1877V3.99713L17.9522 5.80752Z" fill="#B0B8CF"/>
<path d="M17.5856 5.53623L17.9522 5.80752L20.4397 3.99714L20.0731 3.72717L17.5856 5.53623Z" fill="#E3E7F0"/>
<path d="M19.2356 4.79513L18.9647 4.99364L18.7043 4.79513V3.0218L18.9647 3.20707L19.2252 3.0218L19.2356 4.79513Z" fill="#9EA9C9"/>
<path d="M18.7043 3.01783L18.7064 4.79911L18.9668 4.99099L18.9647 3.20972L18.7043 3.01783Z" fill="#C9CEE2"/>
<path d="M18.9647 3.20972L18.9668 4.99099L19.2304 4.79778L19.2283 3.01651L18.9647 3.20972Z" fill="#9EA9C9"/>
<path d="M18.7043 3.01783L18.9647 3.20972L19.2283 3.01651L18.9679 2.82462L18.7043 3.01783Z" fill="#E3E7F0"/>
<path d="M17.7689 3.52336L17.77 3.65967L18.0939 3.8992V3.76289L17.7689 3.52336Z" fill="#C9CEE2"/>
<path d="M18.0939 3.7629V3.8992L20.1241 2.41172V2.27541L18.0939 3.7629Z" fill="#B0B8CF"/>
<path d="M17.7689 3.52336L18.0939 3.76289L20.1241 2.27541L19.7991 2.03588L17.7689 3.52336Z" fill="#E3E7F0"/>
<path d="M18.9189 3.01254L18.7575 2.89079L18.7543 1.10687L18.9168 1.22597L18.9189 3.01254Z" fill="#C9CEE2"/>
<path d="M18.9168 1.22598L18.9189 3.01122L19.0897 2.88682L19.0866 1.10158L18.9168 1.22598Z" fill="#9EA9C9"/>
<path d="M18.7554 1.10687L18.9168 1.22597L19.0866 1.10158L18.9252 0.982471L18.7554 1.10687Z" fill="#E3E7F0"/>
<path d="M19.5481 4.42062V4.43783C19.546 4.459 19.5345 4.47753 19.5127 4.49341C19.4855 4.51065 19.4555 4.51962 19.4252 4.51962C19.3948 4.51962 19.3648 4.51065 19.3377 4.49341C19.3168 4.47885 19.3054 4.45768 19.3022 4.43783V4.42062C19.3037 4.38278 19.3158 4.34689 19.3365 4.31962C19.3572 4.29235 19.385 4.27557 19.4147 4.2724H19.4252C19.4908 4.2724 19.545 4.33857 19.5491 4.42062H19.5481Z" fill="#191716"/>
<path d="M19.5481 4.42062V4.43783C19.546 4.459 19.5345 4.47753 19.5127 4.49341C19.5036 4.50044 19.4938 4.50579 19.4835 4.50929C19.4454 4.51468 19.407 4.50546 19.3731 4.48282C19.3522 4.46826 19.3397 4.44841 19.3366 4.42724V4.41004C19.3378 4.37997 19.3458 4.35098 19.3597 4.32656C19.3735 4.30214 19.3927 4.28334 19.4147 4.2724H19.4252C19.4908 4.2724 19.545 4.33857 19.5491 4.42062H19.5481Z" fill="#423B37"/>
<path d="M20.1491 3.96537V3.98258C20.146 4.00375 20.1345 4.02228 20.1127 4.03816C20.0855 4.0554 20.0555 4.06437 20.0252 4.06437C19.9948 4.06437 19.9648 4.0554 19.9377 4.03816C19.9168 4.0236 19.9043 4.00243 19.9012 3.98258V3.96537C19.9027 3.92711 19.9152 3.89087 19.9363 3.86354C19.9574 3.83622 19.9857 3.81971 20.0158 3.81715H20.0262C20.0908 3.81715 20.145 3.88332 20.1491 3.96537Z" fill="#191716"/>
<path d="M20.1491 3.96537V3.98258C20.146 4.00375 20.1345 4.02228 20.1127 4.03816C20.1036 4.04519 20.0938 4.05054 20.0835 4.05404C20.0451 4.0597 20.0062 4.05047 19.972 4.02757C19.9512 4.01301 19.9397 3.99316 19.9366 3.97199V3.95478C19.9378 3.92472 19.9458 3.89573 19.9597 3.87131C19.9735 3.84689 19.9927 3.82809 20.0147 3.81715H20.0252C20.0908 3.81715 20.145 3.88332 20.1491 3.96537Z" fill="#423B37"/>
<path d="M18.1272 5.43697V5.45418C18.1241 5.47535 18.1127 5.49388 18.0918 5.50976C18.0647 5.527 18.0347 5.53597 18.0043 5.53597C17.974 5.53597 17.944 5.527 17.9168 5.50976C17.895 5.4952 17.8835 5.47403 17.8804 5.45418V5.43697C17.8818 5.39893 17.8941 5.36286 17.9151 5.33556C17.936 5.30826 17.964 5.29161 17.9939 5.28875H18.0043C18.07 5.28875 18.1241 5.35492 18.1272 5.43697Z" fill="#191716"/>
<path d="M18.1272 5.43697V5.45418C18.1241 5.47535 18.1127 5.49388 18.0918 5.50976C18.0828 5.51679 18.0729 5.52214 18.0627 5.52564C18.0243 5.5313 17.9854 5.52207 17.9512 5.49917C17.9304 5.48461 17.9179 5.46476 17.9158 5.44359L17.9147 5.43565V5.42639C17.916 5.39617 17.9242 5.36707 17.9382 5.34264C17.9523 5.3182 17.9716 5.29948 17.9939 5.28875H18.0043C18.07 5.28875 18.1241 5.35492 18.1272 5.43697Z" fill="#423B37"/>
<path d="M18.7272 4.98173V4.99894C18.7241 5.02011 18.7127 5.03864 18.6918 5.05452C18.6647 5.07176 18.6347 5.08074 18.6043 5.08074C18.574 5.08074 18.544 5.07176 18.5168 5.05452C18.495 5.03996 18.4835 5.01879 18.4804 4.99894V4.98173C18.4818 4.9439 18.494 4.908 18.5147 4.88073C18.5354 4.85346 18.5632 4.83668 18.5929 4.83352H18.6033C18.67 4.83352 18.7231 4.89968 18.7272 4.98173Z" fill="#191716"/>
<path d="M18.7272 4.98173V4.99894C18.7241 5.02011 18.7127 5.03864 18.6918 5.05452C18.6824 5.06167 18.6722 5.06702 18.6616 5.0704C18.6236 5.07579 18.5851 5.06657 18.5512 5.04393C18.5304 5.02937 18.5179 5.00952 18.5147 4.98835V4.97115C18.5159 4.94108 18.5239 4.91209 18.5378 4.88767C18.5517 4.86326 18.5708 4.84445 18.5929 4.83352H18.6033C18.67 4.83352 18.7231 4.89968 18.7272 4.98173Z" fill="#423B37"/>
<path d="M18.7814 3.07342V3.09194C18.7783 3.11312 18.7668 3.13165 18.745 3.14753C18.7178 3.16477 18.6878 3.17374 18.6575 3.17374C18.6271 3.17374 18.5971 3.16477 18.57 3.14753C18.5491 3.13165 18.5377 3.11179 18.5335 3.09062V3.07342C18.5351 3.03581 18.5485 3.00024 18.5692 2.97324C18.5898 2.94625 18.6175 2.92965 18.647 2.92652H18.6575C18.7231 2.92652 18.7772 2.99137 18.7814 3.07342Z" fill="#191716"/>
<path d="M18.7814 3.07341V3.09194C18.7783 3.11311 18.7668 3.13164 18.745 3.14752C18.7358 3.1541 18.726 3.159 18.7158 3.16208C18.6775 3.16815 18.6386 3.15938 18.6043 3.13693C18.5835 3.12105 18.572 3.1012 18.5689 3.08135V3.06283C18.5701 3.03276 18.5781 3.00377 18.592 2.97935C18.6058 2.95493 18.625 2.93613 18.647 2.92519H18.6575C18.7231 2.92519 18.7772 2.99004 18.7814 3.07209V3.07341Z" fill="#423B37"/>
<path d="M19.4116 2.6314V2.64993C19.4085 2.67111 19.397 2.68963 19.3762 2.70551C19.349 2.72275 19.3191 2.73173 19.2887 2.73173C19.2583 2.73173 19.2284 2.72275 19.2012 2.70551C19.1793 2.68963 19.1679 2.66978 19.1647 2.64993V2.6314C19.1667 2.59382 19.1792 2.5584 19.2001 2.53165C19.221 2.5049 19.2487 2.48863 19.2783 2.48583L19.2887 2.48451C19.3543 2.48451 19.4075 2.54935 19.4116 2.6314Z" fill="#191716"/>
<path d="M19.4116 2.6314V2.64993C19.4085 2.6711 19.397 2.68963 19.3762 2.70551C19.3671 2.71209 19.3572 2.71699 19.347 2.72007C19.3087 2.72614 19.2699 2.71737 19.2356 2.69493C19.2147 2.67905 19.2022 2.66052 19.1991 2.63934V2.62082C19.2004 2.5906 19.2086 2.5615 19.2226 2.53707C19.2367 2.51263 19.256 2.49391 19.2783 2.48318H19.2887C19.3543 2.48318 19.4075 2.54935 19.4116 2.6314Z" fill="#423B37"/>
<path d="M19.8877 2.27542V2.29262C19.8845 2.31247 19.8731 2.33232 19.8522 2.34688C19.8251 2.36412 19.7951 2.37309 19.7647 2.37309C19.7344 2.37309 19.7044 2.36412 19.6772 2.34688C19.6564 2.33232 19.6439 2.31247 19.6408 2.2913V2.27409C19.6425 2.23628 19.6549 2.20053 19.6758 2.17351C19.6967 2.14648 19.7246 2.13003 19.7543 2.1272H19.7647C19.8304 2.1272 19.8845 2.19072 19.8877 2.27277V2.27542Z" fill="#191716"/>
<path d="M19.8877 2.27542V2.29262C19.8845 2.31247 19.8731 2.33232 19.8522 2.34688C19.8432 2.35391 19.8333 2.35926 19.8231 2.36276C19.7847 2.36842 19.7458 2.35919 19.7116 2.33629C19.6908 2.32173 19.6783 2.30188 19.6762 2.28071V2.26483C19.6776 2.23499 19.6857 2.20629 19.6995 2.18213C19.7134 2.15797 19.7324 2.13936 19.7543 2.12852H19.7647C19.8304 2.12852 19.8845 2.19337 19.8877 2.27542Z" fill="#423B37"/>
<path d="M19.1627 1.01027V1.59255L18.9127 1.76459L18.6731 1.59255V1.01027L18.9127 0.838226L19.1627 1.01027Z" fill="#CC104A"/>
<path d="M19.1627 1.01688L19.1606 1.58726L18.9158 1.76856L18.9179 1.19818L19.1627 1.01688Z" fill="#DF3260"/>
<path d="M18.9179 1.19818L18.9158 1.76856L18.6689 1.58726L18.671 1.01688L18.9179 1.19818Z" fill="#CC104A"/>
<path d="M19.1627 1.01688L18.9179 1.19819L18.671 1.01688L18.9158 0.835579L19.1627 1.01688Z" fill="#F45170"/>
<path d="M21.646 12.1161L19.747 10.6908L22.52 8.65544L24.4189 10.082L21.646 12.1161Z" fill="#E3E7F0"/>
<path d="M23.8137 10.2303L24.0189 10.0794L22.5189 8.9532L20.147 10.6934L20.3522 10.847L22.5189 9.25758L23.8137 10.2303Z" fill="#B0B8CF"/>
<path d="M23.8137 10.2303L22.5189 9.25758L20.3522 10.847L21.647 11.8196L23.8137 10.2303Z" fill="#7A794D"/>
<path d="M24.4231 10.0754V11.4914L21.6522 13.5295L19.746 12.1002V10.6842L21.6418 12.1134L24.4231 10.0754Z" fill="#B0B8CF"/>
<path d="M21.6491 13.5308L19.7502 12.1055L19.747 10.6908L21.646 12.1161L21.6491 13.5308Z" fill="#C9CEE2"/>
<path d="M24.4189 10.082L24.4231 11.4967L21.6491 13.5308L21.646 12.1161L24.4189 10.082Z" fill="#B0B8CF"/>
<path d="M21.9095 12.8678V12.9697L24.1595 11.3181L24.1564 10.6432L24.0939 10.6895L24.096 11.2612L21.9095 12.8678Z" fill="#211A67"/>
<path d="M24.0929 10.6882L23.7668 10.9264L23.5793 11.0666L23.4981 11.1262L22.8429 11.6039L21.9095 12.2908V12.8704L22.8429 12.1836L23.4981 11.7019L23.5793 11.6423L23.7668 11.5034L24.096 11.2651L24.0929 10.6882Z" fill="#423D9B"/>
<g opacity="0.24">
<path d="M23.4981 11.1262V11.7019L22.8429 12.1836V11.6039L23.4981 11.1262ZM23.7668 10.9264V11.5034L23.5793 11.6423V11.0666L23.7668 10.9264Z" fill="white"/>
</g>
<path d="M21.5522 12.9207V13.0239L19.8543 11.7773L19.8564 11.1024L19.9189 11.1487L19.9168 11.7204L21.5522 12.9207Z" fill="#211A67"/>
<path d="M19.92 11.1474L20.246 11.3869L20.4335 11.5259L20.5147 11.5854L21.17 12.0631L21.5522 12.345V12.9233L21.17 12.6428L20.5147 12.1611L20.4335 12.1015L20.246 11.9626L19.9168 11.7244L19.92 11.1474Z" fill="#423D9B"/>
<g opacity="0.24">
<path d="M20.5147 11.5854V12.1611L21.17 12.6428V12.0631L20.5147 11.5854ZM20.246 11.3869V11.9626L20.4335 12.1015V11.5259L20.246 11.3869Z" fill="white"/>
</g>
<path d="M20.9377 14.1925V14.2944L16.2075 10.8165L16.2106 10.1429L16.272 10.1879L16.27 10.7609L20.9377 14.1925Z" fill="#211A67"/>
<path d="M16.2731 10.1866L16.5991 10.4261L16.7877 10.5651L16.8689 10.6246L17.5231 11.1024L20.9377 13.6155V14.1951L17.5231 11.682L16.8689 11.2003L16.7877 11.1407L16.5991 11.0018L16.27 10.7636L16.2731 10.1866Z" fill="#423D9B"/>
<g opacity="0.24">
<path d="M16.8689 10.6246V11.2003L17.5231 11.682V11.1024L16.8689 10.6246ZM16.5991 10.4261V11.0018L16.7877 11.1408V10.5651L16.5991 10.4261Z" fill="white"/>
</g>
<path d="M20.9377 15.357V15.4603L16.2075 11.9824L16.2106 11.3075L16.272 11.3538L16.27 11.9255L20.9377 15.357Z" fill="#211A67"/>
<path d="M16.2731 11.3525L16.5991 11.5907L16.7877 11.731L16.8689 11.7905L17.5231 12.2683L20.9377 14.7814V15.3597L17.5231 12.8479L16.8689 12.3662L16.7877 12.3066L16.5991 12.1664L16.27 11.9282L16.2731 11.3525Z" fill="#423D9B"/>
<g opacity="0.24">
<path d="M16.8689 11.7905V12.3662L17.5231 12.8479V12.2683L16.8689 11.7905ZM16.5991 11.5907V12.1664L16.7877 12.3066V11.731L16.5991 11.5907Z" fill="white"/>
</g>
<path d="M21.5481 36.3234L21.5554 34.5262C21.4293 34.4336 21.3262 34.509 21.3252 34.6917L21.3189 36.5391C21.3189 36.7257 21.421 36.9533 21.547 37.0446L22.5877 37.8082C22.7127 37.9009 22.8168 37.8254 22.8168 37.6388V37.5912L21.7762 36.8276C21.7097 36.7722 21.6544 36.6977 21.6147 36.6101C21.5751 36.5225 21.5523 36.4243 21.5481 36.3234Z" fill="#B0B8CF"/>
<path d="M22.595 35.2885L21.5554 34.5262L21.5481 36.3234C21.5481 36.5087 21.6512 36.7363 21.7772 36.8276L22.8168 37.5912L22.8231 35.7914C22.8188 35.6907 22.7959 35.5927 22.7563 35.5053C22.7167 35.4179 22.6614 35.3437 22.595 35.2885Z" fill="#E3E7F0"/>
<path d="M15.3512 31.7776L15.3575 29.9804C15.2325 29.8878 15.1283 29.9632 15.1283 30.1458L15.121 31.9946C15.121 32.1799 15.2241 32.4075 15.3502 32.4988L16.3897 33.2624C16.5147 33.355 16.6189 33.2796 16.6189 33.093V33.0454L15.5793 32.2831C15.5127 32.2276 15.4573 32.1529 15.4176 32.065C15.378 31.9772 15.3552 31.8787 15.3512 31.7776Z" fill="#B0B8CF"/>
<path d="M16.3981 30.744L15.3575 29.9804L15.3512 31.7776C15.3512 31.9628 15.4543 32.1905 15.5804 32.2831L16.62 33.0454L16.6262 31.2456C16.6219 31.1449 16.5991 31.0469 16.5594 30.9595C16.5198 30.8721 16.4645 30.7992 16.3981 30.744Z" fill="#E3E7F0"/>
<path d="M9.15433 27.2317L9.16058 25.4346C9.03558 25.342 8.93141 25.4174 8.93141 25.6013L8.92412 27.4488C8.92412 27.6341 9.02725 27.8617 9.15329 27.9543L10.1929 28.7166C10.3179 28.8092 10.422 28.7338 10.422 28.5472V28.4995L9.38245 27.7373C9.3156 27.6819 9.25999 27.6073 9.22016 27.5194C9.18033 27.4316 9.15742 27.333 9.15329 27.2317H9.15433Z" fill="#B0B8CF"/>
<path d="M10.2012 26.1982L9.16058 25.4346L9.15433 27.2317C9.15433 27.4183 9.25641 27.6446 9.38245 27.7373L10.4231 28.4995L10.4293 26.6997C10.425 26.5989 10.4019 26.5009 10.3621 26.4135C10.3223 26.3261 10.2668 26.2519 10.2002 26.1969L10.2012 26.1982Z" fill="#E3E7F0"/>
<path d="M2.95745 22.6859L2.9637 20.8888C2.8387 20.7961 2.73454 20.8716 2.73454 21.0555L2.72724 22.903C2.72724 23.0896 2.82933 23.3159 2.95537 23.4085L3.99599 24.1721C4.12099 24.2647 4.22516 24.188 4.22516 24.0014V23.9551L3.18558 23.1915C3.11872 23.1361 3.06311 23.0615 3.02328 22.9736C2.98346 22.8858 2.96054 22.7872 2.95641 22.6859H2.95745Z" fill="#B0B8CF"/>
<path d="M4.00328 21.6524L2.9637 20.8888L2.95745 22.6859C2.95745 22.8725 3.05953 23.1002 3.18558 23.1915L4.22516 23.9551L4.23141 22.1553C4.22715 22.0546 4.20428 21.9566 4.16465 21.8692C4.12501 21.7818 4.06973 21.7075 4.00328 21.6524Z" fill="#E3E7F0"/>
<path d="M22.7147 33.3947C22.6873 33.3947 22.6604 33.3855 22.6366 33.3683L2.40224 18.5279C2.37844 18.5105 2.35868 18.4854 2.34493 18.4552C2.33118 18.425 2.32395 18.3907 2.32395 18.3558C2.32395 18.3209 2.33118 18.2867 2.34493 18.2565C2.35868 18.2263 2.37844 18.2012 2.40224 18.1838L3.25745 17.5512C3.29337 17.5249 3.33604 17.5178 3.37609 17.5314C3.41614 17.5451 3.45027 17.5784 3.47099 17.624C3.49171 17.6696 3.49732 17.7238 3.48658 17.7747C3.47583 17.8256 3.44962 17.869 3.4137 17.8953L2.79183 18.3545L22.7147 32.9686L23.4918 32.3943C23.5277 32.3679 23.5704 32.3608 23.6105 32.3745C23.6505 32.3881 23.6846 32.4214 23.7054 32.467C23.7261 32.5127 23.7317 32.5669 23.7209 32.6178C23.7102 32.6686 23.684 32.712 23.6481 32.7383L22.7939 33.3696C22.7698 33.3871 22.7425 33.3949 22.7147 33.3947Z" fill="#39332F"/>
<path d="M4.14391 19.7745C4.10948 19.7745 4.076 19.7601 4.04868 19.7335C4.02136 19.7069 4.00171 19.6696 3.99281 19.6273C3.9839 19.5851 3.98622 19.5403 3.99942 19.4999C4.01262 19.4595 4.03595 19.4258 4.06579 19.4039L4.91995 18.7714C4.95587 18.745 4.99854 18.7379 5.03859 18.7516C5.07863 18.7652 5.11277 18.7985 5.13349 18.8442C5.15421 18.8898 5.15982 18.944 5.14907 18.9949C5.13833 19.0458 5.11212 19.0891 5.0762 19.1154L4.22203 19.7467C4.19827 19.7641 4.17133 19.7745 4.14391 19.7745ZM5.80537 20.992C5.77094 20.9921 5.73746 20.9777 5.71014 20.951C5.68281 20.9244 5.66317 20.8871 5.65426 20.8449C5.64536 20.8026 5.64768 20.7578 5.66088 20.7174C5.67408 20.677 5.69741 20.6433 5.72724 20.6215L6.58349 19.9902C6.61941 19.9639 6.66208 19.9568 6.70213 19.9704C6.74218 19.9841 6.77631 20.0174 6.79703 20.063C6.81775 20.1086 6.82336 20.1628 6.81261 20.2137C6.80187 20.2646 6.77566 20.308 6.73974 20.3343L5.88453 20.9669C5.86047 20.9845 5.83314 20.9923 5.80537 20.992ZM7.46787 22.2122C7.43344 22.2122 7.39996 22.1978 7.37264 22.1712C7.34531 22.1446 7.32567 22.1073 7.31676 22.065C7.30786 22.0228 7.31018 21.978 7.32338 21.9376C7.33658 21.8972 7.35991 21.8634 7.38974 21.8416L8.24495 21.2104C8.28087 21.184 8.32354 21.1769 8.36359 21.1906C8.40363 21.2042 8.43777 21.2375 8.45849 21.2831C8.47921 21.3288 8.48482 21.383 8.47407 21.4339C8.46333 21.4847 8.43712 21.5281 8.4012 21.5544L7.54703 22.1857C7.52297 22.2033 7.49564 22.2124 7.46787 22.2122ZM9.13037 23.431C9.09594 23.431 9.06246 23.4166 9.03514 23.39C9.00781 23.3634 8.98817 23.3261 8.97926 23.2838C8.97036 23.2416 8.97268 23.1968 8.98588 23.1564C8.99908 23.116 9.02241 23.0823 9.05224 23.0604L9.90745 22.4292C9.92523 22.4162 9.94486 22.4077 9.96522 22.4043C9.98558 22.4009 10.0063 22.4026 10.0261 22.4094C10.0459 22.4162 10.0645 22.4278 10.0808 22.4437C10.0971 22.4596 10.1107 22.4794 10.121 22.502C10.1313 22.5246 10.1379 22.5495 10.1406 22.5754C10.1433 22.6012 10.1419 22.6275 10.1366 22.6527C10.1313 22.6779 10.1221 22.7015 10.1096 22.7222C10.0971 22.7429 10.0815 22.7602 10.0637 22.7733L9.20953 23.4045C9.18547 23.4221 9.15814 23.4313 9.13037 23.431ZM10.7929 24.6512C10.7654 24.6512 10.7385 24.642 10.7147 24.6246C10.6909 24.6072 10.6712 24.5821 10.6575 24.5519C10.6369 24.5064 10.6313 24.4524 10.6418 24.4016C10.6523 24.3508 10.6782 24.3074 10.7137 24.2806L11.571 23.648C11.5888 23.635 11.6084 23.6265 11.6288 23.6231C11.6491 23.6197 11.6698 23.6215 11.6896 23.6282C11.7095 23.635 11.728 23.6466 11.7443 23.6625C11.7606 23.6784 11.7743 23.6982 11.7845 23.7208C11.7948 23.7434 11.8015 23.7683 11.8041 23.7942C11.8068 23.8201 11.8054 23.8463 11.8001 23.8715C11.7948 23.8967 11.7856 23.9203 11.7731 23.941C11.7606 23.9617 11.745 23.9791 11.7272 23.9921L10.871 24.6247C10.8472 24.6421 10.8203 24.6512 10.7929 24.6512ZM12.4554 25.87C12.4209 25.87 12.3875 25.8556 12.3601 25.829C12.3328 25.8024 12.3132 25.7651 12.3043 25.7228C12.2954 25.6806 12.2977 25.6358 12.3109 25.5954C12.3241 25.555 12.3474 25.5213 12.3772 25.4994L13.2325 24.8682C13.2684 24.8419 13.311 24.8347 13.3511 24.8484C13.3911 24.862 13.4253 24.8953 13.446 24.941C13.4667 24.9866 13.4723 25.0408 13.4616 25.0917C13.4508 25.1426 13.4246 25.1859 13.3887 25.2123L12.5345 25.8435C12.5105 25.8611 12.4831 25.8703 12.4554 25.87ZM14.1179 27.0901C14.0834 27.0902 14.05 27.0758 14.0226 27.0492C13.9953 27.0226 13.9757 26.9852 13.9668 26.943C13.9579 26.9007 13.9602 26.8559 13.9734 26.8155C13.9866 26.7751 14.0099 26.7414 14.0397 26.7196L14.895 26.087C14.9309 26.0607 14.9735 26.0536 15.0136 26.0672C15.0536 26.0809 15.0878 26.1142 15.1085 26.1598C15.1292 26.2054 15.1348 26.2597 15.1241 26.3105C15.1133 26.3614 15.0871 26.4048 15.0512 26.4311L14.197 27.0624C14.173 27.08 14.1456 27.0904 14.1179 27.0901ZM15.7804 28.3077C15.7459 28.3077 15.7125 28.2933 15.6851 28.2667C15.6578 28.2401 15.6382 28.2028 15.6293 28.1605C15.6204 28.1183 15.6227 28.0735 15.6359 28.0331C15.6491 27.9927 15.6724 27.9589 15.7022 27.9371L16.5564 27.3072C16.5923 27.2807 16.6351 27.2734 16.6752 27.2869C16.7153 27.3004 16.7496 27.3337 16.7705 27.3793C16.7913 27.4249 16.7971 27.4792 16.7864 27.5302C16.7758 27.5812 16.7496 27.6248 16.7137 27.6513L15.8585 28.2825C15.8347 28.2999 15.8078 28.3077 15.7804 28.3077ZM17.4418 29.5278C17.4074 29.5279 17.3739 29.5135 17.3466 29.4869C17.3193 29.4602 17.2996 29.4229 17.2907 29.3807C17.2818 29.3384 17.2841 29.2936 17.2973 29.2532C17.3105 29.2128 17.3339 29.1791 17.3637 29.1573L18.2189 28.526C18.2367 28.513 18.2563 28.5045 18.2767 28.5011C18.297 28.4977 18.3177 28.4995 18.3375 28.5062C18.3574 28.513 18.376 28.5246 18.3922 28.5405C18.4085 28.5564 18.4222 28.5762 18.4325 28.5988C18.4427 28.6214 18.4494 28.6463 18.452 28.6722C18.4547 28.6981 18.4534 28.7243 18.448 28.7495C18.4427 28.7747 18.4335 28.7983 18.421 28.819C18.4085 28.8397 18.3929 28.8571 18.3752 28.8701L17.521 29.5013C17.4969 29.519 17.4696 29.5281 17.4418 29.5278ZM19.1043 30.7466C19.0699 30.7467 19.0364 30.7323 19.0091 30.7057C18.9818 30.6791 18.9621 30.6418 18.9532 30.5995C18.9443 30.5573 18.9466 30.5124 18.9598 30.472C18.973 30.4317 18.9964 30.3979 19.0262 30.3761L19.8814 29.7448C19.9173 29.7185 19.96 29.7114 20 29.7251C20.0401 29.7387 20.0742 29.772 20.095 29.8176C20.1157 29.8633 20.1213 29.9175 20.1105 29.9684C20.0998 30.0192 20.0736 30.0626 20.0377 30.0889L19.1835 30.7202C19.1594 30.7378 19.1321 30.7469 19.1043 30.7466ZM20.7668 31.9668C20.7394 31.9668 20.7124 31.9577 20.6886 31.9402C20.6649 31.9228 20.6451 31.8977 20.6314 31.8676C20.6211 31.845 20.6145 31.82 20.6118 31.7942C20.6091 31.7683 20.6105 31.742 20.6158 31.7168C20.6211 31.6916 20.6303 31.668 20.6428 31.6473C20.6553 31.6266 20.6709 31.6093 20.6887 31.5963L21.545 30.965C21.5807 30.9385 21.6233 30.9312 21.6634 30.9446C21.7034 30.958 21.7376 30.991 21.7585 31.0365C21.7688 31.0591 21.7754 31.084 21.7781 31.1099C21.7808 31.1357 21.7794 31.162 21.7741 31.1872C21.7688 31.2124 21.7596 31.236 21.7471 31.2567C21.7346 31.2774 21.719 31.2947 21.7012 31.3078L20.845 31.9403C20.8212 31.9577 20.7942 31.9668 20.7668 31.9668Z" fill="#39332F"/>
<path d="M44.9179 44.9399C44.8905 44.9398 44.8635 44.9307 44.8397 44.9134L44.1585 44.4106C44.1407 44.3975 44.1251 44.3802 44.1126 44.3595C44.1001 44.3388 44.0909 44.3152 44.0856 44.29C44.0803 44.2648 44.0789 44.2385 44.0816 44.2127C44.0843 44.1868 44.0909 44.1619 44.1012 44.1393C44.1115 44.1167 44.1251 44.0969 44.1414 44.081C44.1577 44.0651 44.1763 44.0534 44.1961 44.0467C44.2159 44.0399 44.2366 44.0382 44.257 44.0416C44.2773 44.045 44.297 44.0535 44.3147 44.0665L44.9189 44.5125L50.3647 40.5172C50.4007 40.4909 50.4433 40.4837 50.4834 40.4974C50.5234 40.511 50.5576 40.5443 50.5783 40.59C50.599 40.6356 50.6046 40.6898 50.5939 40.7407C50.5831 40.7916 50.5569 40.8349 50.521 40.8613L44.997 44.9134C44.9729 44.9309 44.9456 44.9401 44.9179 44.9399Z" fill="#39332F"/>
<path d="M50.4439 40.8877C50.4161 40.888 50.3888 40.8789 50.3647 40.8613L49.6835 40.3584C49.6657 40.3453 49.6501 40.328 49.6376 40.3073C49.6251 40.2866 49.6159 40.263 49.6106 40.2378C49.6053 40.2126 49.6039 40.1863 49.6066 40.1605C49.6093 40.1346 49.6159 40.1097 49.6262 40.0871C49.6475 40.0422 49.6816 40.0096 49.7214 39.996C49.7612 39.9824 49.8036 39.989 49.8397 40.0143L50.521 40.5172C50.5508 40.539 50.5742 40.5727 50.5874 40.6131C50.6006 40.6535 50.6029 40.6983 50.594 40.7406C50.5851 40.7828 50.5654 40.8202 50.5381 40.8468C50.5108 40.8734 50.4783 40.8878 50.4439 40.8877ZM49.1189 41.8591C49.0911 41.8594 49.0638 41.8502 49.0397 41.8326L48.3585 41.3297C48.3407 41.3167 48.3251 41.2994 48.3126 41.2787C48.3001 41.258 48.2909 41.2344 48.2856 41.2092C48.2803 41.184 48.2789 41.1577 48.2816 41.1318C48.2843 41.106 48.2909 41.081 48.3012 41.0584C48.3223 41.0133 48.3564 40.9804 48.3963 40.9668C48.4362 40.9533 48.4787 40.96 48.5147 40.9857L49.197 41.4885C49.2269 41.5104 49.2502 41.5441 49.2634 41.5845C49.2766 41.6249 49.2789 41.6697 49.27 41.7119C49.2611 41.7542 49.2415 41.7915 49.2141 41.8181C49.1868 41.8447 49.1533 41.8591 49.1189 41.8591ZM47.7939 42.8318C47.7665 42.8318 47.7395 42.8227 47.7158 42.8053L47.0345 42.3024C46.9986 42.2761 46.9724 42.2327 46.9617 42.1818C46.9509 42.131 46.9565 42.0768 46.9772 42.0311C46.998 41.9855 47.0321 41.9522 47.0721 41.9385C47.1122 41.9249 47.1549 41.932 47.1908 41.9583L47.872 42.4612C47.9019 42.483 47.9252 42.5168 47.9384 42.5572C47.9516 42.5976 47.9539 42.6424 47.945 42.6846C47.9361 42.7269 47.9165 42.7642 47.8891 42.7908C47.8618 42.8174 47.8283 42.8318 47.7939 42.8318ZM46.47 43.8018C46.4422 43.8021 46.4149 43.7929 46.3908 43.7753L45.7095 43.2725C45.6917 43.2594 45.6761 43.2421 45.6636 43.2214C45.6511 43.2007 45.642 43.1771 45.6366 43.1519C45.6313 43.1267 45.6299 43.1004 45.6326 43.0746C45.6353 43.0487 45.642 43.0238 45.6522 43.0012C45.6733 42.9557 45.7077 42.9226 45.7478 42.909C45.7879 42.8953 45.8307 42.9023 45.8668 42.9284L46.5481 43.4313C46.5779 43.4531 46.6012 43.4868 46.6144 43.5272C46.6276 43.5676 46.63 43.6124 46.6211 43.6547C46.6121 43.6969 46.5925 43.7342 46.5652 43.7609C46.5379 43.7875 46.5044 43.8019 46.47 43.8018Z" fill="#39332F"/>
</svg>
