<svg width="51" height="51" viewBox="0 0 51 51" fill="none" xmlns="http://www.w3.org/2000/svg">
<path d="M50.3008 42.7575C41.1982 43.7935 33.6065 42.3771 28.6536 39.252L1.23803 20.2812C0.924646 20.0577 0.937098 19.7196 1.26604 19.5065L13.7878 11.4707C14.1188 11.2599 14.6491 11.2507 14.9988 11.4513L44.7419 28.9242C49.647 32.0838 51.8801 36.9359 50.3008 42.7575Z" fill="#E3E7F0"/>
<path d="M14.4094 12.9571C14.5204 12.9571 14.6273 12.98 14.6968 13.0201L44.4233 30.4851C48.0303 32.8138 49.9801 35.9882 50.1296 39.6508C50.2935 35.5974 48.3313 32.0826 44.4223 29.5591L14.6968 12.0942C14.6063 12.0502 14.5081 12.029 14.4094 12.0323C14.3088 12.0285 14.2088 12.0513 14.1178 12.0988L1.93743 19.9156L2.6223 20.4003L14.1178 13.0236C14.2085 12.9763 14.3091 12.9535 14.4094 12.9571Z" fill="#C9CEE2"/>
<path d="M44.5634 42.3679C46.2507 42.3679 48.0075 42.2728 49.7892 42.0849C49.9864 41.2552 50.0974 40.4426 50.1296 39.6508C49.9801 35.9882 48.0303 32.8138 44.4223 30.484L14.6968 13.019C14.6063 12.975 14.5081 12.9539 14.4094 12.9571C14.3088 12.9533 14.2088 12.9761 14.1178 13.0236L2.6223 20.4003L28.993 38.6308C32.8749 41.0764 38.2595 42.3679 44.5634 42.3679Z" fill="white"/>
<path d="M50.3018 42.7541C48.5378 44.4616 47.4793 46.8453 46.9916 48.805C46.8775 49.2748 46.7841 49.7218 46.7322 50.1343C39.209 50.4781 32.931 49.0571 28.635 46.3525L1.21935 27.3749C1.08445 27.2832 1.02219 27.1686 1.01181 27.054V27.0425C1.00144 27.0311 0.991058 27.0196 0.991058 26.9967L1.01181 19.903C1.01181 20.0405 1.08445 20.1666 1.2401 20.2812L28.6557 39.2474C33.6055 42.3759 41.2013 43.797 50.3018 42.7541Z" fill="#C9CEE2"/>
<path d="M46.9916 48.805C46.8775 49.2748 46.7841 49.7218 46.7322 50.1343C39.209 50.4781 32.931 49.0571 28.635 46.3525L1.21935 27.3749C1.08445 27.2832 1.02219 27.1686 1.01181 27.054V25.6788C1.01181 25.8163 1.08445 25.9538 1.2401 26.0684L28.6557 45.0346C32.9932 47.7736 39.3646 49.1946 46.9916 48.805Z" fill="#F45170"/>
<path d="M44.5416 41.5944C38.1536 41.5944 32.6207 40.273 28.6028 37.7369L1.18095 18.7639C0.999358 18.6344 0.902853 18.4625 0.907004 18.278C0.911155 18.09 1.02011 17.9181 1.21312 17.7932L13.7338 9.75749C14.097 9.52371 14.6625 9.51454 15.0455 9.73457L44.7876 27.2075C49.949 30.5321 51.9403 35.4931 50.3983 41.1761C50.3923 41.1975 50.3808 41.2165 50.3651 41.2308C50.3494 41.2451 50.3303 41.2539 50.3101 41.2563C48.3934 41.4777 46.4688 41.5905 44.5416 41.5944ZM14.4083 9.80448C14.2018 9.80448 13.9953 9.8549 13.8397 9.95575L1.31896 17.9915C1.18925 18.074 1.11765 18.1783 1.11558 18.2837C1.11247 18.3845 1.1768 18.4865 1.29406 18.5702L28.7097 37.5398C33.839 40.7784 41.4773 42.0207 50.2209 41.0363C51.6954 35.4954 49.7332 30.657 44.6879 27.4081L14.95 9.93741C14.7813 9.84704 14.5958 9.80151 14.4083 9.80448Z" fill="#423B37"/>
<path d="M1.60121 20.28C1.58759 20.28 1.57409 20.277 1.5615 20.2713C1.54891 20.2655 1.53747 20.2571 1.52784 20.2464C1.5182 20.2358 1.51056 20.2232 1.50534 20.2093C1.50013 20.1954 1.49745 20.1805 1.49745 20.1654V18.9014C1.49745 18.871 1.50838 18.8418 1.52784 18.8203C1.5473 18.7989 1.57369 18.7868 1.60121 18.7868C1.62874 18.7868 1.65513 18.7989 1.67459 18.8203C1.69405 18.8418 1.70498 18.871 1.70498 18.9014V20.1666C1.70498 20.1816 1.7023 20.1965 1.69708 20.2104C1.69187 20.2243 1.68423 20.237 1.67459 20.2476C1.66495 20.2582 1.65351 20.2667 1.64092 20.2724C1.62834 20.2782 1.61484 20.2812 1.60121 20.2812V20.28ZM4.71427 22.266C4.68675 22.266 4.66035 22.2539 4.64089 22.2325C4.62143 22.211 4.6105 22.1818 4.6105 22.1514V21.0203C4.6105 20.9899 4.62143 20.9608 4.64089 20.9393C4.66035 20.9178 4.68675 20.9057 4.71427 20.9057C4.74179 20.9057 4.76818 20.9178 4.78764 20.9393C4.8071 20.9608 4.81804 20.9899 4.81804 21.0203V22.1514C4.81804 22.1818 4.8071 22.211 4.78764 22.2325C4.76818 22.2539 4.74179 22.266 4.71427 22.266ZM7.82732 24.448C7.7998 24.448 7.77341 24.4359 7.75394 24.4144C7.73448 24.3929 7.72355 24.3638 7.72355 24.3334V23.2355C7.72355 23.2051 7.73448 23.176 7.75394 23.1545C7.77341 23.133 7.7998 23.1209 7.82732 23.1209C7.85484 23.1209 7.88124 23.133 7.9007 23.1545C7.92016 23.176 7.93109 23.2051 7.93109 23.2355V24.3334C7.93109 24.3638 7.92016 24.3929 7.9007 24.4144C7.88124 24.4359 7.85484 24.448 7.82732 24.448ZM10.9404 26.63C10.9267 26.63 10.9133 26.627 10.9007 26.6212C10.8881 26.6155 10.8766 26.607 10.867 26.5964C10.8574 26.5858 10.8497 26.5731 10.8445 26.5592C10.8393 26.5453 10.8366 26.5304 10.8366 26.5154V25.3636C10.8366 25.3333 10.8475 25.3041 10.867 25.2826C10.8865 25.2611 10.9129 25.249 10.9404 25.249C10.9679 25.249 10.9943 25.2611 11.0137 25.2826C11.0332 25.3041 11.0441 25.3333 11.0441 25.3636V26.5154C11.0441 26.5304 11.0415 26.5453 11.0362 26.5592C11.031 26.5731 11.0234 26.5858 11.0137 26.5964C11.0041 26.607 10.9927 26.6155 10.9801 26.6212C10.9675 26.627 10.954 26.63 10.9404 26.63ZM14.0534 28.8131C14.0259 28.8131 13.9995 28.801 13.9801 28.7795C13.9606 28.758 13.9497 28.7289 13.9497 28.6985V27.5617C13.9497 27.5313 13.9606 27.5021 13.9801 27.4806C13.9995 27.4591 14.0259 27.4471 14.0534 27.4471C14.0809 27.4471 14.1073 27.4591 14.1268 27.4806C14.1463 27.5021 14.1572 27.5313 14.1572 27.5617V28.6985C14.1572 28.7289 14.1463 28.758 14.1268 28.7795C14.1073 28.801 14.0809 28.8131 14.0534 28.8131ZM17.1665 30.9951C17.139 30.9951 17.1126 30.983 17.0931 30.9615C17.0736 30.94 17.0627 30.9109 17.0627 30.8805V29.7436C17.0627 29.7132 17.0736 29.6841 17.0931 29.6626C17.1126 29.6411 17.139 29.629 17.1665 29.629C17.194 29.629 17.2204 29.6411 17.2399 29.6626C17.2593 29.6841 17.2702 29.7132 17.2702 29.7436V30.8805C17.2702 30.8955 17.2676 30.9104 17.2623 30.9243C17.2571 30.9382 17.2495 30.9509 17.2399 30.9615C17.2302 30.9721 17.2188 30.9806 17.2062 30.9863C17.1936 30.9921 17.1801 30.9951 17.1665 30.9951ZM20.2795 32.9799C20.252 32.9799 20.2256 32.9678 20.2062 32.9464C20.1867 32.9249 20.1758 32.8957 20.1758 32.8653V31.8511C20.1758 31.8207 20.1867 31.7916 20.2062 31.7701C20.2256 31.7486 20.252 31.7365 20.2795 31.7365C20.3071 31.7365 20.3334 31.7486 20.3529 31.7701C20.3724 31.7916 20.3833 31.8207 20.3833 31.8511V32.8653C20.3833 32.8804 20.3806 32.8953 20.3754 32.9092C20.3702 32.9231 20.3625 32.9357 20.3529 32.9464C20.3433 32.957 20.3318 32.9654 20.3192 32.9712C20.3067 32.977 20.2932 32.9799 20.2795 32.9799ZM23.3926 35.1619C23.379 35.1619 23.3655 35.1589 23.3529 35.1532C23.3403 35.1474 23.3288 35.139 23.3192 35.1283C23.3096 35.1177 23.3019 35.1051 23.2967 35.0912C23.2915 35.0773 23.2888 35.0623 23.2888 35.0473V34.0125C23.2888 33.9821 23.2997 33.9529 23.3192 33.9314C23.3387 33.9099 23.3651 33.8979 23.3926 33.8979C23.4201 33.8979 23.4465 33.9099 23.466 33.9314C23.4854 33.9529 23.4964 33.9821 23.4964 34.0125V35.0473C23.4964 35.0623 23.4937 35.0773 23.4885 35.0912C23.4832 35.1051 23.4756 35.1177 23.466 35.1283C23.4563 35.139 23.4449 35.1474 23.4323 35.1532C23.4197 35.1589 23.4062 35.1619 23.3926 35.1619ZM26.5056 37.345C26.4781 37.345 26.4517 37.3329 26.4323 37.3115C26.4128 37.29 26.4019 37.2608 26.4019 37.2304V36.1784C26.4019 36.148 26.4128 36.1189 26.4323 36.0974C26.4517 36.0759 26.4781 36.0638 26.5056 36.0638C26.5332 36.0638 26.5596 36.0759 26.579 36.0974C26.5985 36.1189 26.6094 36.148 26.6094 36.1784V37.2293C26.6094 37.2597 26.5985 37.2888 26.579 37.3103C26.5596 37.3318 26.5332 37.345 26.5056 37.345ZM29.6187 39.527C29.5912 39.527 29.5648 39.5149 29.5453 39.4934C29.5259 39.4719 29.5149 39.4428 29.5149 39.4124V38.2068C29.5149 38.1764 29.5259 38.1473 29.5453 38.1258C29.5648 38.1043 29.5912 38.0922 29.6187 38.0922C29.6462 38.0922 29.6726 38.1043 29.6921 38.1258C29.7115 38.1473 29.7225 38.1764 29.7225 38.2068V39.4124C29.7225 39.4428 29.7115 39.4719 29.6921 39.4934C29.6726 39.5149 29.6462 39.527 29.6187 39.527ZM32.7317 41.1176C32.7042 41.1176 32.6778 41.1056 32.6584 41.0841C32.6389 41.0626 32.628 41.0334 32.628 41.003V39.5889C32.628 39.5585 32.6389 39.5293 32.6584 39.5078C32.6778 39.4864 32.7042 39.4743 32.7317 39.4743C32.7593 39.4743 32.7857 39.4864 32.8051 39.5078C32.8246 39.5293 32.8355 39.5585 32.8355 39.5889V41.0019C32.8355 41.0323 32.8246 41.0614 32.8051 41.0829C32.7857 41.1044 32.7593 41.1176 32.7317 41.1176ZM35.8448 41.7961C35.8173 41.7961 35.7909 41.784 35.7714 41.7625C35.752 41.741 35.741 41.7119 35.741 41.6815V40.508C35.741 40.4776 35.752 40.4484 35.7714 40.4269C35.7909 40.4054 35.8173 40.3934 35.8448 40.3934C35.8723 40.3934 35.8987 40.4054 35.9182 40.4269C35.9376 40.4484 35.9486 40.4776 35.9486 40.508V41.6815C35.9486 41.7119 35.9376 41.741 35.9182 41.7625C35.8987 41.784 35.8723 41.7961 35.8448 41.7961ZM38.9578 42.3989C38.9442 42.3989 38.9307 42.3959 38.9181 42.3901C38.9055 42.3844 38.8941 42.3759 38.8845 42.3653C38.8748 42.3546 38.8672 42.342 38.862 42.3281C38.8568 42.3142 38.8541 42.2993 38.8541 42.2843V41.1153C38.8541 41.0849 38.865 41.0558 38.8845 41.0343C38.9039 41.0128 38.9303 41.0007 38.9578 41.0007C38.9854 41.0007 39.0118 41.0128 39.0312 41.0343C39.0507 41.0558 39.0616 41.0849 39.0616 41.1153V42.2843C39.0616 42.2993 39.0589 42.3142 39.0537 42.3281C39.0485 42.342 39.0409 42.3546 39.0312 42.3653C39.0216 42.3759 39.0101 42.3844 38.9976 42.3901C38.985 42.3959 38.9715 42.3989 38.9578 42.3989ZM42.0709 42.6831C42.0434 42.6831 42.017 42.671 41.9975 42.6495C41.9781 42.628 41.9671 42.5989 41.9671 42.5685V41.4087C41.9671 41.3783 41.9781 41.3492 41.9975 41.3277C42.017 41.3062 42.0434 41.2941 42.0709 41.2941C42.0984 41.2941 42.1248 41.3062 42.1443 41.3277C42.1637 41.3492 42.1747 41.3783 42.1747 41.4087V42.5685C42.1747 42.5989 42.1637 42.628 42.1443 42.6495C42.1248 42.671 42.0984 42.6831 42.0709 42.6831ZM45.185 42.7541C45.1575 42.7541 45.1311 42.742 45.1116 42.7205C45.0922 42.6991 45.0812 42.6699 45.0812 42.6395V41.4786C45.0812 41.4482 45.0922 41.4191 45.1116 41.3976C45.1311 41.3761 45.1575 41.364 45.185 41.364C45.2125 41.364 45.2389 41.3761 45.2584 41.3976C45.2778 41.4191 45.2888 41.4482 45.2888 41.4786V42.6395C45.2888 42.6699 45.2778 42.6991 45.2584 42.7205C45.2389 42.742 45.2125 42.7541 45.185 42.7541ZM48.298 42.6315C48.2705 42.6315 48.2441 42.6194 48.2247 42.5979C48.2052 42.5764 48.1943 42.5473 48.1943 42.5169V41.348C48.1943 41.3176 48.2052 41.2884 48.2247 41.2669C48.2441 41.2455 48.2705 41.2334 48.298 41.2334C48.3256 41.2334 48.352 41.2455 48.3714 41.2669C48.3909 41.2884 48.4018 41.3176 48.4018 41.348V42.5169C48.4018 42.5473 48.3909 42.5764 48.3714 42.5979C48.352 42.6194 48.3256 42.6315 48.298 42.6315Z" fill="#423B37"/>
<path d="M14.6677 11.6564C14.6402 11.6564 14.6138 11.6443 14.5944 11.6228C14.5749 11.6013 14.564 11.5722 14.564 11.5418V9.75749C14.564 9.7271 14.5749 9.69795 14.5944 9.67646C14.6138 9.65496 14.6402 9.64289 14.6677 9.64289C14.6953 9.64289 14.7217 9.65496 14.7411 9.67646C14.7606 9.69795 14.7715 9.7271 14.7715 9.75749V11.5418C14.7715 11.5722 14.7606 11.6013 14.7411 11.6228C14.7217 11.6443 14.6953 11.6564 14.6677 11.6564ZM11.8857 13.0385C11.8582 13.0385 11.8318 13.0264 11.8123 13.0049C11.7929 12.9834 11.7819 12.9543 11.7819 12.9239V11.1396C11.7819 11.1092 11.7929 11.08 11.8123 11.0585C11.8318 11.037 11.8582 11.025 11.8857 11.025C11.9132 11.025 11.9396 11.037 11.9591 11.0585C11.9785 11.08 11.9895 11.1092 11.9895 11.1396V12.9239C11.9895 12.9543 11.9785 12.9834 11.9591 13.0049C11.9396 13.0264 11.9132 13.0385 11.8857 13.0385Z" fill="#423B37"/>
<path d="M11.8857 13.0385C11.8582 13.0385 11.8318 13.0264 11.8123 13.0049C11.7929 12.9834 11.7819 12.9543 11.7819 12.9239V11.1396C11.7819 11.1092 11.7929 11.08 11.8123 11.0585C11.8318 11.037 11.8582 11.025 11.8857 11.025C11.9132 11.025 11.9396 11.037 11.9591 11.0585C11.9785 11.08 11.9895 11.1092 11.9895 11.1396V12.9239C11.9895 12.9543 11.9785 12.9834 11.9591 13.0049C11.9396 13.0264 11.9132 13.0385 11.8857 13.0385ZM9.10263 14.9454C9.07511 14.9454 9.04872 14.9333 9.02926 14.9118C9.0098 14.8904 8.99887 14.8612 8.99887 14.8308V13.0465C8.99887 13.0161 9.0098 12.987 9.02926 12.9655C9.04872 12.944 9.07511 12.9319 9.10263 12.9319C9.13016 12.9319 9.15655 12.944 9.17601 12.9655C9.19547 12.987 9.2064 13.0161 9.2064 13.0465V14.8308C9.2064 14.8612 9.19547 14.8904 9.17601 14.9118C9.15655 14.9333 9.13016 14.9454 9.10263 14.9454Z" fill="#423B37"/>
<path d="M9.10263 14.9454C9.07511 14.9454 9.04872 14.9333 9.02926 14.9118C9.0098 14.8904 8.99887 14.8612 8.99887 14.8308V13.0465C8.99887 13.0161 9.0098 12.987 9.02926 12.9655C9.04872 12.944 9.07511 12.9319 9.10263 12.9319C9.13015 12.9319 9.15655 12.944 9.17601 12.9655C9.19547 12.987 9.2064 13.0161 9.2064 13.0465V14.8308C9.2064 14.8612 9.19547 14.8904 9.17601 14.9118C9.15655 14.9333 9.13015 14.9454 9.10263 14.9454ZM6.31956 16.8512C6.30594 16.8512 6.29244 16.8482 6.27985 16.8425C6.26726 16.8367 6.25582 16.8283 6.24619 16.8176C6.23655 16.807 6.22891 16.7944 6.22369 16.7805C6.21848 16.7665 6.2158 16.7516 6.2158 16.7366V14.7151C6.2158 14.6847 6.22673 14.6555 6.24619 14.634C6.26565 14.6125 6.29204 14.6005 6.31956 14.6005C6.34709 14.6005 6.37348 14.6125 6.39294 14.634C6.4124 14.6555 6.42333 14.6847 6.42333 14.7151V16.7366C6.42333 16.7516 6.42065 16.7665 6.41543 16.7805C6.41022 16.7944 6.40258 16.807 6.39294 16.8176C6.3833 16.8283 6.37186 16.8367 6.35927 16.8425C6.34668 16.8482 6.33319 16.8512 6.31956 16.8512Z" fill="#423B37"/>
<path d="M6.31957 16.8512C6.30594 16.8512 6.29244 16.8482 6.27985 16.8425C6.26727 16.8367 6.25583 16.8283 6.24619 16.8176C6.23655 16.807 6.22891 16.7944 6.2237 16.7805C6.21848 16.7666 6.2158 16.7516 6.2158 16.7366V14.7151C6.2158 14.6847 6.22673 14.6555 6.24619 14.634C6.26565 14.6125 6.29204 14.6005 6.31957 14.6005C6.34709 14.6005 6.37348 14.6125 6.39294 14.634C6.4124 14.6555 6.42333 14.6847 6.42333 14.7151V16.7366C6.42333 16.7516 6.42065 16.7666 6.41543 16.7805C6.41022 16.7944 6.40258 16.807 6.39294 16.8176C6.38331 16.8283 6.37187 16.8367 6.35928 16.8425C6.34669 16.8482 6.33319 16.8512 6.31957 16.8512ZM3.53753 18.7054C3.51001 18.7054 3.48362 18.6933 3.46416 18.6719C3.4447 18.6504 3.43377 18.6212 3.43377 18.5908V16.52C3.43377 16.4896 3.4447 16.4605 3.46416 16.439C3.48362 16.4175 3.51001 16.4054 3.53753 16.4054C3.56505 16.4054 3.59145 16.4175 3.61091 16.439C3.63037 16.4605 3.6413 16.4896 3.6413 16.52V18.5908C3.6413 18.6212 3.63037 18.6504 3.61091 18.6719C3.59145 18.6933 3.56505 18.7054 3.53753 18.7054ZM17.7808 13.6413C17.7533 13.6413 17.7269 13.6292 17.7074 13.6077C17.688 13.5862 17.677 13.5571 17.677 13.5267V11.4902C17.677 11.4598 17.688 11.4307 17.7074 11.4092C17.7269 11.3877 17.7533 11.3756 17.7808 11.3756C17.8083 11.3756 17.8347 11.3877 17.8542 11.4092C17.8736 11.4307 17.8846 11.4598 17.8846 11.4902V13.5267C17.8846 13.5571 17.8736 13.5862 17.8542 13.6077C17.8347 13.6292 17.8083 13.6413 17.7808 13.6413ZM20.8938 15.4772C20.8663 15.4772 20.8399 15.4651 20.8205 15.4436C20.801 15.4221 20.7901 15.3929 20.7901 15.3626V13.3227C20.7901 13.2923 20.801 13.2631 20.8205 13.2416C20.8399 13.2202 20.8663 13.2081 20.8938 13.2081C20.9214 13.2081 20.9478 13.2202 20.9672 13.2416C20.9867 13.2631 20.9976 13.2923 20.9976 13.3227V15.3626C20.9976 15.3929 20.9867 15.4221 20.9672 15.4436C20.9478 15.4651 20.9214 15.4772 20.8938 15.4772ZM24.0069 17.4334C23.9933 17.4334 23.9798 17.4304 23.9672 17.4246C23.9546 17.4189 23.9432 17.4104 23.9335 17.3998C23.9239 17.3892 23.9162 17.3765 23.911 17.3626C23.9058 17.3487 23.9031 17.3338 23.9031 17.3188V15.1803C23.9031 15.1499 23.9141 15.1208 23.9335 15.0993C23.953 15.0778 23.9794 15.0657 24.0069 15.0657C24.0344 15.0657 24.0608 15.0778 24.0803 15.0993C24.0997 15.1208 24.1107 15.1499 24.1107 15.1803V17.3176C24.1107 17.348 24.0997 17.3772 24.0803 17.3987C24.0608 17.4201 24.0344 17.4334 24.0069 17.4334ZM27.1199 19.0423C27.1063 19.0423 27.0928 19.0394 27.0802 19.0336C27.0676 19.0279 27.0562 19.0194 27.0466 19.0088C27.0369 18.9981 27.0293 18.9855 27.0241 18.9716C27.0189 18.9577 27.0162 18.9428 27.0162 18.9277V17.0071C27.0162 16.9765 27.0272 16.9472 27.0467 16.9256C27.0663 16.904 27.0928 16.8919 27.1205 16.8919C27.1481 16.8919 27.1747 16.904 27.1942 16.9256C27.2138 16.9472 27.2248 16.9765 27.2248 17.0071V18.9277C27.2248 18.9581 27.2138 18.9873 27.1944 19.0088C27.1749 19.0303 27.1475 19.0423 27.1199 19.0423ZM30.233 20.9837C30.2194 20.9837 30.2059 20.9807 30.1933 20.9749C30.1807 20.9692 30.1693 20.9607 30.1596 20.9501C30.15 20.9394 30.1423 20.9268 30.1371 20.9129C30.1319 20.899 30.1292 20.8841 30.1292 20.8691V18.7868C30.1292 18.7562 30.1402 18.7269 30.1598 18.7053C30.1793 18.6837 30.2059 18.6716 30.2335 18.6716C30.2612 18.6716 30.2877 18.6837 30.3073 18.7053C30.3268 18.7269 30.3378 18.7562 30.3378 18.7868V20.8691C30.3378 20.8994 30.3269 20.9286 30.3074 20.9501C30.288 20.9716 30.2605 20.9837 30.233 20.9837ZM33.3461 22.6373C33.3324 22.6373 33.3189 22.6344 33.3063 22.6286C33.2938 22.6228 33.2823 22.6144 33.2727 22.6038C33.263 22.5931 33.2554 22.5805 33.2502 22.5666C33.245 22.5527 33.2423 22.5378 33.2423 22.5227V20.6146C33.2423 20.5841 33.2533 20.5548 33.2728 20.5332C33.2924 20.5116 33.3189 20.4995 33.3466 20.4995C33.3742 20.4995 33.4008 20.5116 33.4203 20.5332C33.4399 20.5548 33.4509 20.5841 33.4509 20.6146V22.5216C33.4509 22.5366 33.4482 22.5515 33.443 22.5654C33.4377 22.5793 33.4301 22.592 33.4205 22.6026C33.4108 22.6133 33.3994 22.6217 33.3868 22.6275C33.3742 22.6332 33.3607 22.6362 33.3471 22.6362L33.3461 22.6373ZM36.4591 24.6921C36.4455 24.6921 36.432 24.6891 36.4194 24.6834C36.4068 24.6776 36.3954 24.6692 36.3857 24.6585C36.3761 24.6479 36.3685 24.6353 36.3632 24.6213C36.358 24.6074 36.3553 24.5925 36.3553 24.5775V22.4379C36.3553 22.4074 36.3663 22.3781 36.3859 22.3565C36.4054 22.3349 36.432 22.3228 36.4596 22.3228C36.4873 22.3228 36.5138 22.3349 36.5334 22.3565C36.5529 22.3781 36.5639 22.4074 36.5639 22.4379V24.5775C36.5639 24.6079 36.553 24.637 36.5335 24.6585C36.5141 24.68 36.4866 24.6921 36.4591 24.6921ZM39.5722 26.4283C39.5585 26.4283 39.545 26.4253 39.5324 26.4196C39.5199 26.4138 39.5084 26.4054 39.4988 26.3947C39.4892 26.3841 39.4815 26.3714 39.4763 26.3575C39.4711 26.3436 39.4684 26.3287 39.4684 26.3137V24.2738C39.4684 24.2433 39.4794 24.214 39.4989 24.1924C39.5185 24.1708 39.545 24.1586 39.5727 24.1586C39.6003 24.1586 39.6269 24.1708 39.6464 24.1924C39.666 24.214 39.677 24.2433 39.677 24.2738V26.3137C39.677 26.3441 39.666 26.3732 39.6466 26.3947C39.6271 26.4162 39.5997 26.4283 39.5722 26.4283ZM42.6852 28.161C42.6716 28.161 42.6581 28.1581 42.6455 28.1523C42.6329 28.1465 42.6215 28.1381 42.6118 28.1275C42.6022 28.1168 42.5946 28.1042 42.5893 28.0903C42.5841 28.0764 42.5814 28.0615 42.5814 28.0464V26.1017C42.5814 26.0711 42.5924 26.0418 42.612 26.0202C42.6315 25.9986 42.6581 25.9865 42.6857 25.9865C42.7134 25.9865 42.7399 25.9986 42.7595 26.0202C42.779 26.0418 42.79 26.0711 42.79 26.1017V28.0464C42.79 28.0768 42.7791 28.106 42.7596 28.1275C42.7402 28.1489 42.7127 28.161 42.6852 28.161ZM45.7983 30.0496C45.7846 30.0496 45.7711 30.0467 45.7586 30.0409C45.746 30.0351 45.7345 30.0267 45.7249 30.0161C45.7153 30.0054 45.7076 29.9928 45.7024 29.9789C45.6972 29.965 45.6945 29.9501 45.6945 29.935V28.0464C45.6945 28.0159 45.7055 27.9866 45.725 27.965C45.7446 27.9434 45.7711 27.9312 45.7988 27.9312C45.8264 27.9312 45.853 27.9434 45.8725 27.965C45.8921 27.9866 45.9031 28.0159 45.9031 28.0464V29.935C45.9031 29.9654 45.8921 29.9946 45.8727 30.0161C45.8532 30.0375 45.8258 30.0496 45.7983 30.0496ZM48.9124 33.459C48.8848 33.459 48.8584 33.4469 48.839 33.4254C48.8195 33.4039 48.8086 33.3747 48.8086 33.3444V31.2953C48.8086 31.2649 48.8195 31.2358 48.839 31.2143C48.8584 31.1928 48.8848 31.1807 48.9124 31.1807C48.9399 31.1807 48.9663 31.1928 48.9857 31.2143C49.0052 31.2358 49.0161 31.2649 49.0161 31.2953V33.3444C49.0161 33.3747 49.0052 33.4039 48.9857 33.4254C48.9663 33.4469 48.9399 33.459 48.9124 33.459Z" fill="#423B37"/>
<path d="M38.2823 19.4538L38.2512 31.3492L29.7318 36.827V36.8156L11.7902 24.5534L11.8214 13.5748L29.7629 24.9316L38.2823 19.4538Z" fill="#9EA9C9"/>
<path d="M38.2854 19.4583L38.2553 31.3515L29.7339 36.8213L29.7629 24.9282L38.2854 19.4583Z" fill="#C9CEE2"/>
<path d="M29.764 24.9328L29.7328 36.8167L11.7913 24.5546L11.8224 13.5759L29.764 24.9328Z" fill="#9EA9C9"/>
<path d="M38.2854 19.4583L29.7629 24.9282L11.8172 13.5805L20.3397 8.11069L38.2854 19.4583Z" fill="#E3E7F0"/>
<path d="M36.7538 19.7792L37.2467 19.4629L20.3418 8.77194L12.8559 13.5771L13.3488 13.8888L20.3418 9.40109L36.7538 19.7792Z" fill="#C9CEE2"/>
<path d="M36.7538 19.7792L20.3418 9.40109L13.3488 13.8888L29.7619 24.2669L36.7538 19.7792Z" fill="#423B37"/>
<path d="M42.4538 30.3865L42.4331 34.0308L33.9137 39.4972L29.7318 36.827L29.7422 31.269L38.2719 25.8026L42.4538 30.3865Z" fill="#9EA9C9"/>
<path d="M42.4528 30.39L42.4362 34.0251L33.9178 39.4926L33.9344 35.8575L42.4528 30.39Z" fill="#C9CEE2"/>
<path d="M33.9344 35.8575L33.9178 39.4926L29.7328 36.8247L29.7463 31.2678L33.9344 35.8575Z" fill="#9EA9C9"/>
<path d="M42.4528 30.39L33.9344 35.8575L29.7463 31.2678L38.2688 25.8003L42.4528 30.39Z" fill="#E3E7F0"/>
<path d="M28.306 28.4177L13.298 18.9495L13.3032 16.2507L13.0386 16.0834L13.0334 19.134L28.306 28.7695V28.4177Z" fill="#211A67"/>
<path d="M28.306 25.7739L26.7028 24.7631L24.4998 23.3559L23.7205 22.8596L18.1616 19.3346L13.3063 16.2564L13.2907 18.9541L16.6175 21.0387L22.192 24.5637L22.9713 25.0439L25.1743 26.4512L28.306 28.4177V25.7739Z" fill="#423D9B"/>
<g opacity="0.25">
<path d="M23.7205 22.8596L22.192 24.5637L16.6175 21.0387L18.1616 19.3346L23.7205 22.8596ZM26.7028 24.7631L25.1743 26.4512L22.9713 25.0439L24.4998 23.3559L26.7028 24.7631Z" fill="white"/>
</g>
<path d="M28.306 33.2951L13.298 23.8257L13.3032 21.128L13.0386 20.9607L13.0334 24.0102L28.306 33.6469V33.2951Z" fill="#211A67"/>
<path d="M28.306 30.6513L26.7028 29.6394L24.4998 28.2332L23.7205 27.737L18.1616 24.2119L13.3063 21.1326L13.2907 23.8303L16.6175 25.916L22.192 29.4411L22.9713 29.9213L25.1743 31.3274L28.306 33.2939V30.6513Z" fill="#423D9B"/>
<g opacity="0.25">
<path d="M23.7205 27.737L22.192 29.4411L16.6175 25.916L18.1616 24.2119L23.7205 27.737ZM26.7028 29.6394L25.1743 31.3274L22.9713 29.9213L24.4998 28.2332L26.7028 29.6394Z" fill="white"/>
</g>
<path d="M30.647 28.1255L32.2907 27.0781L32.2845 25.7579L32.4495 25.6536L32.4568 27.2075L30.647 28.3616V28.1255Z" fill="#211A67"/>
<path d="M30.647 26.8007L30.7031 26.7652L30.9199 26.6277L31.418 26.3068L32.2824 25.7556L32.2907 27.0849L31.418 27.6339L30.9199 27.9559L30.7031 28.0934L30.647 28.1289V26.8007Z" fill="#423D9B"/>
<path opacity="0.24" d="M31.418 26.3068V27.6339L30.9199 27.9559V26.6277L31.418 26.3068Z" fill="white"/>
<path d="M33.1053 26.5601L34.748 25.5126L34.7417 24.1924L34.9067 24.0882L34.914 25.6421L33.1053 26.7961V26.5601Z" fill="#211A67"/>
<path d="M33.1053 25.2353L33.1613 25.1998L33.3772 25.0622L33.8753 24.7414L34.7397 24.1901L34.748 25.5195L33.8753 26.0684L33.3772 26.3893L33.1613 26.5268L33.1053 26.5635V25.2353Z" fill="#423D9B"/>
<path opacity="0.24" d="M33.8753 24.7414V26.0684L33.3772 26.3893V25.0622L33.8753 24.7414Z" fill="white"/>
<path d="M35.5625 24.9946L37.2052 23.9472L37.2 22.627L37.364 22.5216L37.3712 24.0767L35.5625 25.2307V24.9946Z" fill="#211A67"/>
<path d="M35.5625 23.6699L35.6186 23.6343L35.8344 23.4968L36.3325 23.1748L37.1969 22.6247L37.2052 23.9529L36.3325 24.503L35.8344 24.8239L35.6186 24.9614L35.5625 24.9969V23.6699Z" fill="#423D9B"/>
<path opacity="0.24" d="M36.3325 23.1748V24.503L35.8344 24.8239V23.4968L36.3325 23.1748Z" fill="white"/>
<path d="M24.8059 5.51502C24.8059 5.6597 24.7539 5.79844 24.6612 5.90074C24.5686 6.00304 24.443 6.06052 24.312 6.06052C24.181 6.06052 24.0553 6.00304 23.9627 5.90074C23.8701 5.79844 23.818 5.6597 23.818 5.51502C23.818 5.37035 23.8701 5.2316 23.9627 5.1293C24.0553 5.027 24.181 4.96953 24.312 4.96953C24.443 4.96953 24.5686 5.027 24.6612 5.1293C24.7539 5.2316 24.8059 5.37035 24.8059 5.51502ZM32.5055 0.730495C32.5055 0.87532 32.4534 1.01421 32.3607 1.11662C32.268 1.21903 32.1422 1.27656 32.0111 1.27656C31.8799 1.27656 31.7542 1.21903 31.6614 1.11662C31.5687 1.01421 31.5166 0.87532 31.5166 0.730495C31.5166 0.585821 31.5687 0.447073 31.6613 0.344773C31.7539 0.242473 31.8796 0.185001 32.0106 0.185001C32.1416 0.185001 32.2672 0.242473 32.3598 0.344773C32.4525 0.447073 32.5045 0.585821 32.5045 0.730495H32.5055ZM35.8884 6.87303C35.8884 6.94466 35.8756 7.01559 35.8508 7.08178C35.826 7.14796 35.7896 7.20809 35.7437 7.25875C35.6978 7.3094 35.6434 7.34958 35.5835 7.377C35.5235 7.40441 35.4593 7.41852 35.3944 7.41852C35.3296 7.41852 35.2653 7.40441 35.2054 7.377C35.1455 7.34958 35.091 7.3094 35.0452 7.25875C34.9993 7.20809 34.9629 7.14796 34.9381 7.08178C34.9133 7.01559 34.9005 6.94466 34.9005 6.87303C34.9005 6.72835 34.9525 6.5896 35.0452 6.4873C35.1378 6.385 35.2634 6.32753 35.3944 6.32753C35.5254 6.32753 35.6511 6.385 35.7437 6.4873C35.8363 6.5896 35.8884 6.72835 35.8884 6.87303Z" fill="#F45170"/>
<path d="M33.675 19.0297V19.7746L29.3997 22.525L25.0934 19.7746V19.0297L29.3686 16.2793L33.675 19.0297Z" fill="#CC104A"/>
<path d="M33.674 19.0263L33.6729 19.7769L29.3956 22.5227L29.3966 21.771L33.674 19.0263Z" fill="#DF3260"/>
<path d="M29.3966 21.771L29.3956 22.5227L25.0944 19.7792L25.0954 19.0286L29.3966 21.771Z" fill="#CC104A"/>
<path d="M33.674 19.0263L29.3966 21.771L25.0954 19.0286L29.3728 16.2828L33.674 19.0263Z" fill="#F45170"/>
<path d="M30.8639 6.15334L29.7225 5.42105L29.7193 4.26818L30.8608 5.00162L30.8639 6.15334Z" fill="#797B80"/>
<path d="M30.8608 5.00162L29.7193 4.26818L33.8151 1.6576L34.9555 2.3899L30.8608 5.00162Z" fill="#C9CEE2"/>
<path d="M34.9555 2.38989L32.5968 5.0486L30.8639 6.15334L30.8608 5.00161L34.9555 2.38989Z" fill="#9EA9C9"/>
<path d="M29.4101 4.37247L29.3997 21.2873L26.0273 19.1443L27.2621 3.00873L29.4101 4.37247ZM32.7411 19.1443L29.3997 21.2873L29.4205 4.37247L31.5374 3.00873L32.7411 19.1443Z" fill="#B0B8CF"/>
<path d="M32.739 19.1443L29.3987 21.2885L29.4153 4.36788L31.5415 3.00529L32.739 19.1443Z" fill="#9EA9C9"/>
<path d="M29.4143 4.37017L29.3977 21.2885L26.0262 19.1386L27.2663 3.003L29.4143 4.37017Z" fill="#B0B8CF"/>
<path d="M31.5374 3.00529L29.4091 4.37017L27.2663 3.003L29.3935 1.63812L31.5374 3.00529Z" fill="#E3E7F0"/>
<path d="M24.7187 8.85903L23.5773 8.12559L27.673 5.51502L28.8145 6.24731L24.7187 8.85903Z" fill="#C9CEE2"/>
<path d="M28.8145 6.24731L28.8176 7.39674L27.0847 8.50148L24.7187 8.85903L28.8145 6.24731Z" fill="#9EA9C9"/>
<path d="M34.3972 10.0165L35.6009 9.24409L31.5052 6.63237L30.3015 7.40477L34.3972 10.0165Z" fill="#C9CEE2"/>
<path d="M30.3015 7.40477L30.2984 8.5542L32.0313 9.66008L34.3972 10.0165L30.3015 7.40477Z" fill="#B0B8CF"/>
<path d="M30.7197 2.51137V3.04426C30.7186 3.22762 30.6097 3.40983 30.3928 3.54849C29.9549 3.82926 29.2441 3.82926 28.8041 3.54849C28.582 3.40754 28.4721 3.22189 28.4721 3.03738L28.4731 2.50449C28.4731 2.689 28.5841 2.87465 28.8051 3.01561C29.2451 3.29638 29.957 3.29638 30.3938 3.01561C30.6118 2.87694 30.7197 2.69473 30.7197 2.51137Z" fill="#7B7A4E"/>
<path d="M30.7207 2.51146C30.7217 2.11463 30.2194 1.79135 29.5988 1.7894C28.9781 1.78745 28.4741 2.10757 28.4731 2.5044C28.4721 2.90124 28.9744 3.22452 29.595 3.22647C30.2157 3.22842 30.7197 2.9083 30.7207 2.51146Z" fill="#E3E7F0"/>
<path d="M30.7207 2.49418V2.63743C30.7207 2.63743 30.7155 2.63743 30.7155 2.64316C30.6917 2.80131 30.5869 2.95372 30.3959 3.0752C30.3124 3.12958 30.2222 3.17049 30.1282 3.19667C29.7027 3.34336 29.159 3.30211 28.801 3.0752C28.6059 2.95372 28.5001 2.79558 28.4721 2.6317V2.49418C28.4721 2.4896 28.4762 2.4896 28.4762 2.4896C28.5104 1.87764 28.9442 1.38257 29.5035 1.32985C29.5315 1.32412 29.5658 1.32412 29.599 1.32412C30.1956 1.32412 30.6875 1.84096 30.7197 2.49533L30.7207 2.49418Z" fill="#989761"/>
<path d="M30.7207 2.49418V2.63743C30.7207 2.63743 30.7155 2.63743 30.7155 2.64316C30.6917 2.80131 30.5869 2.95372 30.3959 3.0752C30.3124 3.12958 30.2222 3.17049 30.1282 3.19667C29.7754 3.23793 29.3935 3.17032 29.1165 2.99613C28.9255 2.87007 28.8155 2.7165 28.7917 2.55263V2.54804C28.7865 2.52627 28.7865 2.50564 28.7865 2.48387C28.7865 2.45751 28.7865 2.43803 28.7917 2.41511V2.41052C28.8155 1.91545 29.1071 1.49831 29.5035 1.32985C29.5315 1.32412 29.5658 1.32412 29.599 1.32412C30.1956 1.32412 30.6875 1.84096 30.7197 2.49533L30.7207 2.49418Z" fill="#B0AF6F"/>
<path d="M30.8722 3.2448C30.8442 3.22647 30.8058 3.22876 30.7633 3.25626C30.7188 3.28828 30.6818 3.33144 30.6553 3.38221C30.6288 3.43299 30.6135 3.48996 30.6107 3.54849C30.6107 3.60121 30.6284 3.63903 30.6553 3.65622L30.3554 3.46369C30.3274 3.4465 30.3108 3.40868 30.3108 3.35597C30.3108 3.24824 30.3793 3.1176 30.4634 3.06374C30.5059 3.03623 30.5443 3.03394 30.5723 3.05228L30.8722 3.2448Z" fill="#E3E7F0"/>
<path d="M30.8729 3.51961C30.9327 3.40579 30.9327 3.28232 30.8727 3.24384C30.8128 3.20537 30.7156 3.26644 30.6557 3.38027C30.5958 3.49409 30.5959 3.61755 30.6558 3.65603C30.7158 3.69451 30.813 3.63343 30.8729 3.51961Z" fill="#C9CEE2"/>
<path d="M33.3398 4.88931C33.316 4.87441 33.2838 4.8767 33.2464 4.90077C33.2088 4.92794 33.1774 4.9645 33.1549 5.00749C33.1324 5.05048 33.1193 5.09871 33.1167 5.1483C33.1167 5.19414 33.1313 5.22623 33.1551 5.24113L30.6834 3.6482C30.6605 3.63444 30.646 3.60236 30.646 3.55652C30.646 3.46484 30.7041 3.35368 30.7757 3.30784C30.812 3.28492 30.8452 3.28262 30.8691 3.29752L33.3398 4.89045V4.88931Z" fill="#423B37"/>
<path d="M33.3399 5.1251C33.3909 5.02824 33.3908 4.92317 33.3398 4.89041C33.2887 4.85766 33.206 4.90962 33.1551 5.00648C33.1041 5.10334 33.1042 5.20842 33.1552 5.24117C33.2062 5.27392 33.2889 5.22196 33.3399 5.1251Z" fill="#C9CEE2"/>
<path d="M33.8524 5.10246C33.8172 5.08069 33.7694 5.08413 33.7175 5.11736C33.6623 5.15695 33.6163 5.21038 33.5833 5.27331C33.5503 5.33624 33.5312 5.40689 33.5276 5.4795C33.5276 5.54596 33.5484 5.59295 33.5826 5.61472L32.9465 5.20789C32.9123 5.18498 32.8905 5.13914 32.8905 5.07267C32.8905 4.93973 32.9756 4.77815 33.0804 4.71053C33.1323 4.67615 33.1811 4.67386 33.2153 4.69564L33.8524 5.10246Z" fill="#F5C403"/>
<path d="M33.8521 5.44554C33.9264 5.30435 33.9264 5.15123 33.8521 5.10353C33.7777 5.05583 33.6573 5.13161 33.583 5.2728C33.5087 5.41398 33.5087 5.5671 33.583 5.6148C33.6574 5.6625 33.7778 5.58672 33.8521 5.44554Z" fill="#E5AF05"/>
<path d="M33.8556 5.27092C33.8541 5.32312 33.8405 5.37402 33.8161 5.41876C33.7932 5.46569 33.7596 5.50519 33.7186 5.53336C33.6418 5.58263 33.5795 5.54367 33.5795 5.44626C33.5795 5.40271 33.592 5.35458 33.6127 5.31103C33.6361 5.25893 33.672 5.21493 33.7165 5.18383C33.7933 5.13455 33.8556 5.17466 33.8556 5.27092Z" fill="#D39E09"/>
<path d="M33.8151 5.41876C33.7925 5.46555 33.7592 5.50504 33.7186 5.53336C33.6418 5.58264 33.5795 5.54367 33.5795 5.44626C33.5795 5.40271 33.592 5.35458 33.6127 5.31104L33.8151 5.41876Z" fill="#C99209"/>
<path d="M34.2167 7.97547L34.2125 8.88883C34.2125 8.93123 34.1866 8.97478 34.1357 9.00686C34.0778 9.03919 34.0138 9.05604 33.9489 9.05604C33.8841 9.05604 33.8201 9.03919 33.7622 9.00686C33.7103 8.97363 33.6833 8.93008 33.6833 8.88768L33.6885 7.97432C33.6885 8.01787 33.7134 8.06142 33.7663 8.09465C33.8701 8.15997 34.0382 8.15997 34.1399 8.09465C34.1918 8.06256 34.2167 8.01902 34.2167 7.97547Z" fill="#191716"/>
<path d="M34.1387 7.85514C34.2424 7.92161 34.2424 8.02933 34.1397 8.0958C34.0818 8.12813 34.0178 8.14497 33.9529 8.14497C33.888 8.14497 33.8241 8.12813 33.7661 8.0958C33.6613 8.02704 33.6624 7.92161 33.7651 7.85514C33.8229 7.82245 33.8869 7.80541 33.9519 7.80541C34.0168 7.80541 34.0809 7.82245 34.1387 7.85514Z" fill="#191716"/>
<path d="M35.3944 7.19276C35.3944 7.26266 35.3706 7.31309 35.3332 7.33601L32.9341 8.8831C32.9704 8.85789 32.9932 8.80746 32.9932 8.73641C32.9892 8.65818 32.9685 8.58211 32.9328 8.5144C32.8971 8.44669 32.8474 8.38925 32.7878 8.34677C32.7317 8.31125 32.6799 8.30666 32.6425 8.33073L35.0427 6.78364C35.08 6.76186 35.1329 6.76415 35.189 6.80083C35.3031 6.87302 35.3944 7.04951 35.3944 7.19276Z" fill="#423B37"/>
<path d="M32.7878 8.34677C32.9019 8.41897 32.9932 8.59316 32.9932 8.73641C32.9932 8.88081 32.8999 8.93811 32.7867 8.86591C32.7273 8.82338 32.6779 8.76588 32.6426 8.69814C32.6072 8.6304 32.5869 8.55436 32.5834 8.47627C32.5834 8.33188 32.6747 8.27458 32.7878 8.34677Z" fill="#282422"/>
<path d="M25.4202 6.58538L25.4254 7.49759C25.4254 7.54114 25.4503 7.58354 25.5012 7.61678C25.6039 7.6821 25.772 7.6821 25.8747 7.61678C25.9276 7.5824 25.9536 7.54 25.9536 7.49645L25.9494 6.58424C25.9494 6.62664 25.9235 6.67019 25.8706 6.70342C25.8127 6.73575 25.7487 6.75259 25.6838 6.75259C25.6189 6.75259 25.5549 6.73575 25.497 6.70342C25.4462 6.67133 25.4213 6.62778 25.4202 6.58538Z" fill="#191716"/>
<path d="M25.498 6.46505C25.3953 6.53038 25.3943 6.6381 25.498 6.70342C25.5997 6.76989 25.7678 6.76989 25.8716 6.70342C25.9754 6.63695 25.9743 6.53152 25.8716 6.46505C25.8138 6.43237 25.7498 6.41532 25.6848 6.41532C25.6199 6.41532 25.5558 6.43237 25.498 6.46505Z" fill="#191716"/>
<path d="M24.2435 5.80152C24.2435 5.87257 24.2674 5.92299 24.3037 5.94477L26.7028 7.49186C26.6665 7.46779 26.6447 7.41622 26.6447 7.34632C26.6447 7.20307 26.736 7.02888 26.8491 6.95668C26.9062 6.92001 26.957 6.91657 26.9954 6.94064L24.5942 5.39354C24.5579 5.37062 24.505 5.37406 24.4489 5.40959C24.3892 5.4525 24.3395 5.51034 24.3038 5.57844C24.2681 5.64653 24.2474 5.72296 24.2435 5.80152Z" fill="#423B37"/>
<path d="M26.8491 6.95668C26.7896 6.99922 26.7401 7.0567 26.7046 7.12442C26.669 7.19213 26.6485 7.26817 26.6447 7.34632C26.6447 7.48957 26.7381 7.54687 26.8502 7.47467C26.9098 7.43234 26.9595 7.37491 26.995 7.30715C27.0306 7.23939 27.051 7.16325 27.0546 7.08503C27.0546 6.94178 26.9622 6.88448 26.8491 6.95668Z" fill="#282422"/>
<path d="M33.1115 1.72063L33.1167 2.63284C33.1167 2.67524 33.1416 2.71879 33.1925 2.75088C33.2952 2.81735 33.4633 2.81735 33.566 2.75088C33.619 2.71765 33.6449 2.6741 33.6449 2.6317L33.6408 1.71834C33.6408 1.76189 33.6148 1.80543 33.5619 1.83867C33.504 1.871 33.44 1.88784 33.3751 1.88784C33.3102 1.88784 33.2462 1.871 33.1883 1.83867C33.1375 1.80658 33.1115 1.76303 33.1115 1.72063Z" fill="#191716"/>
<path d="M33.1894 1.6003C33.0856 1.66562 33.0856 1.7722 33.1883 1.83867C33.2911 1.90399 33.4581 1.90399 33.5619 1.83867C33.6667 1.7722 33.6657 1.66562 33.5629 1.59916C33.5051 1.56647 33.4411 1.54942 33.3761 1.54942C33.3112 1.54942 33.2472 1.56761 33.1894 1.6003Z" fill="#191716"/>
<path d="M31.9348 0.935629C31.9348 1.00668 31.9587 1.0571 31.995 1.08002L34.3941 2.62712C34.3578 2.6019 34.336 2.55148 34.336 2.48158C34.336 2.33718 34.4273 2.16413 34.5404 2.09194C34.5975 2.05527 34.6483 2.05068 34.6857 2.07475L32.2855 0.527655C32.2492 0.505881 32.1963 0.508173 32.1403 0.544845C32.0805 0.587755 32.0308 0.645602 31.9951 0.713696C31.9594 0.78179 31.9388 0.857068 31.9348 0.935629Z" fill="#423B37"/>
<path d="M34.5404 2.09079C34.4263 2.16299 34.335 2.33718 34.336 2.48043C34.337 2.62367 34.4294 2.68212 34.5415 2.60992C34.6535 2.53773 34.7459 2.36353 34.7449 2.22028C34.7438 2.07704 34.6535 2.01859 34.5404 2.09079Z" fill="#282422"/>
<path d="M33.1364 8.65619C33.1364 8.80086 33.0844 8.93961 32.9918 9.04191C32.8991 9.14421 32.7735 9.20168 32.6425 9.20168C32.5115 9.20168 32.3859 9.14421 32.2932 9.04191C32.2006 8.93961 32.1486 8.80086 32.1486 8.65619C32.1486 8.51152 32.2006 8.37277 32.2932 8.27047C32.3859 8.16817 32.5115 8.1107 32.6425 8.1107C32.7735 8.1107 32.8991 8.16817 32.9918 8.27047C33.0844 8.37277 33.1364 8.51152 33.1364 8.65619ZM27.4437 7.27068C27.4437 7.41536 27.3917 7.55411 27.299 7.65641C27.2064 7.75871 27.0808 7.81618 26.9498 7.81618C26.8188 7.81618 26.6931 7.75871 26.6005 7.65641C26.5079 7.55411 26.4558 7.41536 26.4558 7.27068C26.4558 7.12601 26.5079 6.98726 26.6005 6.88496C26.6931 6.78266 26.8188 6.72519 26.9498 6.72519C27.0808 6.72519 27.2064 6.78266 27.299 6.88496C27.3917 6.98726 27.4437 7.12601 27.4437 7.27068ZM35.0344 2.30394C35.0344 2.44862 34.9823 2.58737 34.8897 2.68967C34.7971 2.79197 34.6714 2.84944 34.5404 2.84944C34.4094 2.84944 34.2838 2.79197 34.1912 2.68967C34.0985 2.58737 34.0465 2.44862 34.0465 2.30394C34.0465 2.15927 34.0985 2.02052 34.1912 1.91822C34.2838 1.81592 34.4094 1.75845 34.5404 1.75845C34.6714 1.75845 34.7971 1.81592 34.8897 1.91822C34.9823 2.02052 35.0344 2.15927 35.0344 2.30394Z" fill="#F45170"/>
<path d="M24.4915 12.8299V13.655L19.7908 16.7607L19.7804 15.9241V16.7607L16.0447 14.2968V13.4602L20.8181 10.4004L24.4915 12.8299Z" fill="#B0B8CF"/>
<path d="M19.7846 15.9264L19.7825 16.7618L16.0447 14.2979L16.0468 13.4625L19.7846 15.9264Z" fill="#B0B8CF"/>
<path d="M24.4894 12.8253L19.7846 15.9264L16.0468 13.4625L20.815 10.4027L24.4894 12.8253Z" fill="white"/>
<path d="M19.7846 15.9264L19.7866 16.7618L24.4915 13.6607L24.4894 12.8253L19.7846 15.9264Z" fill="#C9CEE2"/>
<path d="M13.9798 8.63556C13.9798 8.86476 13.8345 9.1398 13.6581 9.2544C13.5647 9.3117 13.4817 9.32316 13.4194 9.27732L12.7864 8.87622C12.7242 8.83038 12.693 8.76162 12.693 8.64702C12.693 8.41783 12.8383 8.14279 13.0147 8.02819C13.1081 7.97089 13.1911 7.95943 13.243 7.99381L13.8656 8.39491C13.9382 8.42928 13.9798 8.5095 13.9798 8.63556Z" fill="#423B37"/>
<path d="M13.8832 8.40751C13.8241 8.36969 13.7432 8.37542 13.6529 8.43272C13.5586 8.50042 13.4801 8.59176 13.4239 8.6993C13.3676 8.80684 13.3351 8.92754 13.3291 9.05156C13.3291 9.16501 13.3654 9.24409 13.4236 9.28076L12.7875 8.87393C12.7293 8.83611 12.6941 8.75704 12.693 8.64359C12.693 8.41553 12.8373 8.13935 13.0168 8.02475C13.1071 7.96745 13.188 7.96172 13.2471 7.99954L13.8832 8.40751Z" fill="#423B37"/>
<path d="M13.8822 8.98997C14.0092 8.74864 14.0097 8.48727 13.8833 8.40618C13.757 8.32509 13.5516 8.45499 13.4246 8.69631C13.2976 8.93764 13.2971 9.19901 13.4235 9.2801C13.5498 9.36119 13.7552 9.2313 13.8822 8.98997Z" fill="#191716"/>
<path d="M19.5521 12.179C19.5065 12.1503 19.4442 12.1538 19.3757 12.1985C19.3034 12.2501 19.2431 12.3199 19.1998 12.4022C19.1566 12.4844 19.1315 12.5768 19.1267 12.6718C19.1277 12.7589 19.1557 12.8196 19.1993 12.8482L13.5221 9.1845C13.4775 9.15585 13.4495 9.09511 13.4495 9.00801C13.4495 8.83497 13.5605 8.62296 13.6975 8.53472C13.766 8.49117 13.8293 8.48659 13.8739 8.51524L19.5521 12.179Z" fill="#B0AF6F"/>
<path d="M19.5507 12.6259C19.648 12.4409 19.6486 12.2407 19.5519 12.1787C19.4553 12.1167 19.2981 12.2164 19.2008 12.4013C19.1034 12.5863 19.1029 12.7865 19.1995 12.8485C19.2961 12.9105 19.4533 12.8109 19.5507 12.6259Z" fill="#C9CEE2"/>
<path d="M15.5363 7.63855C15.5363 7.86775 15.391 8.14279 15.2146 8.25739C15.1212 8.31469 15.0382 8.32615 14.9759 8.28031L14.3429 7.86775C14.2911 7.83337 14.2495 7.75315 14.2495 7.63855C14.2495 7.42081 14.3948 7.13431 14.5712 7.01971C14.6646 6.96241 14.7476 6.96241 14.7995 6.99679L15.4221 7.39789C15.4325 7.39789 15.4325 7.39789 15.4429 7.40935C15.5051 7.44373 15.5363 7.52395 15.5363 7.63855Z" fill="#423B37"/>
<path d="M15.4408 7.40706C15.3817 7.36924 15.2997 7.37382 15.2094 7.43112C15.1151 7.49882 15.0367 7.59016 14.9804 7.6977C14.9241 7.80524 14.8917 7.92594 14.8857 8.04996C14.8857 8.16456 14.922 8.24363 14.9811 8.28145L14.345 7.87233C14.2859 7.83566 14.2506 7.75544 14.2495 7.64313C14.2495 7.41508 14.3948 7.13889 14.5733 7.02429C14.6636 6.96699 14.7456 6.96126 14.8047 6.99908L15.4408 7.40706Z" fill="#423B37"/>
<path d="M15.4392 7.99051C15.5662 7.74919 15.5667 7.48782 15.4404 7.40672C15.314 7.32563 15.1086 7.45553 14.9817 7.69685C14.8547 7.93818 14.8542 8.19955 14.9805 8.28064C15.1069 8.36173 15.3122 8.23184 15.4392 7.99051Z" fill="#191716"/>
<path d="M21.1086 11.1785C21.064 11.1499 21.0018 11.1533 20.9322 11.1969C20.86 11.2488 20.7998 11.3188 20.7567 11.4012C20.7136 11.4837 20.6888 11.5762 20.6842 11.6713C20.6842 11.7584 20.7122 11.8191 20.7569 11.8478L15.0787 8.18404C15.034 8.15539 15.0071 8.09465 15.006 8.00756C15.006 7.83337 15.1171 7.62136 15.2551 7.53426C15.3236 7.48957 15.3858 7.48613 15.4315 7.51478L21.1086 11.1785Z" fill="#B0AF6F"/>
<path d="M21.1082 11.6254C21.2056 11.4405 21.2061 11.2403 21.1095 11.1783C21.0129 11.1162 20.8556 11.2159 20.7583 11.4009C20.661 11.5858 20.6604 11.786 20.757 11.8481C20.8537 11.9101 21.0109 11.8104 21.1082 11.6254Z" fill="#C9CEE2"/>
<path d="M22.2252 12.3234L20.9758 13.1244L19.2138 12.9972L18.2664 12.038L18.8465 10.9677L20.5172 10.5929L22.0208 11.1969L22.2252 12.3234Z" fill="#E3E7F0"/>
<path d="M22.688 13.4659L21.147 14.4549L20.9758 13.1244L22.2252 12.3234L22.688 13.4659Z" fill="#C9CEE2"/>
<path d="M21.147 14.4549L18.972 14.2991L19.2138 12.9972L20.9654 13.1244L21.147 14.4549Z" fill="#B0B8CF"/>
<path d="M19.2138 12.9972L18.9721 14.2991L17.8036 13.1153L18.2664 12.038L19.2138 12.9972Z" fill="#C9CEE2"/>
<path d="M22.688 13.4659L22.2252 12.3234L22.0208 11.1969L22.4358 12.0758L22.688 13.4659ZM20.6863 12.2867V12.5274C20.6863 12.6213 20.6292 12.7153 20.5172 12.7875C20.3899 12.8591 20.2491 12.8964 20.1062 12.8964C19.9634 12.8964 19.8226 12.8591 19.6953 12.7875C19.5812 12.7142 19.5231 12.619 19.5241 12.5239V12.2833C19.5241 12.3784 19.5812 12.4746 19.6964 12.5468C19.9236 12.6924 20.2909 12.6924 20.5172 12.5468C20.6303 12.4746 20.6863 12.3807 20.6863 12.2867Z" fill="#B0B8CF"/>
<path d="M20.6863 12.2862C20.6868 12.0812 20.4271 11.9141 20.1062 11.9131C19.7852 11.9121 19.5246 12.0775 19.5241 12.2826C19.5236 12.4876 19.7833 12.6547 20.1042 12.6557C20.4252 12.6567 20.6858 12.4913 20.6863 12.2862Z" fill="white"/>
<path d="M20.429 12.4907C20.2515 12.6053 19.962 12.6053 19.7846 12.4907C19.605 12.3761 19.604 12.1927 19.7825 12.0781C19.9589 11.9635 20.2474 11.9635 20.4258 12.0781C20.6054 12.1927 20.6054 12.3761 20.429 12.4907ZM21.8485 11.5407L21.8475 11.7813C21.8475 11.8753 21.7914 11.9704 21.6783 12.0415C21.551 12.113 21.4102 12.1503 21.2674 12.1503C21.1246 12.1503 20.9838 12.113 20.8565 12.0415C20.7423 11.9693 20.6853 11.873 20.6853 11.7779V11.5372C20.6853 11.6323 20.7434 11.7286 20.8575 11.8008C21.0858 11.9463 21.4532 11.9463 21.6794 11.8008C21.7914 11.7297 21.8475 11.6346 21.8485 11.5407Z" fill="#B0B8CF"/>
<path d="M21.8485 11.5402C21.849 11.3351 21.5893 11.1681 21.2684 11.1671C20.9474 11.1661 20.6868 11.3315 20.6863 11.5365C20.6858 11.7416 20.9455 11.9087 21.2665 11.9097C21.5874 11.9107 21.848 11.7453 21.8485 11.5402Z" fill="white"/>
<path d="M21.5912 11.7446C21.4127 11.8592 21.1242 11.8592 20.9457 11.7446C20.7672 11.63 20.7662 11.4467 20.9437 11.3321C21.1201 11.2186 21.4096 11.2186 21.5881 11.3321C21.7665 11.4467 21.7686 11.63 21.5912 11.7446ZM20.0782 10.9768L18.8828 11.7446C18.8814 11.7157 18.8738 11.6875 18.8607 11.6624C18.8475 11.6373 18.8291 11.616 18.8071 11.6002C18.7863 11.5865 18.7676 11.5854 18.7531 11.5945L19.9495 10.8267C19.963 10.8175 19.9817 10.8187 20.0035 10.8324C20.0254 10.8483 20.0436 10.8696 20.0565 10.8947C20.0695 10.9198 20.077 10.948 20.0782 10.9768Z" fill="#B0B8CF"/>
<path d="M18.8071 11.6003C18.829 11.6159 18.8473 11.637 18.8604 11.6619C18.8736 11.6868 18.8813 11.7147 18.8828 11.7435L18.7313 11.6472C18.7313 11.5945 18.7656 11.5739 18.8071 11.6003Z" fill="#9EA9C9"/>
<path d="M20.3231 11.1327L19.1267 11.9005C19.1254 11.8716 19.118 11.8435 19.105 11.8184C19.092 11.7933 19.0738 11.772 19.052 11.7561C19.0312 11.7424 19.0115 11.7412 18.998 11.7504L20.1944 10.9826C20.2079 10.9734 20.2266 10.9757 20.2474 10.9883C20.2694 11.004 20.2878 11.0253 20.301 11.0504C20.3141 11.0755 20.3217 11.1037 20.3231 11.1327Z" fill="#B0B8CF"/>
<path d="M19.052 11.7561C19.0738 11.772 19.092 11.7933 19.105 11.8184C19.118 11.8435 19.1254 11.8716 19.1267 11.9005L18.9762 11.8042C18.9762 11.7504 19.0104 11.7297 19.052 11.7561Z" fill="#9EA9C9"/>
<path d="M20.568 11.2885L19.3716 12.0564C19.3703 12.0275 19.3629 11.9994 19.3499 11.9743C19.3369 11.9492 19.3187 11.9278 19.2968 11.912C19.2761 11.8982 19.2564 11.8971 19.2429 11.9062L20.4383 11.1384C20.4528 11.1304 20.4715 11.1315 20.4923 11.1441C20.5143 11.1599 20.5327 11.1812 20.5459 11.2063C20.559 11.2314 20.5666 11.2596 20.568 11.2885Z" fill="#B0B8CF"/>
<path d="M19.2968 11.912C19.3187 11.9278 19.3369 11.9492 19.3499 11.9743C19.3629 11.9994 19.3703 12.0275 19.3716 12.0564L19.2211 11.9601C19.2211 11.9062 19.2553 11.8856 19.2968 11.912Z" fill="#9EA9C9"/>
<path d="M48.296 39.6691V39.9556C48.296 40.0931 48.213 40.2421 48.0469 40.3452C47.7045 40.563 47.1649 40.563 46.8225 40.3452C46.6461 40.2421 46.563 40.0931 46.563 39.9556V39.6691C46.563 39.5316 46.6564 39.3941 46.8225 39.2795C47.1545 39.0617 47.7045 39.0617 48.0469 39.2795C48.213 39.3941 48.296 39.5316 48.296 39.6691Z" fill="#CC104A"/>
<path d="M48.298 39.6714L48.297 39.9567C48.297 40.0977 48.213 40.2375 48.0449 40.3464C47.7086 40.5618 47.1597 40.5618 46.8204 40.3452C46.6492 40.2364 46.5641 40.0931 46.5651 39.951V39.6657C46.5651 39.8089 46.6502 39.9522 46.8214 40.0599C47.1607 40.2776 47.7097 40.2776 48.0459 40.0599C48.214 39.9533 48.298 39.8123 48.298 39.6714Z" fill="#CC104A"/>
<path d="M48.0417 39.2772C48.3821 39.4938 48.3842 39.8444 48.0459 40.061C47.7097 40.2765 47.1607 40.2765 46.8214 40.061C46.4821 39.8433 46.48 39.4938 46.8173 39.2772C47.1545 39.0606 47.7035 39.0606 48.0417 39.2772Z" fill="#F45170"/>
<path d="M48.0469 39.1305V39.6003C48.0469 39.7035 47.9847 39.7952 47.8705 39.8754C47.6319 40.0358 47.2375 40.0358 46.9989 39.8754C46.8743 39.7952 46.8121 39.692 46.8121 39.6003V39.1305C46.8121 39.1878 46.8225 39.2336 46.864 39.2795C46.7706 39.1419 46.8225 38.97 46.9989 38.8554C47.2375 38.695 47.6215 38.695 47.8705 38.8554C47.9847 38.9357 48.0469 39.0273 48.0469 39.1305Z" fill="#191716"/>
<path d="M48.048 39.1316V39.6003C48.0469 39.7 47.9867 39.7997 47.8684 39.8765C47.7334 39.9524 47.5841 39.992 47.4326 39.992C47.2811 39.992 47.1318 39.9524 46.9968 39.8765C46.8754 39.7997 46.8142 39.6977 46.8152 39.5958V39.1282C46.8152 39.2302 46.8764 39.3322 46.9968 39.409C47.1318 39.4848 47.2811 39.5244 47.4326 39.5244C47.5841 39.5244 47.7334 39.4848 47.8684 39.409C47.9878 39.3322 48.048 39.2325 48.048 39.1328V39.1316Z" fill="#191716"/>
<path d="M47.8653 38.852C48.1071 39.0056 48.1081 39.2554 47.8684 39.409C47.6287 39.5625 47.2386 39.5625 46.9968 39.409C46.756 39.2554 46.755 39.0056 46.9947 38.852C47.1297 38.776 47.279 38.7364 47.4305 38.7364C47.582 38.7364 47.7303 38.776 47.8653 38.852Z" fill="#423B37"/>
<path d="M47.4316 39.2325C47.415 39.2326 47.3986 39.2291 47.3832 39.2222C47.3679 39.2153 47.3539 39.2052 47.3421 39.1923C47.3304 39.1794 47.321 39.164 47.3146 39.1471C47.3083 39.1302 47.305 39.1121 47.305 39.0938V31.2197C47.305 31.1828 47.3183 31.1473 47.3419 31.1212C47.3656 31.0951 47.3976 31.0804 47.4311 31.0804C47.4645 31.0804 47.4966 31.0951 47.5202 31.1212C47.5439 31.1473 47.5571 31.1828 47.5571 31.2197V39.0927C47.5573 39.111 47.5541 39.1291 47.5479 39.1461C47.5416 39.163 47.5324 39.1785 47.5207 39.1915C47.5091 39.2045 47.4952 39.2148 47.4799 39.2218C47.4646 39.2288 47.4482 39.2325 47.4316 39.2325Z" fill="#D1C39F"/>
<path d="M36.9115 32.9421L39.1996 31.4741V31.5291L36.9115 32.9983V32.9421Z" fill="#989761"/>
<path d="M36.4913 32.0654L38.7794 30.5974L39.1571 31.0512L36.869 32.5204L36.4913 32.0654Z" fill="#B0AF6F"/>
<path d="M36.869 32.5204L39.1571 31.0512L39.1996 31.4741L36.9115 32.9421L36.869 32.5204ZM35.5397 29.9923L37.8278 28.5243L38.7794 30.5974L36.4913 32.0654L35.5397 29.9923Z" fill="#989761"/>
<path d="M34.1627 29.1145L36.4508 27.6453L37.8278 28.5243L35.5397 29.9923L34.1627 29.1145Z" fill="#B0AF6F"/>
<path d="M35.5397 29.9923L36.4913 32.0654L36.869 32.5204L36.9115 32.9421V32.9983L34.1575 30.0897L34.1627 29.1145L35.5397 29.9923Z" fill="#878554"/>
<path d="M37.1896 29.5408C37.3017 29.4686 37.4044 29.4617 37.4781 29.5099L37.6265 29.605C37.5539 29.558 37.4501 29.5637 37.338 29.6359C37.2198 29.7207 37.1213 29.8352 37.0508 29.97C36.9803 30.1049 36.9397 30.2562 36.9323 30.4118C36.9323 30.5527 36.9779 30.6524 37.0506 30.6994L36.9022 30.6043C36.8296 30.5573 36.7839 30.4576 36.7839 30.3166C36.7839 30.0313 36.9645 29.684 37.1886 29.5408H37.1896Z" fill="#423B37"/>
<path d="M37.6262 30.3359C37.7851 30.0338 37.7854 29.7064 37.6269 29.6047C37.4683 29.5029 37.2109 29.6653 37.052 29.9674C36.893 30.2694 36.8927 30.5968 37.0513 30.6986C37.2098 30.8003 37.4672 30.6379 37.6262 30.3359Z" fill="#282422"/>
<path d="M37.0039 30.3991C37.0049 30.5206 37.0444 30.6077 37.1077 30.649L38.1028 31.2873C38.0416 31.2483 38.0032 31.167 38.0001 31.0535V31.0398C38.0001 30.7934 38.1557 30.4931 38.3498 30.3705C38.4473 30.3086 38.5365 30.3017 38.5998 30.3418L37.7043 29.7688L37.6037 29.7035C37.5393 29.6623 37.4511 29.6691 37.3546 29.7299C37.2525 29.8033 37.1675 29.9022 37.1066 30.0187C37.0457 30.1352 37.0105 30.266 37.0039 30.4003V30.3991Z" fill="#E5AF05"/>
<path d="M37.3391 30.445C37.3391 30.5676 37.3785 30.6524 37.4418 30.6948L38.0001 31.0535V31.0398C38.0001 30.7934 38.1557 30.4931 38.3498 30.3705C38.4473 30.3086 38.5365 30.3017 38.5998 30.3418L37.7043 29.7688C37.6991 29.7688 37.694 29.7734 37.6888 29.7757C37.5868 29.8489 37.5019 29.9476 37.4411 30.064C37.3803 30.1803 37.3454 30.3109 37.3391 30.445Z" fill="#F5C403"/>
<path d="M38.3498 30.3694C38.2479 30.4426 38.1631 30.5414 38.1023 30.6577C38.0416 30.774 38.0065 30.9045 38.0001 31.0386C38.0001 31.285 38.1588 31.3836 38.3529 31.2609C38.4548 31.1877 38.5397 31.0889 38.6004 30.9726C38.6612 30.8563 38.6962 30.7258 38.7026 30.5917C38.7015 30.3453 38.5438 30.2467 38.3498 30.3694Z" fill="#423B37"/>
<path d="M38.2491 30.2937C38.3518 30.2284 38.4463 30.2215 38.5127 30.2651L38.5687 30.3017C38.5013 30.2582 38.4079 30.2639 38.3041 30.3292C38.1964 30.4068 38.1068 30.5114 38.0426 30.6345C37.9784 30.7576 37.9414 30.8956 37.9347 31.0375C37.9347 31.167 37.9762 31.2575 38.0426 31.301L37.9866 31.2655C37.9202 31.222 37.8787 31.1314 37.8787 31.0019C37.8787 30.7418 38.0437 30.4244 38.2491 30.2937Z" fill="#423B37"/>
<path d="M38.5691 30.969C38.7145 30.6926 38.7151 30.3933 38.5704 30.3004C38.4257 30.2076 38.1905 30.3563 38.0451 30.6327C37.8997 30.909 37.8991 31.2083 38.0438 31.3012C38.1885 31.394 38.4237 31.2453 38.5691 30.969Z" fill="#282422"/>
<path d="M40.0619 32.5422C39.9997 32.5032 39.9613 32.4195 39.9582 32.3038V32.2946C39.9582 32.0482 40.1149 31.7491 40.3089 31.6254C40.4065 31.5635 40.4936 31.5566 40.558 31.5979L38.632 30.3625L38.6009 30.3418C38.5355 30.3006 38.4473 30.3075 38.3498 30.3693C38.2478 30.4425 38.163 30.5413 38.1022 30.6576C38.0414 30.774 38.0064 30.9045 38.0001 31.0386C38.0011 31.1589 38.0395 31.2449 38.1028 31.2861" fill="#E5AF05"/>
<path d="M40.3068 31.6254C40.2049 31.6986 40.1202 31.7974 40.0594 31.9137C39.9986 32.03 39.9636 32.1605 39.9571 32.2946C39.9571 32.5399 40.1149 32.6396 40.3089 32.5158C40.503 32.392 40.6597 32.0918 40.6586 31.8477C40.6586 31.6013 40.5009 31.5016 40.3068 31.6254Z" fill="#423B37"/>
<path d="M38.2699 31.0386C38.2699 31.1589 38.3093 31.2449 38.3726 31.2861L39.9592 32.3038V32.2946C39.9592 32.0482 40.1149 31.7491 40.3089 31.6254C40.4065 31.5635 40.4936 31.5566 40.558 31.5979L38.632 30.3625C38.5268 30.4346 38.4388 30.5337 38.3758 30.6514C38.3127 30.7692 38.2764 30.902 38.2699 31.0386Z" fill="#F5C403"/>
<path d="M40.1408 31.4993C40.2446 31.4328 40.338 31.4271 40.4054 31.4695L40.4604 31.5062C40.393 31.4626 40.2996 31.4684 40.1968 31.5337C40.0889 31.6111 39.9991 31.7157 39.9347 31.8388C39.8704 31.9618 39.8332 32.1 39.8264 32.2419C39.8264 32.3714 39.8679 32.4619 39.9343 32.5055L39.8793 32.47C39.8119 32.4264 39.7714 32.3359 39.7704 32.2064C39.7704 31.9462 39.9364 31.6299 40.1408 31.4993Z" fill="#423B37"/>
<path d="M40.4593 32.173C40.6048 31.8966 40.6054 31.5973 40.4607 31.5045C40.316 31.4116 40.0808 31.5604 39.9354 31.8367C39.79 32.1131 39.7894 32.4124 39.9341 32.5052C40.0788 32.5981 40.3139 32.4493 40.4593 32.173Z" fill="#282422"/>
<path d="M39.8907 32.2499C39.8907 32.3725 39.9291 32.4585 39.9924 32.4998L40.9886 33.1381C40.9284 33.0991 40.89 33.02 40.8869 32.9066V32.8894C40.8932 32.7553 40.9282 32.6247 40.9889 32.5084C41.0497 32.392 41.1346 32.2933 41.2366 32.2201C41.3196 32.1686 41.3964 32.156 41.4566 32.18C41.467 32.1835 41.4763 32.1869 41.4857 32.1938L41.4597 32.1777L40.4905 31.5543C40.4807 31.5479 40.4703 31.5429 40.4594 31.5394C40.3992 31.5165 40.3234 31.5279 40.2404 31.5807C40.1386 31.654 40.0539 31.7528 39.9931 31.8691C39.9323 31.9854 39.8973 32.1159 39.8907 32.2499Z" fill="#E5AF05"/>
<path d="M40.0962 32.2167C40.0962 32.3382 40.1356 32.423 40.2 32.4642L40.8869 32.9066V32.8894C40.8932 32.7553 40.9282 32.6247 40.9889 32.5084C41.0497 32.392 41.1346 32.2933 41.2366 32.2201C41.3196 32.1686 41.3964 32.156 41.4566 32.18C41.4566 32.1777 41.4587 32.1777 41.4597 32.1777L40.4905 31.5543C40.4807 31.5479 40.4703 31.5429 40.4594 31.5394C40.354 31.6117 40.2659 31.711 40.2027 31.8289C40.1394 31.9468 40.1029 32.0799 40.0962 32.2167Z" fill="#F5C403"/>
<path d="M41.2366 32.2213C41.1348 32.2944 41.0502 32.393 40.9894 32.5091C40.9286 32.6252 40.8935 32.7555 40.8869 32.8894C40.8869 33.1358 41.0446 33.2343 41.2387 33.1117C41.4327 32.9891 41.5894 32.6877 41.5884 32.4425C41.5884 32.1961 41.4296 32.0975 41.2356 32.2201L41.2366 32.2213Z" fill="#423B37"/>
<path d="M41.136 32.0723C41.2491 32.0012 41.3508 31.9944 41.4255 32.0414L41.5739 32.1365C41.4991 32.0895 41.3974 32.0964 41.2833 32.1686C41.1654 32.2534 41.0672 32.3677 40.9969 32.5024C40.9266 32.637 40.886 32.7881 40.8786 32.9433C40.8786 33.0854 40.9243 33.1839 40.9979 33.2309L40.8495 33.1358C40.7769 33.0899 40.7313 32.9891 40.7302 32.8493C40.7302 32.5628 40.9118 32.2155 41.136 32.0723Z" fill="#423B37"/>
<path d="M41.573 32.8695C41.7319 32.5674 41.7323 32.2401 41.5737 32.1383C41.4151 32.0365 41.1577 32.1989 40.9988 32.501C40.8398 32.8031 40.8395 33.1304 40.9981 33.2322C41.1567 33.334 41.414 33.1716 41.573 32.8695Z" fill="#282422"/>
<path d="M41.5614 32.5078C41.5589 32.6058 41.5331 32.7015 41.4867 32.7851C41.4414 32.8872 41.3709 32.973 41.2833 33.0326C41.1339 33.1289 41.0125 33.0475 41.0125 32.8607C41.0125 32.7622 41.0457 32.6499 41.1007 32.5536C41.143 32.4644 41.206 32.3893 41.2833 32.3359C41.4327 32.2385 41.5614 32.321 41.5614 32.5078Z" fill="#423B37"/>
<path d="M9.63185 21.0238L8.72907 21.952L7.02727 22.0781L5.8028 21.2988L6.47729 18.9151L6.60182 18.2046L7.54611 17.8264L8.60455 18.0556L8.97811 18.7318L9.63185 21.0238Z" fill="#191716"/>
<path d="M8.97811 18.7352L9.63704 21.0215L8.72803 21.9509L8.39701 19.3323L8.97811 18.7352Z" fill="#383330"/>
<path d="M8.39701 19.3323L8.72803 21.9509L7.02415 22.0746L7.27527 19.4217L8.39701 19.3323Z" fill="#282422"/>
<path d="M7.27527 19.4217L7.02415 22.0746L5.8028 21.2954L6.47833 18.914L7.27527 19.4217Z" fill="#191716"/>
<path d="M8.6087 18.0568L8.97811 18.7352L8.3856 19.3414L7.27527 19.4217L6.47833 18.914L6.60078 18.2035L7.54507 17.8219L8.6087 18.0568Z" fill="#423B37"/>
<path d="M8.23306 14.0103V13.8682L10.1912 11.245L10.1901 10.7992L9.86741 10.5918L8.22891 12.7864L8.22683 12.046L8.22787 11.9039L10.187 9.28191L10.186 8.83497L9.86326 8.62869L8.22475 10.8118L8.2206 9.16616L7.65092 8.80059L7.075 9.16845L7.08123 11.5911V11.6942L5.23 11.5888L5.23104 12.0346L5.55376 12.242L7.0833 12.3383L7.08641 13.5668V13.6688L5.23519 13.5519L5.23622 14.0045L5.55894 14.2108L7.08745 14.3037L7.09575 18.5794L7.66544 18.9449L8.24136 18.5771L8.23202 14.0091L8.23306 14.0103Z" fill="#C9CEE2"/>
<path d="M8.23306 14.0103L7.66337 13.6447L7.66233 13.1989L8.23202 13.5633L8.23306 14.0103Z" fill="#414245"/>
<path d="M8.15938 13.5186L7.83666 13.3124L9.86741 10.5918L10.1901 10.7992L8.15938 13.5186Z" fill="#E3E7F0"/>
<path d="M10.1901 10.7992L10.1912 11.245L8.16042 13.9656L8.15938 13.5186L10.1901 10.7992Z" fill="#C9CEE2"/>
<path d="M8.22787 12.046L7.65921 11.6805L7.65714 11.2232L8.22683 11.5888L8.22787 12.046Z" fill="#414245"/>
<path d="M8.15419 11.543L7.83147 11.3367L9.86326 8.62869L10.1849 8.83497L8.15419 11.543Z" fill="#E3E7F0"/>
<path d="M10.1849 8.83497L10.187 9.28191L8.15523 12.0014L8.15419 11.543L10.1849 8.83497Z" fill="#C9CEE2"/>
<path d="M7.66544 18.9449L7.09575 18.5794L7.08745 14.0126L7.6561 14.3781L7.66544 18.9449Z" fill="#B0B8CF"/>
<path d="M7.6561 14.3781L7.08745 14.0126L7.08641 13.5656L7.65507 13.9312L7.6561 14.3781ZM7.65507 13.9312L7.08641 13.5656L7.08226 12.0483L7.65092 12.4139L7.65507 13.9312Z" fill="#B0B8CF"/>
<path d="M7.65091 12.4139L7.08226 12.0483L7.08123 11.5911L7.64988 11.9555L7.65091 12.4139ZM5.55894 14.2108L5.23622 14.0045L5.23519 13.5519L5.55791 13.7593L5.55894 14.2108Z" fill="#B0B8CF"/>
<path d="M5.55791 13.7593L5.23519 13.5519L7.25971 13.6791L7.58243 13.8865L5.55791 13.7593Z" fill="#E3E7F0"/>
<path d="M5.55791 13.7593L7.58243 13.8865L7.58346 14.3334L5.55894 14.2108L5.55791 13.7593Z" fill="#C9CEE2"/>
<path d="M7.64988 11.9555L7.08123 11.5911L7.075 9.16845L7.64365 9.53403L7.64988 11.9555Z" fill="#B0B8CF"/>
<path d="M7.64365 9.53402L7.075 9.16845L7.65092 8.80059L8.2206 9.16616L7.64365 9.53402Z" fill="#E3E7F0"/>
<path d="M8.2206 9.16616L8.24136 18.5771L7.66544 18.9449L7.6561 14.3781L7.65506 13.9312L7.65091 12.4139L7.64988 11.9555L7.64365 9.53402L8.2206 9.16616ZM5.55272 11.7951L7.57724 11.9108L7.57828 12.3692L5.55375 12.242L5.55272 11.7951Z" fill="#C9CEE2"/>
<path d="M5.55272 11.7951L5.23 11.5888L7.25452 11.7045L7.57724 11.9108L5.55272 11.7951Z" fill="#E3E7F0"/>
<path d="M5.55376 12.242L5.23104 12.0346L5.23 11.5888L5.55272 11.7951L5.55376 12.242Z" fill="#B0B8CF"/>
</svg>
