<svg width="50" height="50" viewBox="0 0 50 50" fill="none" xmlns="http://www.w3.org/2000/svg">
<path d="M47.3355 42.3645C37.3415 43.4289 29.007 41.9744 23.5682 38.7632L0.26862 23.3302C-0.0746762 23.1008 -0.0601562 22.7514 0.299734 22.5349L14.0471 14.2787C14.4101 14.0611 14.9941 14.0526 15.3778 14.2573L41.2308 28.1523C46.6167 31.3988 49.0696 36.3838 47.3355 42.3645Z" fill="#E3E7F0"/>
<path d="M14.7296 15.805C14.852 15.805 14.9692 15.8296 15.0449 15.8693L40.8823 29.7546C44.8432 32.148 46.9828 35.4095 47.1467 39.1727C47.3272 35.0087 45.173 31.3967 40.8823 28.805L15.0449 14.9197C14.9457 14.8742 14.838 14.8522 14.7296 14.8553C14.6194 14.8514 14.5099 14.8745 14.4101 14.9229L1.03715 22.955L1.79012 23.4534L14.4101 15.8736C14.5098 15.8248 14.6193 15.8013 14.7296 15.805Z" fill="#C9CEE2"/>
<path d="M41.0358 41.9637C42.952 41.9607 44.867 41.8638 46.7744 41.6732C46.9891 40.8211 47.1125 39.9862 47.1477 39.1727C46.9828 35.4106 44.8432 32.148 40.8823 29.7546L15.0449 15.8704C14.9457 15.8249 14.838 15.803 14.7296 15.8061C14.6194 15.8021 14.5099 15.8252 14.4101 15.8736L1.79012 23.4534L23.9415 38.1255C28.2042 40.6368 34.1149 41.9637 41.0358 41.9637Z" fill="white"/>
<path d="M0.268622 28.8254L23.5682 44.2574C28.4594 47.1459 35.6976 48.6036 44.3744 48.0945L47.3355 42.3635C37.3415 43.4278 29.007 41.9765 23.5682 38.7654L0.268622 23.3323C0.100603 23.2187 0.0197059 23.0815 0.0197059 22.9411L0 30.2337C0 30.2509 0.0124459 30.267 0.0155573 30.2841L0.0197059 28.4352C0.0197059 28.5746 0.100603 28.7118 0.268622 28.8254Z" fill="#C9CEE2"/>
<path d="M0.248915 30.6217L23.5485 46.0537C28.2623 48.8383 35.1542 50.3024 43.4171 49.9476L44.3744 48.0955C35.6976 48.6036 28.4594 47.1459 23.5682 44.2584L0.268621 28.8243C0.100602 28.7107 0.0197049 28.5735 0.0197049 28.4342L0.0155563 30.283C0.0277861 30.3535 0.0549576 30.4204 0.0951232 30.4787C0.135289 30.5371 0.187454 30.5856 0.247878 30.6207L0.248915 30.6217Z" fill="#423B37"/>
<path d="M43.8662 36.5992L43.861 37.8672C43.8589 38.596 43.3964 39.3217 42.4723 39.8769C40.6106 40.9948 37.5832 40.9948 35.7101 39.8769C34.7673 39.3142 34.2964 38.5767 34.2995 37.8393L34.3037 36.5714C34.3016 37.3077 34.7725 38.0462 35.7153 38.6078C37.5883 39.7257 40.6158 39.7268 42.4775 38.6078C43.4016 38.0537 43.8641 37.327 43.8672 36.5992H43.8662Z" fill="#B0B8CF"/>
<path d="M43.8662 36.5994C43.8705 35.0189 41.7334 33.7313 39.0928 33.7236C36.4522 33.7158 34.3081 34.9908 34.3037 36.5713C34.2994 38.1517 36.4365 39.4393 39.0771 39.447C41.7177 39.4548 43.8618 38.1799 43.8662 36.5994Z" fill="#E3E7F0"/>
<path d="M41.7452 38.1716C40.287 39.0505 37.913 39.0505 36.4423 38.1716C34.9727 37.2959 34.9644 35.8758 36.4257 34.9958C37.8839 34.1212 40.258 34.1212 41.7286 34.9958C43.1993 35.8747 43.2035 37.2959 41.7452 38.1716Z" fill="white"/>
<path d="M39.728 31.7782L39.5403 31.6657L35.8957 33.8543L36.0834 33.9669C37.6029 34.8736 38.8298 37.0741 38.8246 38.8769L42.4692 36.6882C42.4744 34.8854 41.2464 32.6828 39.728 31.7782Z" fill="#C0BD78"/>
<path d="M41.8044 36.3163L39.3567 37.7825C39.0559 36.3249 38.2054 34.85 37.1102 33.9026L39.534 32.4449C40.6936 33.208 41.6581 34.8747 41.8044 36.3163Z" fill="#423B37"/>
<path d="M36.0834 33.9669C37.6029 34.8736 38.8298 37.0741 38.8246 38.8769L35.8864 37.1244L35.8957 33.8554L36.0834 33.9669Z" fill="#A4A259"/>
<path d="M41.4445 35.4953C41.3687 35.4503 41.263 35.4556 41.1458 35.5253C41.0238 35.6075 40.9222 35.7183 40.8494 35.8486C40.7766 35.979 40.7346 36.1253 40.7268 36.2756C40.7268 36.4138 40.7734 36.5103 40.8491 36.5553L40.0246 36.0601C39.9489 36.0151 39.9022 35.9186 39.9022 35.7815C39.9022 35.506 40.0889 35.1705 40.3212 35.0312C40.4384 34.9604 40.5442 34.9551 40.621 35.0012L41.4445 35.4953Z" fill="#BDC172"/>
<path d="M41.4436 36.2041C41.6082 35.9113 41.6088 35.5942 41.4449 35.4958C41.2809 35.3973 41.0146 35.5548 40.85 35.8476C40.6854 36.1403 40.6848 36.4575 40.8487 36.5559C41.0127 36.6543 41.279 36.4968 41.4436 36.2041Z" fill="#A4A259"/>
<path d="M48.2233 39.7268C48.159 39.6871 48.0677 39.6914 47.9681 39.7515C47.8641 39.8215 47.7775 39.916 47.7155 40.0272C47.6535 40.1384 47.6178 40.2632 47.6113 40.3913C47.6113 40.5092 47.6508 40.5907 47.7151 40.6293L40.9269 36.5349C40.8616 36.4974 40.8232 36.4149 40.8222 36.2981C40.8222 36.0623 40.9819 35.7772 41.18 35.6582C41.2796 35.5982 41.3698 35.5939 41.4351 35.6325L48.2233 39.7268Z" fill="#9EA9C9"/>
<path d="M48.2231 40.3288C48.3632 40.0796 48.3636 39.8095 48.224 39.7257C48.0843 39.6418 47.8575 39.7759 47.7173 40.0251C47.5772 40.2743 47.5768 40.5444 47.7164 40.6283C47.8561 40.7121 48.0829 40.5781 48.2231 40.3288Z" fill="#C9CEE2"/>
<path d="M49.6307 40.2734C49.5363 40.2166 49.4046 40.2241 49.2594 40.3109C48.971 40.4824 48.7387 40.9004 48.7387 41.2424C48.7398 41.4128 48.7978 41.5317 48.8912 41.5885L47.1415 40.5425C47.0482 40.4856 46.9901 40.3667 46.9891 40.1963C46.9891 39.8533 47.2214 39.4374 47.5097 39.2638C47.6549 39.178 47.7866 39.1705 47.881 39.2273L49.6307 40.2734Z" fill="#423B37"/>
<path d="M49.63 41.1529C49.8343 40.7895 49.835 40.3958 49.6314 40.2736C49.4279 40.1513 49.0972 40.3468 48.8929 40.7102C48.6886 41.0736 48.6879 41.4672 48.8915 41.5895C49.095 41.7117 49.4257 41.5162 49.63 41.1529Z" fill="#282422"/>
<path d="M49.639 40.7054C49.6351 40.8393 49.5979 40.9699 49.5311 41.0848C49.4681 41.206 49.3755 41.308 49.2625 41.3806C49.054 41.506 48.8829 41.4053 48.8829 41.1566C48.8829 41.0441 48.9171 40.9208 48.9742 40.8083L48.9752 40.8072C49.0394 40.6738 49.1376 40.5611 49.2594 40.4814C49.4699 40.3549 49.639 40.4567 49.639 40.7054Z" fill="#423B37"/>
<path d="M49.5311 41.0848C49.4681 41.206 49.3755 41.308 49.2625 41.3806C49.054 41.506 48.8829 41.4053 48.8829 41.1566C48.8829 41.0441 48.9171 40.9208 48.9742 40.8083L48.9752 40.8072L49.5311 41.0848Z" fill="#191716"/>
<path d="M17.8358 19.1212V19.9357L8.11776 25.7771L4.72629 23.7514V22.9261L14.434 17.0954L17.8358 19.1212Z" fill="#C99209"/>
<path d="M17.8348 19.1233L17.8317 19.9411L8.12191 25.7729L8.12399 24.9551L17.8348 19.1233Z" fill="#D39E09"/>
<path d="M8.12399 24.9551L8.12191 25.7729L4.72629 23.7461L4.7294 22.9293L8.12399 24.9551Z" fill="#C99209"/>
<path d="M17.8348 19.1233L8.12398 24.9551L4.7294 22.9293L14.4392 17.0976L17.8348 19.1233Z" fill="#E5AF05"/>
<path d="M12.9094 20.8468L12.2871 21.9293L10.275 22.0687L8.82302 21.2112L10.0883 17.1062L10.7314 17.5242L11.6752 17.4384L12.1212 16.9775L12.9094 20.8468Z" fill="#191716"/>
<path d="M12.1253 16.9754L12.9063 20.8436L12.2912 21.9336L11.6721 17.4416L12.1253 16.9754Z" fill="#383330"/>
<path d="M11.6721 17.4416L12.2912 21.9336L10.2719 22.0708L10.7345 17.522L11.6721 17.4416Z" fill="#282422"/>
<path d="M10.7345 17.522L10.2719 22.0708L8.82406 21.2069L10.0852 17.1105L10.7345 17.522Z" fill="#191716"/>
<path d="M11.8276 16.4749L12.1305 16.9958L11.6451 17.4599L10.7345 17.522L10.0811 17.1319L10.1817 16.5874L10.9564 16.2948L11.8276 16.4749Z" fill="#423B37"/>
<path d="M16.1121 13.8286L14.9692 13.1415L14.9598 9.00539L16.1038 9.69242L16.1121 13.8286Z" fill="#B0B8CF"/>
<path d="M16.1038 9.69242L14.9598 9.00539L15.5655 8.64526L16.7085 9.33122L16.1038 9.69242ZM7.60645 18.9004L6.46351 18.2133L14.9692 13.1415L16.1121 13.8286L7.60645 18.9004ZM6.98727 15.1276L5.84433 14.4416L6.45521 14.0772L7.59815 14.7642L6.98727 15.1276Z" fill="#C9CEE2"/>
<path d="M6.99868 19.9829L5.8547 19.2959L5.84433 14.4416L6.98727 15.1276L6.99868 19.9829Z" fill="#B0B8CF"/>
<path d="M16.7085 9.33122L16.7188 14.1855L6.99868 19.9829L6.98727 15.1276L7.59815 14.7642L7.60645 18.9004L16.1121 13.8286L16.1038 9.69242L16.7085 9.33122Z" fill="#8693B2"/>
<path d="M39.2841 30.5038V31.3506L27.4917 38.4353L15.1807 31.0826V30.2359L26.9628 23.1512L39.2841 30.5038ZM39.2945 30.5146L39.2841 30.5253V30.5038L39.2945 30.5146Z" fill="#9EA9C9"/>
<path d="M39.2851 30.5081L39.283 31.3559L27.4969 38.4342L27.499 37.5864L39.2851 30.5081Z" fill="#B0B8CF"/>
<path d="M27.499 37.5864L27.4969 38.4342L15.1797 31.0848L15.1818 30.237L27.499 37.5864Z" fill="#9EA9C9"/>
<path d="M39.2893 30.5124L27.5 37.5896L15.1787 30.2316L26.9679 23.1544L39.2893 30.5124Z" fill="#C9CEE2"/>
<path d="M37.5209 21.5006L37.4898 30.6539L27.5643 36.6132L16.529 30.0215L16.5602 20.8682L27.5954 27.4599L37.5209 21.5006Z" fill="#BFB090"/>
<path d="M37.524 21.5017L37.4919 30.6528L27.5674 36.6132L27.5996 27.462L37.524 21.5017Z" fill="#D1C39F"/>
<path d="M27.5996 27.462L27.5674 36.6132L16.5239 30.0237L16.556 20.8736L27.5996 27.462Z" fill="#BFB090"/>
<path d="M37.524 21.5017L27.5996 27.462L16.556 20.8736L26.4805 14.9132L37.524 21.5017Z" fill="#ADB2C3"/>
<path d="M38.2573 21.3613L38.2158 23.0119L27.5643 29.4106L15.7927 22.3795L15.8238 20.7289L26.4753 14.3302L38.2573 21.3613Z" fill="#282422"/>
<path d="M38.2552 21.358L38.221 23.0108L27.5684 29.4084L27.6027 27.7557L38.2552 21.358Z" fill="#383330"/>
<path d="M27.6027 27.7557L27.5684 29.4084L15.7927 22.3827L15.8279 20.73L27.6027 27.7557Z" fill="#282422"/>
<path d="M38.2552 21.358L27.6027 27.7557L15.8279 20.73L26.4794 14.3323L38.2552 21.358Z" fill="#423B37"/>
<path d="M34.6014 29.8018V32.3988H34.5858L32.3321 33.7675V31.1555L32.4233 31.0923L34.6014 29.8018Z" fill="#423D9B"/>
<path d="M34.5858 32.3988L32.3321 33.7675V31.1555L32.4233 31.0923L34.5858 32.3988ZM26.5738 31.5799L17.5299 26.178L17.5392 24.4556L17.2768 24.2991L17.2654 26.3709L26.5738 31.9304V31.5799Z" fill="#211A67"/>
<path d="M26.5738 29.8425L22.8152 27.5917L20.0533 25.954L19.71 25.7493L18.9176 25.2712L17.5434 24.4524L17.5299 26.1716L18.9176 27.0054L19.71 27.4824L20.0533 27.6871L22.8152 29.3399L26.5738 31.5874V29.8425Z" fill="#423D9B"/>
<g opacity="0.24">
<path d="M20.0533 25.954V27.6871L22.8152 29.3398V27.5917L20.0533 25.954ZM18.9176 25.2712V27.0054L19.71 27.4824V25.7493L18.9176 25.2712Z" fill="white"/>
</g>
<path d="M26.5738 34.8597L17.5299 29.4567L17.5392 27.7353L17.2768 27.5789L17.2654 29.6507L26.5738 35.2102V34.8597Z" fill="#211A67"/>
<path d="M26.5738 33.1223L22.8152 30.8715L20.0533 29.2327L19.71 29.028L18.9176 28.551L17.5434 27.7311L17.5299 29.4513L18.9176 30.2841L19.71 30.7621L20.0533 30.9669L22.8152 32.6185L26.5738 34.8672V33.1223Z" fill="#423D9B"/>
<g opacity="0.24">
<path d="M20.0533 29.2327V30.9669L22.8152 32.6185V30.8715L20.0533 29.2327ZM18.9176 28.551V30.2841L19.71 30.7621V29.028L18.9176 28.551Z" fill="white"/>
</g>
<path d="M35.9061 21.7889L36.6186 21.3602L26.4805 15.3119L17.4635 20.7267L18.176 21.1523L26.4805 16.1651L35.9061 21.7889Z" fill="#191716"/>
<path d="M35.9061 21.7889L26.4805 16.1651L18.176 21.1523L27.6016 26.7761L35.9061 21.7889Z" fill="#282422"/>
<path d="M30.4372 20.2144L30.4268 20.7289L27.4295 22.5295L24.4217 20.7396L24.4321 20.2251L27.4295 18.4245L30.4372 20.2144Z" fill="#CC104A"/>
<path d="M30.4331 20.2166L30.432 20.7267L27.4284 22.5306L27.4295 22.0204L30.4331 20.2166Z" fill="#DF3260"/>
<path d="M27.4295 22.0204L27.4284 22.5306L24.4269 20.7407L24.428 20.2294L27.4295 22.0204Z" fill="#CC104A"/>
<path d="M30.4331 20.2166L27.4295 22.0204L24.428 20.2294L27.4315 18.4256L30.4331 20.2166Z" fill="#F45170"/>
<path d="M27.5384 3.96036L27.3807 3.86604L27.3787 3.47482L27.5373 3.57021L27.5384 3.96036Z" fill="#5E626F"/>
<path d="M27.5373 3.57022L27.3787 3.47482L29.2632 2.35049L29.4218 2.44588L27.5373 3.57022Z" fill="#E3E7F0"/>
<path d="M29.4218 2.44588L29.4229 2.53377L28.1088 3.62059L27.5384 3.96035L27.5373 3.57021L29.4218 2.44588Z" fill="#C9CEE2"/>
<path d="M28.9447 10.2337L28.6502 10.0568L28.6481 9.32907L28.9437 9.50699L28.9447 10.2337Z" fill="#5E626F"/>
<path d="M28.9437 9.50699L28.6481 9.32907L32.1578 7.23582L32.4534 7.41267L28.9437 9.50699Z" fill="#E3E7F0"/>
<path d="M32.4534 7.41267V7.57559L30.0057 9.60132L28.9447 10.2337L28.9437 9.507L32.4534 7.41267Z" fill="#C9CEE2"/>
<path d="M28.9447 8.30335L28.6502 8.1265L28.6481 7.39874L28.9437 7.57666L28.9447 8.30335Z" fill="#5E626F"/>
<path d="M28.9437 7.57666L28.6481 7.39874L32.1578 5.30548L32.4534 5.48233L28.9437 7.57666Z" fill="#E3E7F0"/>
<path d="M32.4534 5.48233V5.64525L30.0057 7.67098L28.9447 8.30335L28.9437 7.57666L32.4534 5.48233Z" fill="#C9CEE2"/>
<path d="M29.3897 20.2466L27.4087 21.4363L25.4174 20.2466L25.853 7.23475L27.4295 8.17795L28.9956 7.23475L29.3897 20.2466Z" fill="#9EA9C9"/>
<path d="M28.9945 7.2326L29.3938 20.2487L27.4077 21.4416L27.4295 8.17259L28.9945 7.2326Z" fill="#B0B8CF"/>
<path d="M28.8441 18.8243L27.9449 19.3773L27.9667 9.59381L28.4915 9.28406L28.8441 18.8243Z" fill="#C9CEE2"/>
<path d="M27.4295 8.17258L27.4077 21.4416L25.4133 20.2509L25.8582 7.23582L27.4295 8.17258Z" fill="#9EA9C9"/>
<path d="M28.9945 7.2326L27.4295 8.17258L25.8582 7.23582L27.4232 6.29584L28.9945 7.2326Z" fill="#C9CEE2"/>
<path d="M29.483 7.14901V7.49199L27.4295 8.73529L25.3759 7.50271V7.15972L27.4295 5.91642L29.483 7.14901Z" fill="#191716"/>
<path d="M29.4872 7.14579V7.49627L27.4284 8.73207L27.4295 8.38159L29.4872 7.14579Z" fill="#282422"/>
<path d="M27.4295 8.38159L27.4284 8.73207L25.3718 7.50484L25.3728 7.15436L27.4295 8.38159Z" fill="#191716"/>
<path d="M29.4872 7.14578L27.4295 8.38159L25.3728 7.15436L27.4305 5.91856L29.4872 7.14578Z" fill="#423B37"/>
<path d="M27.8236 7.14901L27.4087 7.40624L26.9835 7.14901L27.0768 0.203648L27.4087 0.396574L27.7406 0.203648L27.8236 7.14901Z" fill="#9EA9C9"/>
<path d="M27.8236 7.149L27.4087 7.40624L26.9835 7.149L27.0768 0.203645L27.4087 0L27.7406 0.203645L27.8236 7.149Z" fill="#9EA9C9"/>
<path d="M27.7417 0.2015L27.8267 7.15114L27.4046 7.40516L27.4087 0.400858L27.7417 0.2015Z" fill="#B0B8CF"/>
<path d="M27.4087 0.400858L27.4046 7.40516L26.9804 7.15222L27.0748 0.2015L27.4087 0.400858Z" fill="#9EA9C9"/>
<path d="M27.7417 0.201452L27.4087 0.400809L27.0748 0.201452L27.4077 0.00209427L27.7417 0.201452Z" fill="#C9CEE2"/>
<path d="M23.0486 11.2573L22.753 11.0794L22.7519 10.9164L23.0475 11.0944L23.0486 11.2573Z" fill="#9EA9C9"/>
<path d="M23.0475 11.0944L22.7519 10.9164L26.2585 8.82425L26.5541 9.00217L23.0475 11.0944Z" fill="#E3E7F0"/>
<path d="M26.5541 9.00217L26.5562 9.72886L25.4962 10.3623L23.0486 11.2573L23.0475 11.0944L26.5541 9.00217Z" fill="#C9CEE2"/>
<path d="M25.3531 4.89927L25.1944 4.80388V4.71706L25.3531 4.81245V4.89927Z" fill="#9EA9C9"/>
<path d="M25.3531 4.81245L25.1944 4.71706L27.0768 3.5938L27.2355 3.68919L25.3531 4.81245Z" fill="#E3E7F0"/>
<path d="M27.2355 3.68919L27.2366 4.07933L26.6672 4.41909L25.3531 4.89926V4.81245L27.2355 3.68919Z" fill="#C9CEE2"/>
<path d="M23.0486 13.1876L22.753 13.0097L22.7519 12.8468L23.0475 13.0247L23.0486 13.1876Z" fill="#9EA9C9"/>
<path d="M23.0475 13.0247L22.7519 12.8468L26.2585 10.7546L26.5541 10.9325L23.0475 13.0247Z" fill="#E3E7F0"/>
<path d="M26.5541 10.9325L26.5562 11.6592L25.4962 12.2926L23.0486 13.1876L23.0475 13.0247L26.5541 10.9325Z" fill="#C9CEE2"/>
<path d="M28.3515 31.4921L30.4019 30.2691L30.3936 28.7289L30.599 28.6057L30.6083 30.4213L28.3515 31.7675V31.4921Z" fill="#211A67"/>
<path d="M28.3515 29.9454L28.421 29.9047L28.6906 29.7439L29.3129 29.3688L30.3905 28.7257L30.4009 30.2766L29.3129 30.9186L28.6906 31.2938L28.421 31.4535L28.3515 31.4953V29.9454Z" fill="#423D9B"/>
<path opacity="0.24" d="M29.3129 29.3688V30.9186L28.6906 31.2938V29.7439L29.3129 29.3688Z" fill="white"/>
<path d="M31.4173 29.6646L33.4667 28.4417L33.4595 26.9015L33.6648 26.7782L33.6741 28.5928L31.4173 29.9401V29.6646Z" fill="#211A67"/>
<path d="M31.4173 28.118L31.4868 28.0762L31.7565 27.9154L32.3787 27.5413L33.4563 26.8983L33.4667 28.4492L32.3787 29.0912L31.7565 29.4653L31.4868 29.626L31.4173 29.6678V28.118Z" fill="#423D9B"/>
<path opacity="0.24" d="M32.3777 27.5413V29.0912L31.7565 29.4653V27.9154L32.3777 27.5413Z" fill="white"/>
<path d="M34.4831 27.8372L36.5325 26.6142L36.5253 25.073L36.7306 24.9508L36.74 26.7654L34.4831 28.1126V27.8372Z" fill="#211A67"/>
<path d="M34.4831 26.2905L34.5526 26.2487L34.8223 26.088L35.4435 25.7128L36.5222 25.0708L36.5325 26.6217L35.4435 27.2627L34.8223 27.6378L34.5526 27.7986L34.4831 27.8404V26.2905Z" fill="#423D9B"/>
<path opacity="0.24" d="M35.4435 25.7128V27.2627L34.8223 27.6378V26.088L35.4435 25.7128Z" fill="white"/>
<path d="M31.2794 20.6024L31.5252 20.4545L31.5241 20.8661L31.2773 21.0151L31.2794 20.6024Z" fill="#E5AF05"/>
<path d="M34.339 21.3237L34.3379 21.6967C34.3369 21.9411 34.1823 22.1844 33.8712 22.3709C33.2468 22.746 32.2325 22.746 31.604 22.3709C31.2877 22.1833 31.129 21.9347 31.13 21.6871L31.1311 21.3141C31.1311 21.5617 31.2887 21.8104 31.605 21.999C32.2325 22.3741 33.2479 22.3741 33.8733 21.9979C34.1823 21.8114 34.3379 21.5681 34.339 21.3237Z" fill="#B0B8CF"/>
<path d="M33.866 20.641C34.4935 21.0161 34.4966 21.6228 33.8733 21.9979C33.2479 22.3731 32.2325 22.3731 31.605 21.9979C30.9776 21.6228 30.9724 21.0151 31.5978 20.6399C32.2211 20.2648 33.2375 20.2659 33.866 20.6399V20.641Z" fill="#E3E7F0"/>
<path d="M32.7386 22.0676C32.3466 22.0676 31.9805 21.9776 31.7077 21.8146C31.4712 21.6753 31.3364 21.4931 31.3354 21.3162C31.3354 21.1394 31.465 20.9647 31.7004 20.8232C31.9701 20.6603 32.3362 20.5713 32.7283 20.5713C33.1224 20.5713 33.4895 20.6614 33.7633 20.8243C33.9988 20.9647 34.1336 21.1458 34.1336 21.3216C34.1336 21.4985 34.005 21.6732 33.7706 21.8146C33.4978 21.9776 33.1317 22.0676 32.7386 22.0676Z" fill="#B0B8CF"/>
<path d="M32.0966 20.6431L32.0863 20.7932L31.8477 20.9433L31.2773 20.6003V21.0183L31.1528 20.9433V20.3859L31.4018 20.2359L32.0966 20.6431Z" fill="#C99209"/>
<path d="M31.8457 20.7932L32.0915 20.6453V20.7921L31.8446 20.94L31.8457 20.7932Z" fill="#E5AF05"/>
<path d="M31.1559 20.3816L31.4018 20.2337L32.0915 20.6453L31.8457 20.7932L31.1559 20.3816Z" fill="#F5C403"/>
<path d="M31.8457 20.7932L31.8446 20.94L31.2794 20.6024L31.2773 21.0151L31.1539 20.9411L31.1559 20.3816L31.8457 20.7932Z" fill="#C99209"/>
<path d="M31.381 21.0483L31.2016 21.0311C31.2315 20.9726 31.2707 20.9197 31.3177 20.8747L31.381 21.0483Z" fill="#E3E7F0"/>
<path d="M25.9702 23.7182L26.217 23.5703L26.215 23.9818L25.9692 24.1298L25.9702 23.7182Z" fill="#E5AF05"/>
<path d="M29.0298 24.4395V24.8125C29.0277 25.0558 28.8732 25.3002 28.5631 25.4856C27.9377 25.8607 26.9233 25.8607 26.2948 25.4867C25.9785 25.298 25.8209 25.0504 25.8209 24.8029L25.8219 24.4299C25.8219 24.6764 25.9795 24.925 26.2959 25.1137C26.9244 25.4888 27.9387 25.4888 28.5641 25.1126C28.8742 24.9261 29.0277 24.6839 29.0298 24.4395Z" fill="#B0B8CF"/>
<path d="M28.5569 23.7568C29.1843 24.1308 29.1885 24.7386 28.5641 25.1126C27.9387 25.4877 26.9244 25.4878 26.2959 25.1137C25.6674 24.7396 25.6632 24.1308 26.2886 23.7546C26.9119 23.3795 27.9294 23.3827 28.5569 23.7568Z" fill="#E3E7F0"/>
<path d="M27.4305 25.1823C27.0374 25.1823 26.6713 25.0933 26.3985 24.9304C26.1631 24.7889 26.0272 24.6078 26.0272 24.4309C26.0272 24.2552 26.1569 24.0794 26.3923 23.9379C26.662 23.7761 27.0271 23.686 27.4191 23.686C27.8132 23.686 28.1804 23.7761 28.4542 23.94C28.6896 24.0794 28.8244 24.2616 28.8244 24.4363C28.8244 24.6142 28.6958 24.7889 28.4614 24.9293C28.1897 25.0922 27.8236 25.1823 27.4305 25.1823Z" fill="#B0B8CF"/>
<path d="M26.5365 23.909L26.7833 23.7611V23.9079L26.5365 24.0558V23.909Z" fill="#E5AF05"/>
<path d="M25.8468 23.4974L26.0936 23.3495L26.7833 23.7611L26.5365 23.909L25.8468 23.4974Z" fill="#F5C403"/>
<path d="M26.5365 23.909V24.0558L25.9702 23.7182L25.9692 24.1298L25.8447 24.0558L25.8468 23.4974L26.5365 23.909Z" fill="#C99209"/>
<path d="M26.0718 24.1641L25.8924 24.1458C25.9224 24.0876 25.9617 24.0351 26.0086 23.9904L26.0718 24.1641Z" fill="#E3E7F0"/>
<path d="M13.2516 27.8029L13.2413 28.2209C13.2413 28.3602 13.1479 28.5103 12.9716 28.6174C12.6086 28.8425 12.0071 28.8425 11.6441 28.6174C11.4574 28.5103 11.364 28.3602 11.364 28.2209L11.3744 27.8029C11.3744 27.6635 11.4678 27.5135 11.6441 27.4063C12.0174 27.1919 12.6086 27.1919 12.982 27.4063C13.1687 27.5242 13.2516 27.6635 13.2516 27.8029Z" fill="#191716"/>
<path d="M13.2548 27.8061L13.2444 28.2209C13.2444 28.3645 13.1531 28.5092 12.9685 28.6196C12.6034 28.8382 12.0091 28.8404 11.641 28.6207C11.4574 28.5103 11.3651 28.3656 11.3651 28.2198L11.3744 27.805C11.3744 27.9508 11.4657 28.0955 11.6503 28.2059C12.0174 28.4256 12.6128 28.4234 12.9778 28.2048C13.1614 28.0944 13.2548 27.9497 13.2548 27.8061Z" fill="#423B37"/>
<path d="M12.9789 27.4084C13.3471 27.6271 13.345 27.9829 12.9778 28.2048C12.6128 28.4234 12.0174 28.4256 11.6503 28.2059C11.2831 27.9861 11.2811 27.6292 11.6461 27.4106C12.0143 27.1887 12.6117 27.1887 12.9789 27.4084Z" fill="#191716"/>
<path d="M13.0556 25.208L13.0484 27.7579C13.0484 27.8715 12.9758 27.9851 12.8306 28.0719C12.5422 28.2455 12.0724 28.2466 11.783 28.074C11.6368 27.9861 11.5642 27.8715 11.5642 27.7568L11.5715 25.2069C11.5715 25.3216 11.6441 25.4363 11.7893 25.5242C12.0797 25.6957 12.5485 25.6957 12.8368 25.522C12.982 25.4352 13.0546 25.3216 13.0546 25.208H13.0556Z" fill="#423B37"/>
<path d="M12.8378 24.8929C13.1282 25.0665 13.1282 25.3473 12.8378 25.522C12.5485 25.6957 12.0797 25.6968 11.7903 25.5242C11.4999 25.3506 11.4978 25.0687 11.7862 24.895C12.0766 24.7214 12.5485 24.7193 12.8378 24.8929Z" fill="#191716"/>
<path d="M10.0168 24.1083L10.0199 25.506L13.2257 27.432L13.2226 26.0333L10.0168 24.1083Z" fill="#AFB2B9"/>
<path d="M13.2226 26.0333L13.2257 27.432L14.5419 26.6464L14.5377 25.2487L13.2226 26.0333Z" fill="#C9CEE2"/>
<path d="M10.0168 24.1083L13.2226 26.0333L14.5377 25.2487L11.3319 23.3238L10.0168 24.1083Z" fill="#E3E7F0"/>
<path d="M9.43909 25.2091L9.4422 26.6067L11.3817 27.7718L11.3775 26.3741L9.43909 25.2091Z" fill="#C9CEE2"/>
<path d="M11.3775 26.3741L11.3817 27.7718L13.2257 27.432L13.2226 26.0333L11.3775 26.3741Z" fill="#B0B8CF"/>
<path d="M10.0168 24.1083L9.43909 25.2091L11.3775 26.3741L13.2226 26.0333L10.0168 24.1083ZM10.5042 26.8479C10.5395 26.8275 10.5872 26.8307 10.6391 26.8618C10.7449 26.9251 10.8299 27.0762 10.8299 27.2016C10.8299 27.2637 10.8092 27.3077 10.7739 27.3281L11.1473 27.104C11.1815 27.0826 11.2022 27.0397 11.2033 26.9776C11.1998 26.9095 11.1807 26.8432 11.1478 26.7842C11.1148 26.7252 11.0688 26.675 11.0135 26.6378C10.9606 26.6057 10.9118 26.6035 10.8787 26.6239L10.5053 26.849L10.5042 26.8479Z" fill="#E3E7F0"/>
<path d="M10.774 27.328C10.8483 27.2834 10.8481 27.1397 10.7736 27.0072C10.699 26.8746 10.5784 26.8033 10.5041 26.848C10.4298 26.8926 10.43 27.0362 10.5046 27.1687C10.5791 27.3013 10.6998 27.3726 10.774 27.328Z" fill="#C9CEE2"/>
<path d="M8.55336 28.058C8.5824 28.0408 8.62285 28.043 8.66745 28.0697C8.75768 28.1233 8.83028 28.253 8.83028 28.3591C8.83028 28.4127 8.81162 28.4502 8.78258 28.4663L10.7386 27.3195C10.7687 27.3013 10.7863 27.2648 10.7863 27.2123C10.7863 27.1051 10.7137 26.9765 10.6246 26.9218C10.58 26.895 10.5385 26.8929 10.5094 26.9111L8.55336 28.058Z" fill="#7B7A4E"/>
<path d="M8.78262 28.4675C8.84601 28.4294 8.84584 28.3069 8.78223 28.1937C8.71863 28.0806 8.61568 28.0198 8.55229 28.0579C8.48889 28.0959 8.48907 28.2185 8.55267 28.3316C8.61628 28.4447 8.71923 28.5055 8.78262 28.4675Z" fill="#C9CEE2"/>
<path d="M7.91552 28.3066C7.95908 28.2809 8.01923 28.2841 8.08354 28.3227C8.15242 28.3688 8.20976 28.4311 8.25086 28.5045C8.29197 28.5779 8.31566 28.6603 8.32001 28.745C8.32001 28.8222 8.29304 28.8758 8.25052 28.9015L9.0429 28.4277C9.08439 28.402 9.11135 28.3484 9.11135 28.2713C9.10688 28.1869 9.08323 28.1048 9.04233 28.0316C9.00143 27.9584 8.94442 27.8962 8.87592 27.85C8.81058 27.8104 8.75146 27.8072 8.7079 27.8329L7.91552 28.3066Z" fill="#423B37"/>
<path d="M8.25081 28.901C8.34293 28.8457 8.34271 28.6676 8.25033 28.5033C8.15794 28.3391 8.00838 28.2507 7.91626 28.306C7.82414 28.3614 7.82436 28.5394 7.91674 28.7037C8.00913 28.868 8.1587 28.9563 8.25081 28.901Z" fill="#282422"/>
<path d="M7.91241 28.5017C7.91241 28.5574 7.93108 28.6196 7.96115 28.6732C7.99227 28.73 8.03375 28.7782 8.0825 28.8072C8.17688 28.864 8.25467 28.8179 8.25467 28.7064C8.25467 28.655 8.23911 28.5992 8.21318 28.5478C8.18394 28.4871 8.13909 28.4359 8.08354 28.3999C7.98916 28.3431 7.91241 28.3892 7.91241 28.5017Z" fill="#423B37"/>
<path d="M7.96115 28.6732C7.99227 28.73 8.03375 28.7782 8.0825 28.8072C8.17688 28.864 8.25466 28.8179 8.25466 28.7064C8.25466 28.655 8.23911 28.5992 8.21318 28.5478L7.96115 28.6732Z" fill="#191716"/>
<path d="M9.83943 26.4492C9.87469 26.4277 9.9224 26.4309 9.9753 26.4631C10.08 26.5253 10.1651 26.6775 10.1651 26.8029C10.1651 26.865 10.1444 26.9079 10.1101 26.9293L10.4835 26.7043C10.5167 26.6839 10.5385 26.64 10.5385 26.5789C10.5349 26.5108 10.5159 26.4445 10.4829 26.3855C10.45 26.3264 10.404 26.2763 10.3487 26.2391C10.2958 26.2069 10.2481 26.2048 10.2138 26.2252L9.84047 26.4502L9.83943 26.4492Z" fill="#E3E7F0"/>
<path d="M10.1092 26.9293C10.1835 26.8847 10.1833 26.741 10.1088 26.6085C10.0342 26.4759 9.91358 26.4046 9.83929 26.4492C9.765 26.4939 9.76521 26.6375 9.83975 26.77C9.91429 26.9026 10.0349 26.9739 10.1092 26.9293Z" fill="#C9CEE2"/>
<path d="M7.88855 27.6592C7.91759 27.641 7.95908 27.6442 8.00264 27.67C8.09287 27.7236 8.16547 27.8543 8.16547 27.9594C8.16547 28.0129 8.14784 28.0505 8.11776 28.0676L10.0749 26.9208C10.1039 26.9025 10.1215 26.865 10.1215 26.8125C10.1215 26.7053 10.0489 26.5767 9.95974 26.5231C9.91514 26.4953 9.87365 26.4931 9.84461 26.5113L7.88855 27.6582V27.6592Z" fill="#7B7A4E"/>
<path d="M8.11781 28.0688C8.1812 28.0307 8.18103 27.9081 8.11742 27.795C8.05382 27.6819 7.95087 27.6211 7.88747 27.6592C7.82408 27.6972 7.82426 27.8198 7.88786 27.9329C7.95146 28.046 8.05441 28.1068 8.11781 28.0688Z" fill="#C9CEE2"/>
<path d="M7.25174 27.9068C7.29427 27.8811 7.35338 27.8854 7.41976 27.924C7.48832 27.9701 7.54537 28.0323 7.58628 28.1055C7.62719 28.1787 7.6508 28.2608 7.65519 28.3452C7.65519 28.4224 7.62823 28.477 7.58571 28.5028L8.37809 28.029C8.41957 28.0033 8.44654 27.9486 8.44654 27.8715C8.44206 27.7871 8.41842 27.705 8.37751 27.6318C8.33661 27.5586 8.2796 27.4964 8.21111 27.4502C8.14577 27.4117 8.08665 27.4074 8.04309 27.4331L7.25174 27.9068Z" fill="#423B37"/>
<path d="M7.586 28.5023C7.67812 28.4469 7.6779 28.2689 7.58552 28.1046C7.49313 27.9403 7.34357 27.852 7.25145 27.9073C7.15933 27.9626 7.15955 28.1407 7.25193 28.305C7.34432 28.4693 7.49389 28.5576 7.586 28.5023Z" fill="#282422"/>
<path d="M7.24759 28.103C7.24759 28.1587 7.26626 28.2198 7.29634 28.2745C7.32745 28.3302 7.36894 28.3795 7.41769 28.4084C7.51207 28.4642 7.58985 28.4192 7.58985 28.3066C7.58985 28.2562 7.57429 28.1994 7.54837 28.1491C7.51941 28.0885 7.47493 28.0374 7.41976 28.0012C7.32434 27.9443 7.24759 27.9904 7.24759 28.103Z" fill="#423B37"/>
<path d="M7.29634 28.2745C7.32746 28.3302 7.36894 28.3795 7.41769 28.4084C7.51207 28.4642 7.58985 28.4192 7.58985 28.3066C7.58985 28.2562 7.5743 28.1994 7.54837 28.1491L7.29634 28.2745Z" fill="#191716"/>
<path d="M9.17565 26.0505C9.20988 26.029 9.25863 26.0322 9.31048 26.0633C9.41627 26.1266 9.50028 26.2777 9.50028 26.4031C9.50028 26.4652 9.47954 26.5092 9.44531 26.5296L9.81869 26.3055C9.85188 26.2841 9.87366 26.2412 9.87366 26.1791C9.87013 26.111 9.85111 26.0447 9.81813 25.9857C9.78515 25.9267 9.73914 25.8765 9.68386 25.8393C9.63096 25.8072 9.58325 25.805 9.54903 25.8264L9.17565 26.0505Z" fill="#E3E7F0"/>
<path d="M9.44545 26.5295C9.51974 26.4849 9.51953 26.3412 9.44499 26.2087C9.37045 26.0761 9.2498 26.0048 9.17552 26.0495C9.10123 26.0941 9.10143 26.2377 9.17597 26.3702C9.25051 26.5028 9.37116 26.5741 9.44545 26.5295Z" fill="#C9CEE2"/>
<path d="M7.22374 27.2605C7.25278 27.2423 7.29427 27.2445 7.33887 27.2712C7.4291 27.3248 7.50066 27.4545 7.50066 27.5606C7.50066 27.6142 7.48303 27.6517 7.45295 27.6689L9.41005 26.521C9.43909 26.5038 9.45672 26.4663 9.45672 26.4138C9.45672 26.3066 9.38412 26.178 9.29493 26.1244C9.25033 26.0965 9.20988 26.0944 9.18084 26.1115L7.2227 27.2616L7.22374 27.2605Z" fill="#7B7A4E"/>
<path d="M7.45351 27.6691C7.5169 27.631 7.51673 27.5085 7.45312 27.3954C7.38952 27.2823 7.28657 27.2214 7.22318 27.2595C7.15978 27.2976 7.15996 27.4201 7.22356 27.5333C7.28716 27.6464 7.39012 27.7072 7.45351 27.6691Z" fill="#C9CEE2"/>
<path d="M6.5859 27.5081C6.62946 27.4824 6.68961 27.4856 6.75495 27.5253C6.8235 27.5714 6.88056 27.6336 6.92147 27.7067C6.96238 27.7799 6.98599 27.8621 6.99038 27.9465C6.99038 28.0237 6.96342 28.0773 6.92089 28.103L7.71328 27.6292C7.7558 27.6046 7.78173 27.5499 7.78173 27.4727C7.77725 27.3884 7.75361 27.3063 7.7127 27.2331C7.6718 27.1599 7.61479 27.0977 7.54629 27.0515C7.48095 27.0119 7.42184 27.0087 7.37828 27.0344L6.5859 27.5081Z" fill="#423B37"/>
<path d="M6.92119 28.1025C7.01331 28.0472 7.01309 27.8691 6.9207 27.7048C6.82832 27.5406 6.67875 27.4522 6.58663 27.5075C6.49452 27.5629 6.49474 27.7409 6.58712 27.9052C6.67951 28.0695 6.82907 28.1578 6.92119 28.1025Z" fill="#282422"/>
<path d="M6.58278 27.7032C6.58278 27.7589 6.60145 27.8211 6.63153 27.8747C6.66264 27.9315 6.70517 27.9808 6.75287 28.0097C6.84726 28.0655 6.92504 28.0204 6.92504 27.9079C6.92504 27.8565 6.90948 27.8007 6.88356 27.7504C6.85445 27.6902 6.80997 27.6383 6.75495 27.6024C6.65953 27.5446 6.58278 27.5917 6.58278 27.7032Z" fill="#423B37"/>
<path d="M6.63153 27.8747C6.66265 27.9315 6.70517 27.9808 6.75288 28.0097C6.84726 28.0655 6.92504 28.0204 6.92504 27.9079C6.92504 27.8565 6.90949 27.8007 6.88356 27.7504L6.63153 27.8747Z" fill="#191716"/>
<path d="M12.5495 24.6464V25.0258C12.5495 25.1748 12.4541 25.3238 12.2653 25.4374C11.8837 25.6657 11.2645 25.6657 10.8807 25.4374C10.6878 25.3216 10.5914 25.1705 10.5924 25.0194V24.641C10.5924 24.7911 10.6889 24.9433 10.8828 25.059C11.2655 25.2862 11.8847 25.2873 12.2664 25.059C12.4551 24.9443 12.5485 24.7954 12.5495 24.6464Z" fill="#B0B8CF"/>
<path d="M12.5505 24.6471C12.5514 24.3233 12.1138 24.0595 11.5731 24.058C11.0324 24.0564 10.5933 24.3176 10.5924 24.6414C10.5915 24.9651 11.0291 25.2289 11.5699 25.2305C12.1106 25.2321 12.5496 24.9709 12.5505 24.6471Z" fill="white"/>
<path d="M12.116 24.9679C11.8173 25.148 11.3319 25.148 11.0311 24.9679C10.7303 24.79 10.7283 24.4985 11.027 24.3184C11.3257 24.1394 11.8121 24.1394 12.1129 24.3184C12.4136 24.4985 12.4136 24.79 12.116 24.969V24.9679Z" fill="#B0B8CF"/>
<path d="M32.8952 39.6035L32.8849 40.0216C32.8849 40.1609 32.7915 40.3109 32.6152 40.4181C32.2522 40.6325 31.6507 40.6325 31.2877 40.4181C31.101 40.3109 31.0076 40.1609 31.0076 40.0216L31.018 39.6035C31.018 39.4535 31.1113 39.3142 31.2877 39.207C31.661 38.9819 32.2522 38.9819 32.6256 39.207C32.8123 39.3142 32.8952 39.4642 32.8952 39.6035Z" fill="#191716"/>
<path d="M32.8984 39.6035L32.889 40.0183C32.889 40.162 32.7967 40.3067 32.6131 40.4171C32.2481 40.6357 31.6527 40.6378 31.2856 40.4181C31.101 40.3088 31.0087 40.163 31.0097 40.0173L31.018 39.6025C31.018 39.7482 31.1103 39.8929 31.2949 40.0033C31.6621 40.2231 32.2574 40.2209 32.6225 40.0023C32.806 39.8919 32.8984 39.7472 32.8984 39.6035Z" fill="#423B37"/>
<path d="M32.6235 39.2059C32.9907 39.4246 32.9896 39.7815 32.6214 40.0023C32.2574 40.2209 31.6621 40.2231 31.2939 40.0033C30.9278 39.7847 30.9257 39.4267 31.2908 39.208C31.6579 38.9862 32.2553 38.9862 32.6235 39.2059Z" fill="#191716"/>
<path d="M32.6992 37.0044L32.692 39.5553C32.692 39.6689 32.6194 39.7825 32.4742 39.8694C32.1858 40.043 31.717 40.0441 31.4266 39.8715C31.2814 39.7836 31.2088 39.6689 31.2088 39.5542L31.2151 37.0044C31.2151 37.1191 31.2877 37.2338 31.4329 37.3217C31.7233 37.4942 32.1931 37.4931 32.4804 37.3195C32.6256 37.2327 32.6982 37.118 32.6992 37.0044Z" fill="#423B37"/>
<path d="M32.4825 36.6914C32.7729 36.864 32.7718 37.1459 32.4814 37.3195C32.1931 37.4931 31.7243 37.4942 31.4339 37.3217C31.1435 37.148 31.1425 36.8661 31.4298 36.6925C31.7202 36.5189 32.1931 36.5189 32.4825 36.6914Z" fill="#191716"/>
<path d="M29.6604 35.9058L29.6645 37.3034L32.8704 39.2295L32.8662 37.8308L29.6604 35.9058Z" fill="#AFB2B9"/>
<path d="M32.8662 37.8308L32.8704 39.2295L34.1855 38.4438L34.1823 37.0462L32.8662 37.8308Z" fill="#C9CEE2"/>
<path d="M29.6604 35.9058L32.8662 37.8308L34.1823 37.0462L30.9765 35.1212L29.6604 35.9058Z" fill="#E3E7F0"/>
<path d="M29.0827 37.0065L29.0868 38.4053L31.0253 39.5692L31.0222 38.1716L29.0827 37.0065Z" fill="#C9CEE2"/>
<path d="M31.0222 38.1716L31.0253 39.5692L32.8704 39.2295L32.8662 37.8308L31.0222 38.1716Z" fill="#B0B8CF"/>
<path d="M29.6604 35.9058L29.0827 37.0065L31.0222 38.1716L32.8662 37.8308L29.6604 35.9058ZM30.1489 38.6464C30.1831 38.625 30.2318 38.6282 30.2837 38.6593C30.3895 38.7225 30.4745 38.8736 30.4745 38.999C30.4745 39.0612 30.4528 39.1052 30.4185 39.1255L30.7919 38.9015C30.8261 38.8801 30.8469 38.8372 30.8469 38.775C30.8434 38.707 30.8243 38.6407 30.7913 38.5817C30.7584 38.5226 30.7124 38.4725 30.6571 38.4353C30.6052 38.4031 30.5565 38.401 30.5223 38.4213L30.1489 38.6464Z" fill="#E3E7F0"/>
<path d="M30.4187 39.1254C30.493 39.0808 30.4928 38.9372 30.4182 38.8047C30.3437 38.6721 30.223 38.6008 30.1487 38.6454C30.0744 38.69 30.0747 38.8337 30.1492 38.9662C30.2237 39.0988 30.3444 39.1701 30.4187 39.1254Z" fill="#C9CEE2"/>
<path d="M28.197 39.8554C28.227 39.8383 28.2675 39.8404 28.3121 39.8672C28.4023 39.9208 28.4749 40.0505 28.4739 40.1566C28.4739 40.2102 28.4562 40.2477 28.4272 40.2649L30.3833 39.1169C30.4123 39.0987 30.4299 39.0623 30.431 39.0098C30.431 38.9026 30.3584 38.774 30.2692 38.7193C30.2236 38.6925 30.1831 38.6904 30.153 38.7086L28.197 39.8554Z" fill="#7B7A4E"/>
<path d="M28.4272 40.2649C28.4906 40.2269 28.4905 40.1043 28.4269 39.9912C28.3633 39.8781 28.2603 39.8173 28.1969 39.8553C28.1335 39.8934 28.1337 40.016 28.1973 40.1291C28.2609 40.2422 28.3639 40.303 28.4272 40.2649Z" fill="#C9CEE2"/>
<path d="M27.5602 40.1041C27.6027 40.0784 27.6628 40.0816 27.7282 40.1202C27.7969 40.1664 27.854 40.2287 27.8949 40.3021C27.9358 40.3755 27.9594 40.4579 27.9636 40.5425C27.9636 40.6196 27.9377 40.6732 27.8952 40.6989L28.6865 40.2252C28.729 40.1995 28.7549 40.1459 28.756 40.0687C28.7515 39.9843 28.7279 39.9022 28.687 39.829C28.6461 39.7559 28.589 39.6937 28.5206 39.6475C28.4542 39.6078 28.3951 39.6046 28.3525 39.6303L27.5602 40.1041Z" fill="#423B37"/>
<path d="M27.8939 40.6986C27.986 40.6433 27.9858 40.4652 27.8934 40.301C27.801 40.1367 27.6515 40.0483 27.5593 40.1037C27.4672 40.159 27.4674 40.337 27.5598 40.5013C27.6522 40.6656 27.8018 40.7539 27.8939 40.6986Z" fill="#282422"/>
<path d="M27.557 40.2991C27.557 40.3549 27.5747 40.417 27.6047 40.4706C27.6359 40.5274 27.6784 40.5767 27.7271 40.6046C27.8205 40.6614 27.8983 40.6153 27.8983 40.5039C27.8983 40.4524 27.8837 40.3967 27.8568 40.3452C27.8278 40.2847 27.7833 40.2335 27.7282 40.1973C27.6328 40.1405 27.557 40.1866 27.557 40.2991Z" fill="#423B37"/>
<path d="M27.6047 40.4706C27.6359 40.5274 27.6784 40.5768 27.7271 40.6046C27.8205 40.6614 27.8983 40.6153 27.8983 40.5039C27.8983 40.4524 27.8837 40.3967 27.8568 40.3452L27.6047 40.4706Z" fill="#191716"/>
<path d="M29.4841 38.2477C29.5183 38.2263 29.567 38.2284 29.6189 38.2606C29.7247 38.3227 29.8097 38.4749 29.8097 38.6003C29.8097 38.6625 29.789 38.7054 29.7537 38.7268L30.1271 38.5017C30.1613 38.4814 30.1821 38.4374 30.1821 38.3763C30.1785 38.3082 30.1595 38.242 30.1265 38.183C30.0936 38.1239 30.0475 38.0737 29.9923 38.0366C29.9404 38.0044 29.8917 38.0023 29.8574 38.0226L29.4841 38.2477Z" fill="#E3E7F0"/>
<path d="M29.7539 38.7267C29.8281 38.6821 29.8279 38.5385 29.7534 38.4059C29.6789 38.2734 29.5582 38.2021 29.4839 38.2467C29.4096 38.2913 29.4098 38.4349 29.4844 38.5675C29.5589 38.7 29.6796 38.7713 29.7539 38.7267Z" fill="#C9CEE2"/>
<path d="M27.5321 39.4567C27.5622 39.4385 27.6027 39.4417 27.6483 39.4674C27.7375 39.521 27.8101 39.6518 27.8101 39.7579C27.8101 39.8115 27.7914 39.8479 27.7624 39.8651L29.7185 38.7182C29.7475 38.7 29.7662 38.6625 29.7662 38.61C29.7662 38.5028 29.6936 38.3742 29.6044 38.3206C29.5587 38.2938 29.5183 38.2906 29.4892 38.3088L27.5321 39.4567Z" fill="#7B7A4E"/>
<path d="M27.7624 39.8662C27.8258 39.8282 27.8257 39.7056 27.7621 39.5925C27.6985 39.4794 27.5955 39.4186 27.5321 39.4566C27.4687 39.4947 27.4689 39.6173 27.5325 39.7304C27.5961 39.8435 27.699 39.9043 27.7624 39.8662Z" fill="#C9CEE2"/>
<path d="M26.8953 39.7054C26.9389 39.6786 26.998 39.6829 27.0634 39.7214C27.1319 39.7676 27.189 39.8297 27.2299 39.9029C27.2708 39.9761 27.2944 40.0583 27.2988 40.1427C27.2988 40.2198 27.2729 40.2745 27.2303 40.3002L28.0217 39.8265C28.0642 39.8008 28.0912 39.7461 28.0912 39.6689C28.0867 39.5845 28.0631 39.5024 28.0221 39.4293C27.9812 39.3561 27.9242 39.2939 27.8557 39.2477C27.7894 39.2091 27.7313 39.2048 27.6877 39.2316L26.8953 39.7054Z" fill="#423B37"/>
<path d="M27.2296 40.2997C27.3217 40.2444 27.3215 40.0664 27.2291 39.9021C27.1367 39.7378 26.9872 39.6495 26.895 39.7048C26.8029 39.7601 26.8031 39.9381 26.8955 40.1024C26.9879 40.2667 27.1375 40.3551 27.2296 40.2997Z" fill="#282422"/>
<path d="M26.8922 39.9004C26.8922 39.9562 26.9099 40.0183 26.941 40.0719C26.9711 40.1277 27.0136 40.177 27.0623 40.2059C27.1557 40.2627 27.2334 40.2166 27.2334 40.1041C27.2334 40.0537 27.2189 39.9969 27.192 39.9465C27.163 39.886 27.1185 39.8348 27.0634 39.7986C26.9679 39.7418 26.8922 39.7879 26.8922 39.9004Z" fill="#423B37"/>
<path d="M26.941 40.0719C26.9711 40.1277 27.0136 40.177 27.0623 40.2059C27.1557 40.2627 27.2335 40.2166 27.2335 40.1041C27.2335 40.0537 27.2189 39.9969 27.192 39.9465L26.941 40.0719Z" fill="#191716"/>
<path d="M28.8193 37.8479C28.8545 37.8265 28.9022 37.8297 28.9541 37.8608C29.0599 37.924 29.1449 38.0762 29.1449 38.2005C29.1449 38.2627 29.1242 38.3077 29.0889 38.327L29.4623 38.103C29.4965 38.0826 29.5173 38.0387 29.5183 37.9765C29.5147 37.9084 29.4955 37.842 29.4623 37.783C29.4291 37.7239 29.3829 37.6738 29.3275 37.6368C29.2756 37.6046 29.2269 37.6025 29.1926 37.6239L28.8193 37.8479Z" fill="#E3E7F0"/>
<path d="M29.089 38.3269C29.1633 38.2823 29.1631 38.1387 29.0886 38.0061C29.014 37.8736 28.8934 37.8023 28.8191 37.8469C28.7448 37.8915 28.745 38.0351 28.8196 38.1677C28.8941 38.3003 29.0148 38.3716 29.089 38.3269Z" fill="#C9CEE2"/>
<path d="M26.8673 39.058C26.8974 39.0398 26.9379 39.0419 26.9835 39.0687C27.0727 39.1223 27.1453 39.252 27.1453 39.3581C27.1453 39.4117 27.1266 39.4492 27.0976 39.4664L29.0536 38.3184C29.0837 38.3013 29.1014 38.2638 29.1014 38.2113C29.1014 38.1041 29.0288 37.9755 28.9396 37.9219C28.895 37.894 28.8535 37.8919 28.8244 37.909L26.8673 39.058Z" fill="#7B7A4E"/>
<path d="M27.0976 39.4664C27.161 39.4284 27.1608 39.3058 27.0972 39.1927C27.0336 39.0796 26.9307 39.0188 26.8673 39.0568C26.8039 39.0949 26.8041 39.2175 26.8677 39.3306C26.9313 39.4437 27.0342 39.5045 27.0976 39.4664Z" fill="#C9CEE2"/>
<path d="M26.2305 39.3056C26.2741 39.2799 26.3342 39.2841 26.3985 39.3227C26.4671 39.3688 26.5242 39.431 26.5651 39.5042C26.606 39.5774 26.6296 39.6596 26.634 39.744C26.634 39.8211 26.608 39.8747 26.5655 39.9004L27.3579 39.4267C27.3994 39.402 27.4264 39.3474 27.4264 39.2702C27.4219 39.1858 27.3982 39.1037 27.3573 39.0305C27.3164 38.9574 27.2594 38.8952 27.1909 38.849C27.1256 38.8093 27.0665 38.8061 27.0229 38.8318L26.2305 39.3056Z" fill="#423B37"/>
<path d="M26.5658 39.8999C26.6579 39.8446 26.6577 39.6666 26.5653 39.5023C26.473 39.338 26.3234 39.2497 26.2313 39.305C26.1392 39.3603 26.1394 39.5384 26.2318 39.7026C26.3241 39.8669 26.4737 39.9553 26.5658 39.8999Z" fill="#282422"/>
<path d="M26.2274 39.5017C26.2274 39.5564 26.245 39.6185 26.2762 39.6732C26.3062 39.7289 26.3488 39.7782 26.3975 39.8072C26.4919 39.8629 26.5697 39.8179 26.5697 39.7054C26.5697 39.6539 26.5541 39.5982 26.5282 39.5478V39.5467C26.4988 39.4864 26.454 39.4357 26.3985 39.3999C26.3042 39.342 26.2274 39.3903 26.2274 39.5017Z" fill="#423B37"/>
<path d="M26.2762 39.6732C26.3062 39.7289 26.3488 39.7782 26.3975 39.8072C26.4919 39.8629 26.5697 39.8179 26.5697 39.7054C26.5697 39.6539 26.5541 39.5982 26.5282 39.5478V39.5467L26.2762 39.6732Z" fill="#191716"/>
<path d="M32.1941 36.4438V36.8233C32.1931 36.9722 32.0977 37.1212 31.9089 37.2348C31.5283 37.4631 30.9081 37.4631 30.5254 37.2348C30.3325 37.1191 30.235 36.968 30.236 36.8168L30.237 36.4385C30.237 36.5885 30.3335 36.7407 30.5264 36.8565C30.9101 37.0848 31.5293 37.0848 31.91 36.8565C32.0987 36.7418 32.1941 36.5928 32.1941 36.4438Z" fill="#B0B8CF"/>
<path d="M32.1952 36.4446C32.1961 36.1208 31.7584 35.857 31.2177 35.8554C30.677 35.8538 30.2379 36.115 30.237 36.4388C30.2361 36.7626 30.6738 37.0264 31.2145 37.028C31.7552 37.0296 32.1943 36.7684 32.1952 36.4446Z" fill="white"/>
<path d="M31.7606 36.7665C31.4619 36.9465 30.9755 36.9465 30.6747 36.7665C30.3739 36.5875 30.3719 36.2959 30.6716 36.1159C30.9703 35.9369 31.4557 35.9369 31.7565 36.1159C32.0572 36.2959 32.0583 36.5875 31.7606 36.7665Z" fill="#B0B8CF"/>
<path d="M21.7874 20.8575L21.2066 21.4041L20.1279 21.4792L19.3605 21.0183L19.7857 19.3248L19.8687 18.9068L20.4598 18.6817L21.134 18.8103L21.3725 19.2176L21.7874 20.8575Z" fill="#B2A286"/>
<path d="M21.3694 19.2176L21.7863 20.8554L21.2107 21.4063L21.0012 19.5713L21.3694 19.2176Z" fill="#BFB090"/>
<path d="M21.0012 19.5713L21.2107 21.4063L20.1321 21.4792L20.2908 19.6249L21.0012 19.5713Z" fill="#B2A286"/>
<path d="M20.2908 19.6249L20.1321 21.4792L19.3584 21.0172L19.7867 19.3237L20.2908 19.6249Z" fill="#A39379"/>
<path d="M21.135 18.8157L21.3694 19.2176L20.994 19.5767L20.2908 19.6249L19.7867 19.3237L19.8635 18.9025L20.4619 18.6764L21.135 18.8157Z" fill="#D1C39F"/>
<path d="M20.8975 16.4191L20.5366 16.2026V15.9379L20.8965 16.1544L20.8975 16.4191Z" fill="#414245"/>
<path d="M20.8508 16.1287L20.6465 16.0054L21.9315 14.3945L22.1359 14.5177L20.8508 16.1287Z" fill="#E3E7F0"/>
<path d="M22.1359 14.5177L22.1369 14.7814L20.8508 16.3923V16.1287L22.1359 14.5177Z" fill="#C9CEE2"/>
<path d="M20.8944 15.2562L20.5335 15.0397V14.7685L20.8934 14.985L20.8944 15.2562Z" fill="#414245"/>
<path d="M20.8477 14.9582L20.6434 14.835L21.9284 13.2316L22.1328 13.3537L20.8477 14.9582Z" fill="#E3E7F0"/>
<path d="M22.1328 13.3537L22.1338 13.6185L20.8477 15.2294V14.9582L22.1328 13.3537Z" fill="#C9CEE2"/>
<path d="M20.5324 16.6367L20.1715 16.4202V16.1565L20.5314 16.373L20.5324 16.6367ZM20.5293 15.4738L20.1684 15.2573V14.9861L20.5283 15.2026L20.5293 15.4738ZM19.2049 16.5381L19.0006 16.4159L18.9995 16.148L19.2038 16.2701L19.2049 16.5381Z" fill="#B0B8CF"/>
<path d="M19.2038 16.2701L18.9995 16.148L20.2814 16.223L20.4858 16.3462L19.2038 16.2701Z" fill="#E3E7F0"/>
<path d="M20.9058 19.1212L20.5324 19.3462L20.1798 19.1212L20.1694 16.4202L20.5324 16.6346V16.3773L20.1694 16.1522V15.2626L20.5324 15.477V15.1983L20.1694 14.984L20.1591 13.5477L20.5324 13.3334L20.8851 13.5477L20.9058 19.1212Z" fill="#B0B8CF"/>
<path d="M20.5376 19.342L20.1777 19.1255L20.1715 16.4202L20.5324 16.6367L20.5376 19.342ZM20.5314 16.373L20.1715 16.1565L20.1684 15.2573L20.5293 15.4738L20.5314 16.373ZM20.5283 15.2026L20.1684 14.9861L20.1642 13.552L20.5241 13.7685L20.5283 15.2026Z" fill="#B0B8CF"/>
<path d="M20.5241 13.7685L20.1642 13.552L20.5293 13.3334L20.8892 13.5499L20.5241 13.7685Z" fill="#E3E7F0"/>
<path d="M20.8892 13.5499L20.9027 19.1244L20.5376 19.342L20.5324 16.6367L20.5314 16.373L20.5293 15.4738L20.5283 15.2026L20.5241 13.7685L20.8892 13.5499ZM19.2007 15.1072L20.4827 15.1758V15.447L19.2018 15.372L19.2007 15.1072Z" fill="#C9CEE2"/>
<path d="M19.2007 15.1072L18.9964 14.985L20.2783 15.0536L20.4827 15.1758L19.2007 15.1072Z" fill="#E3E7F0"/>
<path d="M19.2018 15.372L18.9975 15.2487L18.9964 14.985L19.2007 15.1072L19.2018 15.372Z" fill="#B0B8CF"/>
<path d="M19.2038 16.2701L20.4858 16.3462V16.6099L19.2049 16.5381L19.2038 16.2701Z" fill="#C9CEE2"/>
</svg>
