<svg width="50" height="50" viewBox="0 0 50 50" fill="none" xmlns="http://www.w3.org/2000/svg">
<path d="M6.41667 10.5522C6.33333 12.5242 6.28125 14.5484 5.65625 15.6454L4.19792 14.6006L4.21875 8.95889L6.41667 10.5522Z" fill="#282422"/>
<path d="M6.42188 10.5574C6.33438 12.5268 6.28021 14.5471 5.65625 15.6506L4.20208 14.598L4.21563 8.9602L6.42188 10.5574Z" fill="#383330"/>
<path d="M50 40.5109V41.0594L45.25 44.8075V45.0034L42.9896 43.3709V42.6265L47.9375 39.0221L50 40.5109Z" fill="#B0B8CF"/>
<path d="M50 40.5122L49.9979 41.0568L45.2479 44.8023L45.25 44.2577C46.9812 42.6043 48.6875 41.0189 50 40.5122Z" fill="#B0B8CF"/>
<path d="M45.2479 44.9995L42.9896 43.3644L42.9917 42.6226L45.25 44.2577L45.2479 44.9995Z" fill="#767676"/>
<path d="M50 40.5122L45.25 44.2577L42.9917 42.6226L47.9375 39.0182L50 40.5122Z" fill="#E3E7F0"/>
<path d="M43.8219 42.6213L47.9375 39.6228L49.1927 40.5305L45.2406 43.6478L43.8219 42.6213Z" fill="#B0B8CF"/>
<path d="M1.37292 3.94792C1.87188 3.58747 2.27708 3.8774 2.27917 4.59567C2.28125 5.31395 1.87813 6.18895 1.37917 6.54939C0.880209 6.91114 0.475001 6.62122 0.472918 5.90294C0.471876 5.18466 0.875001 4.30967 1.37292 3.94792Z" fill="#9EA9C9"/>
<path d="M3.57604 4.16993L1.77187 8.23147L0.597916 6.46973L1.85312 3.79904L3.57604 4.16993Z" fill="#9EA9C9"/>
<path d="M2.81875 4.37888C3.55417 3.84605 4.15208 4.2731 4.15417 5.33223C4.15625 6.39137 3.5625 7.68296 2.82708 8.21449C2.09167 8.74601 1.49375 8.31896 1.49167 7.26114C1.48854 6.2007 2.08333 4.91041 2.81875 4.37758V4.37888Z" fill="#B0B8CF"/>
<path d="M2.22917 8.14005C1.91979 8.14005 1.73438 7.81095 1.73229 7.25983C1.73021 6.31432 2.28333 5.11545 2.93958 4.64008C3.08278 4.52727 3.24671 4.46251 3.41563 4.45202C3.72604 4.45202 3.91146 4.78112 3.9125 5.33354C3.91458 6.27775 3.3625 7.47662 2.70625 7.95199C2.56273 8.06496 2.39843 8.12973 2.22917 8.14005Z" fill="#423B37"/>
<path d="M11.3125 3.90482V4.50556L8.17708 7.888L5.96875 6.29473V5.68093L9.85417 2.84699L11.3125 3.90482Z" fill="#282422"/>
<path d="M11.3125 3.90221L11.3104 4.50818L8.175 7.88539L8.17604 7.28073C8.78021 5.6966 9.82604 4.57087 11.3125 3.90221Z" fill="#282422"/>
<path d="M8.17604 7.28073L8.175 7.88539L5.96875 6.28951L5.96979 5.68354L8.17604 7.28073Z" fill="#23201E"/>
<path d="M11.3125 3.90221L8.17604 7.28073L5.96979 5.68354L9.85833 2.85091L11.3125 3.90221Z" fill="#423B37"/>
<path d="M6.42188 10.5574L6.83854 10.2531L6.07292 15.3463L5.65625 15.6506L6.42188 10.5574Z" fill="#282422"/>
<path d="M4.21563 8.9602L4.63229 8.65591L6.83854 10.2531L6.42188 10.5574L4.21563 8.9602Z" fill="#39332F"/>
<path d="M3.01562 5.18075C3.50417 4.82814 3.90104 5.11153 3.90208 5.81545C3.90417 6.51805 3.50937 7.37476 3.02187 7.72737C2.53333 8.07998 2.13646 7.79659 2.13542 7.09398C2.13333 6.39137 2.52812 5.53466 3.01562 5.18075Z" fill="#C9CEE2"/>
<path d="M48.375 48.9905C48.375 48.9905 46.75 52.0334 40.3125 46.9271C37.0938 44.3805 29.8021 37.4719 22.9375 30.8638C22.8489 30.7643 22.7549 30.6727 22.6563 30.5895C20.0313 28.0559 17.4896 25.5746 15.2708 23.4067L15 23.1455C13.3437 21.5261 11.875 20.0765 10.7083 18.9273C10.6146 18.8489 10.5313 18.7575 10.4375 18.6661C9.86458 18.1176 9.375 17.6344 8.97917 17.2426C8.22917 16.5113 7.53125 15.7016 6.88542 14.8266L2.28125 7.69603L2.61458 7.00387L3.53125 5.05799L8.55208 7.01693L10.2083 7.66991C11.4063 8.27065 12.5521 9.02811 13.625 9.92922C14.1667 10.3863 14.7188 10.8565 15.2708 11.3397C15.3646 11.418 15.4479 11.4833 15.5313 11.5617C16.8438 12.6848 18.1771 13.8732 19.5417 15.0878L19.7917 15.3228C27.7188 22.4273 36.5938 31.0335 45.625 40.0447C45.625 40.0447 45.7604 40.1883 45.9792 40.4626C46.6146 41.22 47.9896 43.0092 48.6354 44.929C49.1042 46.3133 49.1875 47.7759 48.375 48.9905Z" fill="#B0B8CF"/>
<path d="M48.6354 44.9237C48.6771 45.7465 48.5104 46.5431 48.0312 47.2614C48.0312 47.2614 46.7812 50.7614 39.9687 45.198C34.0208 40.3137 13.6563 20.437 8.63542 15.5004C7.88496 14.7793 7.18771 13.9751 6.55208 13.0975L2.61458 6.99864L3.53125 5.05276L8.55208 7.0117L10.2083 7.66468C11.4063 8.26542 12.5521 9.02288 13.625 9.92399C22.9687 17.8381 34.1771 28.6123 45.625 40.0394C45.625 40.0394 45.7604 40.1831 45.9792 40.4573C46.6146 41.2148 47.9896 43.004 48.6354 44.9237Z" fill="#C9CEE2"/>
<path d="M45.8229 41.7215C45.6094 42.1956 45.1708 42.7715 44.2521 42.7715C43.8542 42.7715 43.3948 42.6566 42.8844 42.4515C39.8125 41.1978 15.4208 17.129 14.3792 16.1064C14.2979 16.0411 11.8896 13.9816 10.124 11.7563C9.61354 11.1673 7.91979 9.11952 7.97083 7.91673C7.97083 7.62289 8.08229 7.36692 8.25625 7.20107C8.3375 7.12271 8.43958 7.06002 8.55208 7.00909L10.2052 7.66207C11.4065 8.25993 12.5527 9.01874 13.624 9.9253C22.9729 17.8329 34.1792 28.6071 45.6302 40.046C45.6302 40.046 45.7625 40.187 45.9771 40.4547C46.0479 40.8779 45.9969 41.3258 45.8229 41.7215Z" fill="#B0B8CF"/>
<path d="M45.4583 41.4773C45.1875 42.1042 44.5312 42.5874 43.0104 41.9736C41.2708 41.2553 32.25 32.7796 24.8437 25.6491C24.75 25.5707 24.6562 25.4793 24.5729 25.4009C21.6667 22.5931 19.0208 20.0073 17.1979 18.2181C17.1042 18.1398 17.0208 18.0614 16.9375 17.97C15.5 16.5726 14.6354 15.7107 14.6354 15.7107C14.6354 15.7107 13.8646 15.0577 12.8854 14.0913C12.7961 14.0083 12.7092 13.9212 12.625 13.8301C11.9062 13.1249 11.1146 12.276 10.4167 11.388C10.4167 11.388 7.75 8.33203 8.51042 7.60069C8.84375 7.2742 9.57292 7.43091 10.2708 7.70517C10.2812 7.70517 10.2812 7.70517 10.2917 7.71823C10.3229 7.71823 10.3542 7.73128 10.3854 7.74434C11.2187 8.07083 11.9896 8.58016 12.7187 9.16784C13.5729 9.86 14.4375 10.5652 15.3229 11.3096C15.4062 11.388 15.4896 11.4533 15.5833 11.5316C16.9062 12.6417 18.2604 13.804 19.6458 15.0185C19.7292 15.0969 19.8125 15.1753 19.9063 15.2536C22.3542 17.4085 24.875 19.7069 27.4583 22.123C27.5521 22.2013 27.6354 22.2927 27.7292 22.3842C33.3437 27.6341 39.2292 33.4587 45.1354 39.5314L45.1979 39.6098C45.2083 39.6098 45.2083 39.6098 45.2083 39.6228L45.2187 39.6359C45.6042 40.106 45.7187 40.8635 45.4583 41.4773Z" fill="#423B37"/>
<path d="M45.4583 41.476C45.1875 42.1029 44.5312 42.5861 43.0104 41.9723C41.2708 41.254 32.25 32.7783 24.8437 25.6478C24.75 25.5694 24.6562 25.478 24.5729 25.3996C21.6667 22.5918 19.0208 20.006 17.1979 18.2168C17.1042 18.1385 17.0208 18.0601 16.9375 17.9687C15.5 16.5713 14.6354 15.7094 14.6354 15.7094C14.6354 15.7094 13.8646 15.0564 12.8854 14.09C12.8021 14.0117 12.7083 13.9202 12.625 13.8288C11.9062 13.1236 11.1146 12.2747 10.4167 11.3867C10.4167 11.3867 7.75 8.33072 8.51042 7.59939C8.84375 7.2729 9.57292 7.42961 10.2708 7.70386C10.2812 7.70386 10.2812 7.70386 10.2917 7.71692C10.3229 7.71692 10.3542 7.72998 10.3854 7.74304C11.2187 8.06953 11.9896 8.57886 12.7187 9.16654C13.5729 9.8587 14.4375 10.5639 15.3229 11.3083C15.4062 11.3867 15.4896 11.452 15.5833 11.5303C16.9062 12.6404 18.2604 13.8027 19.6458 15.0172C19.7292 15.0956 19.8125 15.174 19.9062 15.2523C22.3542 17.4071 24.875 19.7056 27.4583 22.1217C27.5521 22.2 27.6354 22.2914 27.7292 22.3829C33.3437 27.6328 39.2292 33.4574 45.1354 39.5301L45.1979 39.6085C45.2083 39.6085 45.2083 39.6085 45.2083 39.6215L45.2187 39.6346C45.6042 40.1047 45.7187 40.8622 45.4583 41.476ZM6.09375 8.79434V9.40814L1.45833 11.6936L0 10.6357V10.035L3.88542 7.20107L6.09375 8.79434Z" fill="#423B37"/>
<path d="M6.09479 8.79695L6.09375 9.40161L1.45312 11.6897L1.45417 11.085L6.09479 8.79695Z" fill="#282422"/>
<path d="M1.45417 11.085L1.45312 11.6897L0 10.6384L0.00104159 10.0324L1.45417 11.085Z" fill="#383330"/>
<path d="M6.09475 8.79695L1.45412 11.085L0.000999451 10.0324L3.8885 7.19976L6.09475 8.79695Z" fill="#423B37"/>
<path d="M6.84375 7.24025L6.42708 7.54062L4.21875 5.94735L4.23958 0.305597L4.65625 0.00522614L6.10417 1.04999L6.84375 7.24025Z" fill="#282422"/>
<path d="M5.68854 1.3569L6.10625 1.05261L6.84583 7.23633L6.42812 7.53931L5.68854 1.3569Z" fill="#282422"/>
<path d="M4.23438 0.304289L4.65208 0L6.10625 1.0526L5.68854 1.35689L4.23438 0.304289Z" fill="#423B37"/>
<path d="M5.68854 1.35689L6.42812 7.53931L4.22187 5.94343L4.23437 0.304291L5.68854 1.35689Z" fill="#383330"/>
<path d="M38.5083 27.864C37.9458 28.2727 37.5833 28.6084 37.0031 28.1905C36.9677 28.1643 36.9437 27.7699 36.9104 27.7412L31.1458 23.459C31.075 23.3963 31.0448 23.331 31.0458 23.2696L31.0292 29.4625C31.0292 29.5238 31.0604 29.5891 31.1302 29.6505L36.6865 34.7594C36.7188 34.7882 36.7531 34.8143 36.7885 34.8404C37.3677 35.2596 38.3073 35.2753 38.8688 34.8665C39.1458 34.6654 39.2802 34.4042 39.2813 34.1404L39.2969 27.9489C39.2969 28.2114 38.7865 27.6629 38.5094 27.8653L38.5083 27.864Z" fill="#C9CEE2"/>
<path d="M38.8438 27.164C39.4219 27.5819 39.4563 28.2558 38.8833 28.6724C38.3219 29.0824 37.3833 29.0655 36.8031 28.6462C36.7682 28.6211 36.7341 28.5941 36.701 28.5653L31.1458 23.4564C30.8354 23.1873 31.3094 22.8426 31.6813 23.0672L38.7292 27.0882C38.7698 27.1117 38.8083 27.1379 38.8438 27.164Z" fill="#E3E7F0"/>
<path d="M34.9271 19.8637L34.9167 25.3748C34.9167 25.4923 34.8542 25.6099 34.7396 25.7013C34.4792 25.8841 34.0729 25.8841 33.8229 25.7013C33.6979 25.6099 33.6354 25.4923 33.6354 25.3748L33.6458 19.8506C33.6458 19.7331 33.7083 19.6155 33.8333 19.5241C34.0833 19.3413 34.4896 19.3413 34.7396 19.5241C34.8646 19.6155 34.9271 19.7461 34.9271 19.8637Z" fill="#B0B8CF"/>
<path d="M34.925 19.8571L34.9167 25.3787C34.9167 25.4963 34.8563 25.6125 34.7354 25.7C34.5948 25.7894 34.4394 25.8359 34.2818 25.8359C34.1241 25.8359 33.9687 25.7894 33.8281 25.7C33.7021 25.6086 33.6385 25.4884 33.6385 25.3683L33.6479 19.8467C33.6479 19.9668 33.7104 20.0883 33.8375 20.1797C34.0844 20.3586 34.4938 20.3625 34.7438 20.1797C34.8646 20.0909 34.925 19.9747 34.925 19.8571Z" fill="#B0B8CF"/>
<path d="M34.7365 19.5241C34.9833 19.703 34.9906 19.9995 34.7438 20.1797C34.6033 20.2689 34.4481 20.3153 34.2906 20.3153C34.1332 20.3153 33.978 20.2689 33.8375 20.1797C33.5875 19.9969 33.5833 19.703 33.8344 19.5202C34.0802 19.3413 34.4854 19.3426 34.7365 19.5241Z" fill="#C9CEE2"/>
<path d="M34.6563 15.4495V19.7984C34.6563 19.8637 34.6146 19.929 34.5521 19.9812C34.3958 20.0857 34.1667 20.0857 34.0208 19.9812C33.9479 19.929 33.9062 19.8637 33.9062 19.7853L33.9167 15.4887V15.4495H33.9208C33.9208 15.3803 33.9521 15.3085 34.0208 15.2536C34.1667 15.1491 34.3958 15.1491 34.5417 15.2667C34.6146 15.3189 34.6458 15.3842 34.6563 15.4495Z" fill="#282422"/>
<path d="M34.0208 19.9851C33.9479 19.9329 33.9062 19.8676 33.9062 19.7892L33.9167 15.4534H34.6563V19.8023C34.6563 19.8676 34.6146 19.9329 34.5521 19.9851H34.0208Z" fill="#282422"/>
<path d="M34.5469 15.2601C34.6927 15.3646 34.6958 15.5383 34.5521 15.6428C34.4699 15.695 34.3791 15.7222 34.287 15.7222C34.1949 15.7222 34.104 15.695 34.0219 15.6428C33.876 15.5383 33.874 15.3646 34.0198 15.2575C34.1016 15.2061 34.192 15.1795 34.2836 15.18C34.3751 15.1804 34.4653 15.2079 34.5469 15.2601Z" fill="#423B37"/>
<path d="M38.0312 22.1099L38.0208 27.6211C38.0208 27.7386 37.9583 27.8561 37.8438 27.9476C37.5833 28.1304 37.1771 28.1304 36.9375 27.9476C36.8021 27.8561 36.7396 27.7386 36.7396 27.6211L36.75 22.0969C36.75 21.9793 36.8125 21.8618 36.9375 21.7704C37.1875 21.5875 37.5938 21.5875 37.8438 21.7704C37.9688 21.8618 38.0312 21.9793 38.0312 22.1099Z" fill="#B0B8CF"/>
<path d="M38.0312 22.1047L38.0208 27.6263C38.0208 27.7438 37.9615 27.8601 37.8396 27.9476C37.6991 28.0367 37.5439 28.0832 37.3865 28.0832C37.229 28.0832 37.0738 28.0367 36.9333 27.9476C36.8063 27.8561 36.7427 27.736 36.7437 27.6158L36.7521 22.0942C36.7521 22.2144 36.8156 22.3358 36.9417 22.426C37.1896 22.6062 37.5979 22.6088 37.849 22.426C37.9698 22.3385 38.0312 22.2222 38.0312 22.1047Z" fill="#B0B8CF"/>
<path d="M37.8406 21.7717C38.0885 21.9506 38.0948 22.247 37.849 22.426C37.7085 22.5151 37.5533 22.5616 37.3958 22.5616C37.2384 22.5616 37.0832 22.5151 36.9427 22.426C36.6927 22.2457 36.6875 21.9506 36.9396 21.7677C37.1854 21.5888 37.5906 21.5901 37.8406 21.7717Z" fill="#C9CEE2"/>
<path d="M37.7604 17.6958V22.0446C37.7604 22.1099 37.7188 22.1752 37.6563 22.2274C37.5104 22.3319 37.2708 22.3319 37.125 22.2274C37.0521 22.1752 37.0104 22.1099 37.0104 22.0316L37.0208 17.7349V17.6958H37.025C37.025 17.6265 37.0562 17.5547 37.125 17.4999C37.2708 17.3954 37.5104 17.4085 37.6563 17.5129C37.7292 17.5652 37.7604 17.6174 37.7604 17.6958Z" fill="#282422"/>
<path d="M37.7604 17.6997V22.0485C37.7604 22.1138 37.7188 22.1791 37.6563 22.2314C37.5104 22.3358 37.2708 22.3358 37.125 22.2314C37.0521 22.1791 37.0104 22.1138 37.0104 22.0355L37.0208 17.6997H37.7604Z" fill="#282422"/>
<path d="M37.6521 17.5077C37.7979 17.6122 37.801 17.7859 37.6573 17.8904C37.575 17.9428 37.484 17.9701 37.3917 17.9701C37.2994 17.9701 37.2083 17.9428 37.126 17.8904C36.9802 17.7846 36.9781 17.6122 37.126 17.5051C37.2078 17.4538 37.2979 17.4274 37.3893 17.4278C37.4807 17.4283 37.5707 17.4556 37.6521 17.5077Z" fill="#423B37"/>
<path d="M42.8646 45.9881V46.5366L37.7292 49.9974L35.6667 48.5086V47.9601L40.6042 44.3556L42.8646 45.9881Z" fill="#B0B8CF"/>
<path d="M42.8677 45.9933L42.8656 46.5379L37.724 50L37.726 49.4541L42.8677 45.9933Z" fill="#B0B8CF"/>
<path d="M37.726 49.4541L37.724 50L35.6615 48.5073L35.6625 47.9614L37.726 49.4541Z" fill="#C9CEE2"/>
<path d="M42.8677 45.9933L37.726 49.4541L35.6625 47.9614L40.6083 44.3583L42.8677 45.9933Z" fill="#E3E7F0"/>
<path d="M36.4938 47.9601L40.6094 44.9616L42.0115 45.9763L37.7323 48.856L36.4938 47.9601ZM24.226 19.1323L24.2208 19.848C24.2208 19.9263 24.1802 20.0047 24.099 20.0635C24.0052 20.123 23.9015 20.1541 23.7964 20.1541C23.6912 20.1541 23.5875 20.123 23.4937 20.0635C23.4094 20.0021 23.3667 19.9224 23.3667 19.8415L23.3729 19.1258C23.3729 19.2055 23.4323 19.225 23.5167 19.2864C23.6823 19.4066 23.9177 19.417 24.0854 19.2943C24.1667 19.2355 24.226 19.2107 24.226 19.1323Z" fill="#B0B8CF"/>
<path d="M24.1 18.909C24.2656 19.0291 24.2698 19.2277 24.1052 19.3465C24.0114 19.406 23.9077 19.4371 23.8026 19.4371C23.6975 19.4371 23.5938 19.406 23.5 19.3465C23.3333 19.2263 23.3302 19.0291 23.4979 18.9077C23.5913 18.8487 23.6945 18.8181 23.7991 18.8183C23.9037 18.8185 24.0068 18.8496 24.1 18.909Z" fill="#C9CEE2"/>
<path d="M24.0479 18.2247L24.0448 19.0931C24.0448 19.1388 24.0208 19.1846 23.974 19.2185C23.9191 19.2534 23.8584 19.2716 23.7969 19.2716C23.7353 19.2716 23.6747 19.2534 23.6198 19.2185C23.5708 19.1833 23.5458 19.1362 23.5458 19.0879L23.549 18.2208C23.549 18.2678 23.5885 18.2678 23.6375 18.3043C23.7344 18.3736 23.875 18.3527 23.9729 18.2808C24.0198 18.2469 24.0479 18.2704 24.0479 18.2247Z" fill="#C99209"/>
<path d="M23.974 18.0954C24.0708 18.1646 24.0729 18.2808 23.9771 18.3501C23.9222 18.3849 23.8615 18.4031 23.8 18.4031C23.7385 18.4031 23.6778 18.3849 23.6229 18.3501C23.526 18.2795 23.524 18.1646 23.6229 18.0941C23.6773 18.0596 23.7375 18.0417 23.7984 18.0417C23.8594 18.0417 23.9195 18.0609 23.974 18.0954Z" fill="#F5C403"/>
<path d="M23.0229 18.0758L23.0167 18.7928C23.0167 18.8711 22.976 18.9482 22.8958 19.0069C22.8019 19.0667 22.698 19.0979 22.5927 19.0979C22.4874 19.0979 22.3835 19.0667 22.2896 19.0069C22.2063 18.9456 22.1635 18.8659 22.1635 18.7849L22.1698 18.0693C22.1698 18.1502 22.2573 18.1816 22.3417 18.243C22.5083 18.3631 22.7312 18.3213 22.899 18.1986C22.9792 18.1398 23.0229 18.1542 23.0229 18.0758Z" fill="#B0B8CF"/>
<path d="M22.8958 17.8538C23.0625 17.9726 23.0667 18.1711 22.9021 18.2913C22.8082 18.3511 22.7043 18.3822 22.599 18.3822C22.4936 18.3822 22.3898 18.3511 22.2958 18.2913C22.1292 18.1698 22.126 17.9726 22.2938 17.8512C22.3874 17.7921 22.4908 17.7616 22.5956 17.7621C22.7004 17.7625 22.8036 17.794 22.8969 17.8538H22.8958Z" fill="#C9CEE2"/>
<path d="M22.8438 17.1695L22.8406 18.0366C22.8406 18.0823 22.8167 18.128 22.7698 18.162C22.7149 18.1969 22.6542 18.215 22.5927 18.215C22.5312 18.215 22.4705 18.1969 22.4156 18.162C22.3667 18.1267 22.3427 18.0797 22.3427 18.0327L22.3458 17.1655C22.3458 17.2126 22.3885 17.1799 22.4385 17.2165C22.5344 17.2857 22.6688 17.2635 22.7667 17.1917C22.8146 17.1577 22.8438 17.2152 22.8438 17.1695Z" fill="#C99209"/>
<path d="M22.7708 17.0389C22.8667 17.1094 22.8698 17.2243 22.7729 17.2948C22.718 17.3297 22.6574 17.3479 22.5958 17.3479C22.5343 17.3479 22.4736 17.3297 22.4187 17.2948C22.3219 17.2243 22.3208 17.1094 22.4187 17.0376C22.4733 17.0033 22.5334 16.9856 22.5944 16.9858C22.6554 16.9861 22.7154 17.0042 22.7698 17.0389H22.7708Z" fill="#F5C403"/>
<path d="M14.4688 10.5913L14.4583 11.3096C14.4583 11.388 14.4167 11.4663 14.3438 11.5186C14.1667 11.6492 13.8958 11.6361 13.7292 11.5186C13.6458 11.4663 13.6042 11.3749 13.6042 11.2966L13.6146 10.5913C13.6146 10.513 13.6562 10.4346 13.7396 10.3693C13.9062 10.2518 14.1771 10.2518 14.3438 10.3693C14.4271 10.4346 14.4688 10.513 14.4688 10.5913Z" fill="#B0B8CF"/>
<path d="M14.4667 10.5913L14.4604 11.3083C14.4604 11.3867 14.4198 11.4637 14.3396 11.5225C14.2456 11.5823 14.1418 11.6134 14.0365 11.6134C13.9311 11.6134 13.8273 11.5823 13.7333 11.5225C13.65 11.4611 13.6073 11.3814 13.6073 11.3005L13.6135 10.5848C13.6135 10.6658 13.6677 10.7076 13.7521 10.7676C13.9177 10.8878 14.1729 10.8525 14.3406 10.7311C14.4208 10.6723 14.4656 10.6697 14.4667 10.5913Z" fill="#B0B8CF"/>
<path d="M14.3406 10.3693C14.5052 10.4882 14.5104 10.6867 14.3458 10.8068C14.2519 10.8666 14.148 10.8977 14.0427 10.8977C13.9374 10.8977 13.8335 10.8666 13.7396 10.8068C13.5729 10.6854 13.5698 10.4882 13.7375 10.3667C13.8311 10.3077 13.9345 10.2772 14.0393 10.2776C14.1441 10.2781 14.2473 10.3095 14.3406 10.3693Z" fill="#C9CEE2"/>
<path d="M14.2917 9.69023L14.2813 10.5522C14.2813 10.6044 14.2604 10.6436 14.2083 10.6828C14.1146 10.7481 13.9583 10.7481 13.8542 10.6828C13.8125 10.6436 13.7812 10.5913 13.7812 10.5522L13.7917 9.71635V9.67717C13.7917 9.67978 13.7938 9.68109 13.7938 9.68109C13.7938 9.63668 13.8146 9.58967 13.8646 9.55963C13.9583 9.48127 14.1146 9.48127 14.2188 9.55963C14.2708 9.59881 14.2917 9.65105 14.2917 9.69023Z" fill="#C99209"/>
<path d="M14.2875 9.685L14.2844 10.5522C14.2844 10.5979 14.2604 10.6436 14.2135 10.6775C14.1587 10.7124 14.098 10.7306 14.0365 10.7306C13.9749 10.7306 13.9143 10.7124 13.8594 10.6775C13.8104 10.6423 13.7865 10.5953 13.7865 10.5482L13.7896 9.68109C13.7896 9.7268 13.826 9.72549 13.875 9.76075C13.9719 9.83127 14.0979 9.8587 14.1958 9.78687C14.2438 9.75291 14.2875 9.73071 14.2875 9.685Z" fill="#C99209"/>
<path d="M14.2146 9.55441C14.3104 9.62493 14.3135 9.73985 14.2177 9.81037C14.1628 9.84525 14.1022 9.86343 14.0406 9.86343C13.9791 9.86343 13.9184 9.84525 13.8635 9.81037C13.7656 9.73985 13.7646 9.62493 13.8625 9.5531C13.9171 9.51865 13.9775 9.50082 14.0387 9.50104C14.0998 9.50127 14.1601 9.51955 14.2146 9.55441Z" fill="#F5C403"/>
<path d="M13.2604 9.53351V10.2518C13.2604 10.3302 13.2187 10.4085 13.1354 10.4607C12.9687 10.5913 12.6979 10.5913 12.5312 10.4607C12.4479 10.4085 12.4062 10.3302 12.4062 10.2387V9.53351C12.4062 9.4421 12.4479 9.36374 12.5312 9.3115C12.6979 9.19397 12.9687 9.19397 13.1354 9.3115C13.2187 9.3768 13.2604 9.45516 13.2604 9.53351Z" fill="#B0B8CF"/>
<path d="M13.2625 9.53613L13.2573 10.2518C13.2573 10.3301 13.2156 10.4085 13.1354 10.466C13.0416 10.5255 12.938 10.5566 12.8328 10.5566C12.7277 10.5566 12.624 10.5255 12.5302 10.466C12.4458 10.4059 12.4031 10.3249 12.4031 10.244L12.4094 9.52829C12.4094 9.60926 12.4792 9.64583 12.5635 9.7059C12.7292 9.82605 12.9719 9.80385 13.1396 9.68239C13.2208 9.62362 13.2625 9.61318 13.2625 9.53613Z" fill="#B0B8CF"/>
<path d="M13.1365 9.31281C13.3021 9.43296 13.3063 9.63016 13.1417 9.7503C13.0479 9.80986 12.9442 9.84089 12.8391 9.84089C12.7339 9.84089 12.6303 9.80986 12.5365 9.7503C12.3698 9.62885 12.3667 9.43296 12.5344 9.3102C12.6279 9.25139 12.7311 9.22098 12.8357 9.22143C12.9403 9.22189 13.0433 9.25319 13.1365 9.31281Z" fill="#C9CEE2"/>
<path d="M13.0833 8.6324V9.49433C13.0833 9.54657 13.0521 9.58575 13.0104 9.62493C12.9167 9.69022 12.75 9.69022 12.6562 9.62493C12.6042 9.58575 12.5833 9.53351 12.5833 9.49433V8.6324C12.5833 8.58016 12.6146 8.52792 12.6562 8.5018C12.75 8.42344 12.9167 8.42344 13.0104 8.5018C13.0521 8.52792 13.0833 8.58016 13.0833 8.6324Z" fill="#C99209"/>
<path d="M13.0833 8.62848L13.0802 9.49564C13.0802 9.54135 13.0573 9.58705 13.0104 9.62101C12.9555 9.65589 12.8949 9.67406 12.8333 9.67406C12.7718 9.67406 12.7111 9.65589 12.6562 9.62101C12.6062 9.58575 12.5823 9.53873 12.5823 9.49172L12.5854 8.62456C12.5854 8.67158 12.6375 8.65721 12.6875 8.69247C12.735 8.72654 12.7889 8.74413 12.8437 8.74344C12.8984 8.74275 12.952 8.72381 12.999 8.68855C13.0458 8.65329 13.0833 8.67419 13.0833 8.62848Z" fill="#C99209"/>
<path d="M13.0104 8.49789C13.1073 8.56841 13.1094 8.68333 13.0135 8.75385C12.9587 8.78873 12.898 8.80691 12.8365 8.80691C12.7749 8.80691 12.7143 8.78873 12.6594 8.75385C12.5615 8.68333 12.5604 8.56841 12.6594 8.49658C12.7139 8.46234 12.774 8.44463 12.835 8.44485C12.896 8.44508 12.9561 8.46324 13.0104 8.49789Z" fill="#F5C403"/>
<path d="M39.2812 33.2367V34.1378C39.2812 34.399 39.1458 34.6602 38.8646 34.8691C38.3021 35.274 37.3646 35.2609 36.7917 34.843C36.753 34.8202 36.7178 34.7893 36.6875 34.7516L31.125 29.6453C31.0625 29.5931 31.0312 29.5278 31.0312 29.4625V28.5614C31.0312 28.6267 31.0625 28.692 31.125 28.7442L36.6875 33.8636C36.7188 33.8897 36.75 33.9158 36.7917 33.9419C37.3646 34.3598 38.3021 34.3729 38.8646 33.968C39.1458 33.7591 39.2812 33.4979 39.2812 33.2367Z" fill="#9EA9C9"/>
<path d="M38.8677 33.9667C38.3062 34.3755 37.3677 34.3585 36.7875 33.9406C36.7525 33.9151 36.7185 33.8876 36.6854 33.8583L31.1292 28.7507C31.0583 28.6893 31.0281 28.624 31.0281 28.5614V29.4612C31.0281 29.5225 31.0594 29.5878 31.1292 29.6492L36.6854 34.7581C36.7177 34.7869 36.7521 34.813 36.7875 34.8391C37.3667 35.2583 38.3062 35.274 38.8677 34.8652C39.1448 34.6641 39.2792 34.4029 39.2802 34.1391V33.2406C39.2802 33.5031 39.1448 33.7643 38.8677 33.9667Z" fill="#9EA9C9"/>
<path d="M19.9063 15.2575C19.8646 15.2706 19.8333 15.2967 19.7917 15.3228C19.75 15.349 19.6979 15.3751 19.6458 15.4143C18.7396 16.0672 17.8958 17.0598 17.1979 18.2221C17.1146 18.3657 17.0313 18.4963 16.9688 18.64L16.7083 18.3918C16.7708 18.2482 16.8542 18.1176 16.9375 17.9739C17.6354 16.8247 18.4687 15.8452 19.3646 15.2053C19.4271 15.1661 19.4896 15.1139 19.5417 15.0878C19.5729 15.0616 19.6146 15.0355 19.6458 15.0225C19.7292 15.1008 19.8125 15.1792 19.9063 15.2575Z" fill="#282422"/>
<path d="M17.1979 18.2168C17.1146 18.3605 17.0313 18.4911 16.9688 18.6347C16.3333 19.7318 15.8437 20.9855 15.5208 22.2261C15.4167 22.6179 15.3333 23.0097 15.2708 23.4015L15 23.1403C15.0521 22.7485 15.1458 22.3567 15.25 21.9649C15.5833 20.7112 16.0729 19.4836 16.7083 18.3866C16.7708 18.243 16.8542 18.1124 16.9375 17.9687C17.0208 18.0601 17.1042 18.1385 17.1979 18.2168Z" fill="#9EA9C9"/>
<path d="M15.5833 11.5355C15.5625 11.5486 15.5521 11.5486 15.5312 11.5617C15.3229 11.6661 15.1042 11.8098 14.875 11.9665C14.1563 12.4889 13.4687 13.2202 12.8854 14.0952C12.7812 14.2128 12.6979 14.3434 12.6146 14.474L12.3542 14.2258C12.4375 14.0952 12.5312 13.9646 12.625 13.834C13.2187 12.9852 13.8854 12.2669 14.5937 11.7576C14.8229 11.5878 15.0521 11.4572 15.2708 11.3397C15.2917 11.3266 15.3021 11.3266 15.3229 11.3135C15.4062 11.3919 15.4896 11.4572 15.5833 11.5355Z" fill="#282422"/>
<path d="M12.8854 14.09C12.7813 14.2075 12.6979 14.3381 12.6146 14.4687C11.9688 15.4743 11.4271 16.6497 11.0313 17.8512C10.9063 18.2038 10.8021 18.5695 10.7083 18.9221C10.6146 18.8437 10.5313 18.7523 10.4375 18.6609C10.5313 18.2952 10.6354 17.9295 10.75 17.5769C11.1458 16.3754 11.6979 15.2262 12.3542 14.2206C12.4375 14.09 12.5313 13.9594 12.625 13.8288C12.7083 13.9202 12.8021 14.0117 12.8854 14.09Z" fill="#9EA9C9"/>
<path d="M27.7292 22.3881C27.7188 22.3881 27.6979 22.4011 27.6771 22.4142C27.6354 22.4403 27.5833 22.4795 27.5313 22.5187C26.5729 23.1978 25.6875 24.2425 24.9583 25.4701C24.9167 25.5354 24.875 25.6007 24.8438 25.653C24.7917 25.7444 24.75 25.8228 24.7188 25.9011L24.4375 25.6399C24.4792 25.5616 24.5208 25.4832 24.5729 25.4048C24.6042 25.3395 24.6458 25.2743 24.6875 25.209C25.4167 23.9944 26.2917 22.9627 27.2292 22.2967C27.3021 22.2575 27.3646 22.2052 27.4167 22.1661C27.4271 22.153 27.4479 22.1399 27.4583 22.1269C27.5521 22.2052 27.6354 22.2967 27.7292 22.3881Z" fill="#282422"/>
<path d="M24.8438 25.653C24.7917 25.7444 24.75 25.8228 24.7187 25.9011C24.0521 27.0504 23.5313 28.3694 23.1979 29.6753C23.0833 30.0802 23.0104 30.4589 22.9375 30.8638C22.8489 30.7643 22.7549 30.6727 22.6562 30.5895C22.7083 30.1847 22.8021 29.8059 22.9062 29.4011C23.2604 28.0821 23.7708 26.7892 24.4375 25.6399C24.4792 25.5616 24.5208 25.4832 24.5729 25.4048C24.6563 25.4832 24.75 25.5746 24.8438 25.653Z" fill="#9EA9C9"/>
</svg>
