<svg width="50" height="50" viewBox="0 0 50 50" fill="none" xmlns="http://www.w3.org/2000/svg">
<path d="M0.240951 13.3196L0.229526 18.5871L0 16.7331L0.0103858 11.467L0.240951 13.3196ZM49.8747 44.0894L49.8643 49.354C49.8633 49.5717 49.8539 49.7866 49.8352 50L49.8456 44.7325C49.8643 44.5205 49.8737 44.3056 49.8747 44.0894Z" fill="#E3E7F0"/>
<path d="M49.8425 44.7282C48.8039 45.9661 48.0354 47.2183 47.6926 48.4704C47.6303 48.6554 47.5784 48.8546 47.5472 49.0538C47.4849 49.3526 47.4642 49.6514 47.4538 49.9502C41.8351 49.4807 30.338 42.3663 27.0768 39.8193L0.229525 18.5757V13.311L27.0976 34.5546C30.8157 37.4715 43.7564 45.084 49.8425 44.7282Z" fill="#C9CEE2"/>
<path d="M36.9517 26.7089C40.6355 29.6656 50.2746 39.899 49.8456 44.7325C43.7533 45.0925 30.8251 37.473 27.0914 34.5589L0.240949 13.3196L0.0103836 11.467L7.76339 5.29596L10.1002 5.46955L36.9517 26.7089Z" fill="#E3E7F0"/>
<path d="M9.86859 7.29938L36.6681 28.5159C40.0279 31.2151 47.7809 39.4721 49.1051 43.9883C49.1747 43.9883 49.2443 43.9883 49.3149 43.9855C49.2547 39.8876 40.3343 30.3102 36.6723 27.3719L9.9361 6.22652L7.90048 6.07428L0.628342 11.864L0.748817 12.8358L0.796592 12.8742L7.8984 7.23108L9.86859 7.29795V7.29938Z" fill="#C9CEE2"/>
<path d="M48.9659 43.9912L49.1041 43.9898C47.7809 39.4721 40.0269 31.2166 36.6671 28.5174L9.86859 7.29795L7.8984 7.23108L0.796589 12.8742L27.3687 33.893C31.0941 36.7985 43.2974 43.9912 48.9659 43.9912Z" fill="white"/>
<path d="M20.431 15.6602L9.86859 7.29795L7.8984 7.23108L0.796589 12.8742L20.431 28.405V15.6602Z" fill="#423B37"/>
<path d="M19.9117 27.2425C19.9026 27.2428 19.8937 27.2398 19.8857 27.2339L1.80713 12.934C1.79914 12.9278 1.79249 12.9188 1.78787 12.9079C1.78324 12.897 1.7808 12.8847 1.7808 12.8721C1.7808 12.8595 1.78324 12.8471 1.78787 12.8363C1.79249 12.8254 1.79914 12.8164 1.80713 12.8102L8.00642 7.88418C8.01369 7.87849 8.02303 7.86995 8.03342 7.87564L9.72527 7.93256C9.7337 7.93317 9.7419 7.93658 9.74915 7.94252L19.9376 16.0102C19.9455 16.0165 19.952 16.0254 19.9566 16.0361C19.9611 16.0468 19.9635 16.059 19.9636 16.0714V27.1713C19.9637 27.184 19.9614 27.1964 19.9568 27.2075C19.9523 27.2185 19.9456 27.2276 19.9376 27.2339C19.9297 27.2398 19.9207 27.2428 19.9117 27.2425ZM1.93591 12.8728L19.8597 27.0489V16.1113L9.70865 8.07484L8.04484 8.01793L1.93591 12.8728Z" fill="#E5AF05"/>
<path d="M47.5472 49.0581C40.9626 47.934 30.4003 41.6448 27.0976 39.0552L0.229525 17.8116V18.58L27.0768 39.8236C30.338 42.3705 41.8351 49.4849 47.4538 49.9545C48.2431 49.8051 47.5472 49.0581 47.5472 49.0581Z" fill="#6B543D"/>
<path d="M25.1877 15.239L25.1783 19.0595L16.3639 26.0771L16.3732 22.2581L25.1877 15.239Z" fill="#888EA0"/>
<path d="M16.3732 22.2581L16.3639 26.0771L7.09143 18.7436L7.10077 14.9232L16.3732 22.2581Z" fill="#C9CEE2"/>
<path d="M25.1877 15.239L16.3732 22.2581L7.10077 14.9232L15.9152 7.90552L25.1877 15.239Z" fill="#E3E7F0"/>
<path d="M24.0099 15.5193L24.3599 15.2405L15.9162 8.56289L7.92956 14.9217L8.27956 15.1978L15.9162 9.11781L24.0099 15.5193Z" fill="#C9CEE2"/>
<path d="M24.0099 15.5194L15.9162 9.11782L8.27956 15.1978L16.3732 21.5993L24.0099 15.5194Z" fill="#423B37"/>
<path d="M36.3565 22.3136L37.5883 29.0979L36.6006 31.4428L35.3678 24.6585L36.3565 22.3136Z" fill="#B0B8CF"/>
<path d="M35.3678 24.6585L36.6006 31.4428L31.5749 35.4439L30.3421 28.6596L35.3678 24.6585Z" fill="#C9CEE2"/>
<path d="M35.5309 27.8813L35.0947 25.5336L34.9711 25.6332L35.3678 27.7689L31.2135 31.0842L31.2519 31.2962L35.5309 27.8813Z" fill="#211A67"/>
<path d="M35.3647 27.7675L34.0665 28.8062L33.1421 29.5319L32.7579 29.8449L31.2104 31.0828L31.0546 30.1864L30.8261 28.9343L31.605 28.3224L33.703 26.6434L34.0976 26.3304L34.97 25.6332L34.9804 25.7186L35.3647 27.7675Z" fill="#423D9B"/>
<path d="M30.3421 28.6596L31.5749 35.4439L28.9265 35.9946L27.6937 29.2103L30.3421 28.6596Z" fill="#B0B8CF"/>
<path d="M27.6948 29.2117L28.9265 35.9946C24.3423 32.4181 19.7718 28.8087 15.2152 25.1665L15.2277 19.3497L27.6937 29.2103L27.6948 29.2117Z" fill="#C9CEE2"/>
<path d="M15.7521 22.5014L15.7563 20.4254L15.641 20.3344L15.6369 22.5896L27.8101 32.204L27.7716 31.9949L15.7521 22.5014Z" fill="#211A67"/>
<path d="M27.7727 31.9935L22.9433 28.1801L21.8735 27.3264L21.427 26.9849L18.9967 25.064L15.7563 22.5028V20.4254L19.9002 23.6981L22.3305 25.619L22.7667 25.9747L23.8365 26.8284L27.3365 29.5888L27.7727 31.9935Z" fill="#423D9B"/>
<path d="M36.3565 22.3136L35.3678 24.6585L30.3421 28.6596L27.6937 29.2103L15.2277 19.3497L23.8894 12.453L36.3565 22.3136Z" fill="#E3E7F0"/>
<path d="M35.5267 23.1446L35.7884 22.5228L23.8905 13.1118L16.0565 19.3483L16.5789 19.7624L23.8905 13.94L35.5267 23.1446Z" fill="#C9CEE2"/>
<path d="M30.2019 28.1133L35.0635 24.2416L35.5267 23.1446L23.8905 13.94L16.5789 19.7624L27.7758 28.6184L30.2019 28.1133Z" fill="#423B37"/>
<path d="M43.3722 35.8523L43.3701 37.1116L39.2168 40.4183L39.2189 39.1605L43.3722 35.8523Z" fill="#B0B8CF"/>
<path d="M39.2189 39.1605L39.2168 40.4183L31.5718 35.4439L31.1709 33.22L39.2189 39.1605Z" fill="#C9CEE2"/>
<path d="M36.207 29.2103L43.3722 35.8523L39.2189 39.1605L31.1709 33.22L36.207 29.2103Z" fill="#E3E7F0"/>
<path d="M33.973 17.6096L33.9678 23.4519L33.2148 25.0882L33.22 19.2459L33.973 17.6096Z" fill="#B0B8CF"/>
<path d="M33.2252 19.2402L33.2148 25.0882L30.0783 27.5783L28.1985 28.0478V22.1998L30.0887 21.7444L33.2252 19.2402Z" fill="#B0B8CF"/>
<path d="M33.22 19.2459L33.2148 25.0882L30.0783 27.5854L30.0835 21.743L33.22 19.2459Z" fill="#C9CEE2"/>
<path d="M30.0835 21.743L30.0783 27.5854L28.1964 28.0478L28.2016 22.204L30.0835 21.743Z" fill="#B0B8CF"/>
<path d="M32.8929 20.027V23.072L30.4107 25.0356V22.0048L32.7579 20.1409L32.8929 20.027Z" fill="#211A67"/>
<path d="M32.7579 20.1409V22.9297L31.8439 23.6554L31.4389 23.9826L31.2623 24.1107L30.4107 24.7937V22.0048L31.3973 21.2223L32.3424 20.4681L32.519 20.3401L32.7579 20.1409Z" fill="#423D9B"/>
<path d="M28.2016 22.204L28.1964 28.0478L18.1315 20.0868L18.1367 14.243L28.2016 22.204Z" fill="#C9CEE2"/>
<path d="M18.6217 15.1451L18.4639 15.0213L18.4618 18.0663L27.8703 25.508V25.2604L18.6197 17.9425L18.6217 15.1451Z" fill="#211A67"/>
<path d="M27.8765 22.4602L27.8662 25.2632L24.1376 22.3179L23.0679 21.4641L22.6317 21.1227L20.191 19.1875L18.6228 17.9496V15.1466L21.4166 17.352L23.8572 19.2871L24.2934 19.6286L25.3632 20.4681L27.8765 22.4602Z" fill="#423D9B"/>
<path d="M33.973 17.6096L33.22 19.2459L30.0835 21.743L28.2016 22.204L18.1367 14.243L23.9092 9.64855L33.973 17.6096Z" fill="#E3E7F0"/>
<path d="M33.0964 18.3907L33.3613 17.8173L23.9092 10.3401L19.0091 14.2416L19.5025 14.6329L23.9092 11.1226L33.0964 18.3907Z" fill="#C9CEE2"/>
<path d="M29.9309 21.171L32.9074 18.8005L33.0964 18.3907L23.9092 11.1227L19.5025 14.6329L28.2816 21.5766L29.9309 21.171Z" fill="white"/>
<path d="M22.2911 13.9428L23.3006 13.1389L23.7679 13.5074L22.7574 14.3113L22.2911 13.9428Z" fill="#7A794D"/>
<path d="M29.5133 15.6559L26.4776 7.90552L25.2977 6.97069L22.7771 8.97837L22.7574 14.3113L22.2911 13.9428L22.2869 15.6275L28.2162 20.3173L30.7368 18.311L30.7399 16.6264L29.5133 15.6559Z" fill="#525133"/>
<path d="M26.9937 17.6622L29.5133 15.6559L30.7399 16.6264L28.2203 18.6326L26.9937 17.6622Z" fill="#7A794D"/>
<path d="M28.2203 18.6326L30.7399 16.6264L30.7368 18.311L28.2162 20.3173L28.2203 18.6326Z" fill="#28291B"/>
<path d="M23.958 9.91178L26.4776 7.90552L29.5133 15.6559L26.9937 17.6622L23.958 9.91178Z" fill="#525133"/>
<path d="M22.7771 8.97837L25.2977 6.97069L26.4776 7.90552L23.958 9.91178L22.7771 8.97837Z" fill="#7A794D"/>
<path d="M23.958 9.91178L26.9937 17.6622L28.2203 18.6326L28.2162 20.3173L22.2869 15.6275L22.2911 13.9428L22.7574 14.3113L22.7771 8.97837L23.958 9.91178Z" fill="#43412C"/>
<path opacity="0.25" d="M23.8572 19.2871L22.6317 21.1227L20.191 19.1875L21.4166 17.352L23.8572 19.2871ZM25.3632 20.4681L24.1376 22.3179L23.0679 21.4641L24.2934 19.6286L25.3632 20.4681ZM22.3305 25.619L21.427 26.9849L18.9967 25.064L19.9002 23.6981L22.3305 25.619ZM23.8365 26.8284L22.9433 28.1801L21.8735 27.3264L22.7667 25.9747L23.8365 26.8284ZM33.703 26.6434L32.7579 29.8449L31.2104 31.0828L31.0546 30.1864L31.605 28.3224L33.703 26.6434ZM34.9804 25.7186L34.0665 28.8062L33.1421 29.5319L34.0976 26.3304L34.97 25.6332L34.9804 25.7186ZM32.3424 20.4681L31.2623 24.1107L30.4107 24.7937V24.566L31.3973 21.2223L32.3424 20.4681ZM32.7579 20.1409V20.5677L31.8439 23.6554L31.4389 23.9826L32.519 20.3401L32.7579 20.1409Z" fill="white"/>
<path d="M39.6333 34.4081V34.465L37.6911 36.0017L35.3543 34.152V31.918L37.2965 30.3671L38.4701 31.292L39.2801 33.4832L39.6021 33.9528L39.6333 34.4081Z" fill="#878554"/>
<path d="M37.6911 35.9476L39.6333 34.4024V34.4607L37.6911 36.006V35.9476Z" fill="#989761"/>
<path d="M37.3349 35.0256L39.277 33.4789L39.5969 33.957L37.6548 35.5037L37.3349 35.0256Z" fill="#B0AF6F"/>
<path d="M37.6548 35.5037L39.5969 33.957L39.6333 34.4024L37.6911 35.9476L37.6548 35.5037ZM36.5269 32.8415L38.469 31.2962L39.277 33.4789L37.3349 35.0256L36.5269 32.8415Z" fill="#989761"/>
<path d="M35.3585 31.9166L37.3006 30.3714L38.469 31.2962L36.5269 32.8415L35.3585 31.9166Z" fill="#B0AF6F"/>
<path d="M36.5269 32.8415L37.3349 35.0256L37.6548 35.5037L37.6911 35.9476V36.006L35.3533 34.1577L35.3585 31.9166L36.5269 32.8415Z" fill="#878554"/>
<path d="M37.9269 32.3662C38.0224 32.2908 38.1097 32.2837 38.173 32.3335L38.2977 32.4331C38.2353 32.3833 38.1491 32.3904 38.0536 32.4673C37.9533 32.5563 37.8697 32.6766 37.8098 32.8183C37.7499 32.96 37.7153 33.1191 37.7088 33.2826C37.7088 33.432 37.7482 33.5373 37.8095 33.5857L37.6839 33.4861C37.6215 33.4363 37.5831 33.331 37.5831 33.183C37.5893 33.0193 37.6237 32.86 37.6835 32.7181C37.7432 32.5762 37.8266 32.4556 37.9269 32.3662Z" fill="#423B37"/>
<path d="M38.2971 33.2038C38.432 32.8859 38.4323 32.5414 38.2979 32.4343C38.1635 32.3273 37.9453 32.4984 37.8104 32.8164C37.6755 33.1343 37.6751 33.4788 37.8095 33.5858C37.9439 33.6929 38.1622 33.5218 38.2971 33.2038Z" fill="#282422"/>
<path d="M37.769 33.2712C37.7711 33.3993 37.8043 33.4889 37.8573 33.533L38.7027 34.2046C38.6508 34.1633 38.6175 34.0794 38.6155 33.9585V33.9442C38.6209 33.8031 38.6507 33.6657 38.7023 33.5432C38.7539 33.4208 38.8259 33.3169 38.9125 33.2399C38.9956 33.1744 39.0693 33.1673 39.1244 33.21L38.3641 32.6053L38.279 32.537C38.2239 32.4943 38.1502 32.5014 38.0671 32.5655C37.9806 32.6428 37.9086 32.7471 37.857 32.8697C37.8054 32.9923 37.7746 33.1299 37.769 33.2712Z" fill="#E5AF05"/>
<path d="M38.0546 33.3196C38.0546 33.4476 38.0879 33.5373 38.1419 33.5814L38.6155 33.9585V33.9442C38.6209 33.8031 38.6507 33.6657 38.7023 33.5432C38.7539 33.4208 38.826 33.3169 38.9125 33.2399C38.9956 33.1744 39.0693 33.1673 39.1244 33.21L38.3641 32.6053L38.3517 32.6138C38.2649 32.6909 38.1928 32.795 38.1411 32.9177C38.0895 33.0404 38.0598 33.1781 38.0546 33.3196Z" fill="#F5C403"/>
<path d="M38.9115 33.2385C38.825 33.3158 38.7531 33.42 38.7016 33.5427C38.6502 33.6653 38.6206 33.8029 38.6155 33.9442C38.6155 34.2018 38.7505 34.3071 38.9146 34.1776C39.0787 34.0481 39.2116 33.7308 39.2116 33.4733C39.2106 33.2129 39.0756 33.109 38.9115 33.2385Z" fill="#423B37"/>
<path d="M38.8263 33.1588C38.9135 33.0905 38.9925 33.0834 39.0506 33.1303L39.0974 33.1673C39.0402 33.1218 38.9613 33.1275 38.8741 33.1958C38.7823 33.2774 38.7059 33.3876 38.6512 33.5175C38.5965 33.6473 38.565 33.7931 38.5594 33.9428C38.5594 34.078 38.5947 34.1747 38.6518 34.2188L38.604 34.1818C38.548 34.1363 38.5126 34.0396 38.5116 33.9044C38.5116 33.6312 38.6518 33.2968 38.8263 33.1588Z" fill="#423B37"/>
<path d="M39.0978 33.8711C39.2212 33.5803 39.2214 33.2652 39.0985 33.1673C38.9755 33.0693 38.7758 33.2257 38.6524 33.5165C38.5291 33.8073 38.5288 34.1224 38.6518 34.2203C38.7748 34.3183 38.9745 34.1619 39.0978 33.8711Z" fill="#282422"/>
<path d="M40.3655 35.5265C40.3115 35.4852 40.2793 35.3984 40.2772 35.276V35.2661C40.2772 35.0057 40.4101 34.6912 40.5742 34.5618C40.6573 34.4963 40.7321 34.4892 40.7871 34.5333L39.1514 33.2314L39.1244 33.21C39.0693 33.1659 38.9956 33.173 38.9125 33.2385C38.826 33.3155 38.7539 33.4194 38.7023 33.5418C38.6507 33.6642 38.6209 33.8016 38.6155 33.9428C38.6165 34.0709 38.6487 34.1605 38.7027 34.2032" fill="#E5AF05"/>
<path d="M40.5732 34.5618C40.4866 34.6387 40.4146 34.7427 40.363 34.8651C40.3114 34.9875 40.2816 35.1249 40.2761 35.2661C40.2761 35.5236 40.4112 35.6289 40.5753 35.4994C40.6616 35.4223 40.7334 35.3183 40.7849 35.1959C40.8363 35.0735 40.8659 34.9361 40.8713 34.7951C40.8713 34.5361 40.7362 34.4323 40.5732 34.5618Z" fill="#423B37"/>
<path d="M38.8439 33.9428C38.8439 34.0709 38.8772 34.1605 38.9312 34.2032L40.2772 35.276V35.2661C40.2772 35.0057 40.4101 34.6912 40.5742 34.5618C40.6573 34.4963 40.7321 34.4892 40.7871 34.5333L39.1514 33.2314C39.062 33.3072 38.9874 33.4115 38.9339 33.5353C38.8803 33.6592 38.8495 33.799 38.8439 33.9428Z" fill="#F5C403"/>
<path d="M40.4319 34.428C40.5192 34.3569 40.5981 34.3512 40.6563 34.3981L40.704 34.4351C40.6459 34.3896 40.5669 34.3953 40.4797 34.465C40.3881 34.5465 40.3118 34.6565 40.2571 34.7861C40.2024 34.9157 40.1708 35.0611 40.165 35.2106C40.165 35.3472 40.2003 35.4425 40.2575 35.488L40.2097 35.4496C40.1536 35.4041 40.1183 35.3088 40.1183 35.1736C40.1183 34.899 40.2585 34.5646 40.4319 34.428Z" fill="#423B37"/>
<path d="M40.7038 35.1369C40.8272 34.8461 40.8275 34.531 40.7045 34.4331C40.5815 34.3352 40.3818 34.4915 40.2584 34.7823C40.1351 35.0731 40.1348 35.3883 40.2578 35.4862C40.3808 35.5841 40.5805 35.4277 40.7038 35.1369Z" fill="#282422"/>
<path d="M40.2201 35.2191C40.2201 35.3472 40.2523 35.4383 40.3063 35.4809L41.1517 36.154C41.0997 36.1113 41.0686 36.0302 41.0655 35.9092V35.8921C41.0709 35.7509 41.1006 35.6135 41.1522 35.4911C41.2038 35.3687 41.2759 35.2647 41.3625 35.1878C41.4331 35.1323 41.4975 35.1195 41.5495 35.1451C41.5579 35.1482 41.566 35.153 41.5733 35.1594L41.5526 35.1423L40.729 34.4863C40.7208 34.4797 40.7121 34.4744 40.703 34.4707C40.6511 34.4465 40.5867 34.4593 40.5161 34.5134C40.4296 34.5908 40.3578 34.695 40.3063 34.8177C40.2549 34.9403 40.2253 35.0779 40.2201 35.2191Z" fill="#E5AF05"/>
<path d="M40.3946 35.1836C40.3946 35.3116 40.4278 35.4013 40.4818 35.4439L41.0655 35.9092V35.8921C41.0709 35.7509 41.1006 35.6135 41.1522 35.4911C41.2038 35.3687 41.2759 35.2647 41.3625 35.1878C41.4331 35.1323 41.4975 35.1195 41.5495 35.1451C41.5495 35.1423 41.5505 35.1423 41.5515 35.1423L40.729 34.4863C40.7208 34.4797 40.7121 34.4744 40.703 34.4707C40.6135 34.5467 40.5387 34.6512 40.485 34.7754C40.4313 34.8995 40.4003 35.0395 40.3946 35.1836Z" fill="#F5C403"/>
<path d="M41.3625 35.1878C41.276 35.2648 41.2039 35.3688 41.1523 35.4912C41.1007 35.6136 41.0709 35.751 41.0655 35.8921C41.0655 36.1511 41.1994 36.255 41.3635 36.1255C41.4501 36.0485 41.5221 35.9446 41.5737 35.8222C41.6254 35.6997 41.6551 35.5623 41.6606 35.4212C41.6606 35.1622 41.5266 35.0583 41.3625 35.1878Z" fill="#423B37"/>
<path d="M41.752 35.4041C41.752 35.7029 41.5962 36.0728 41.4092 36.2151C41.3158 36.2863 41.2223 36.3005 41.16 36.2578L41.0353 36.1582C40.973 36.1013 40.9315 36.0017 40.9315 35.8452C40.9315 35.5464 41.0873 35.1764 41.2742 35.0341C41.3677 34.963 41.4612 34.9488 41.5235 35.0057L41.6273 35.0911C41.6377 35.0911 41.6377 35.0911 41.6481 35.1053C41.7104 35.148 41.752 35.2476 41.752 35.4041Z" fill="#423B37"/>
<path d="M41.2763 35.0313C41.3719 34.9559 41.4591 34.9488 41.5224 35L41.6471 35.0996C41.5848 35.0498 41.4986 35.0569 41.402 35.1323C41.3019 35.2218 41.2187 35.3425 41.1591 35.4844C41.0996 35.6263 41.0653 35.7856 41.0592 35.9491C41.0592 36.097 41.0977 36.2023 41.1589 36.2521L41.0333 36.1525C40.971 36.1027 40.9325 35.9974 40.9325 35.848C40.9389 35.6846 40.9734 35.5256 41.0331 35.3839C41.0929 35.2423 41.1762 35.1205 41.2763 35.0313Z" fill="#423B37"/>
<path d="M41.6474 35.8696C41.7823 35.5516 41.7827 35.2071 41.6483 35.1001C41.5139 34.9931 41.2956 35.1641 41.1607 35.4821C41.0258 35.8001 41.0254 36.1446 41.1598 36.2516C41.2942 36.3586 41.5125 36.1876 41.6474 35.8696Z" fill="#282422"/>
<path d="M41.6377 35.4909C41.6355 35.594 41.6137 35.6946 41.5744 35.7826C41.5358 35.8894 41.4761 35.9792 41.402 36.0415C41.2753 36.144 41.1714 36.0586 41.1714 35.8608C41.1714 35.7584 41.2005 35.6403 41.2462 35.5378C41.2825 35.4444 41.3362 35.3658 41.402 35.3102C41.5287 35.2063 41.6377 35.2931 41.6377 35.4909Z" fill="#423B37"/>
<path d="M45.9613 41.9465C45.3174 42.4573 44.2685 42.463 43.6152 41.9465C43.2371 41.6434 43.0793 41.2351 43.1478 40.8409H43.1426L43.1603 40.7612L43.557 39.2473H46.0195L46.4297 40.8409H46.4245C46.4921 41.2365 46.3394 41.6449 45.9613 41.9465Z" fill="#C9CEE2"/>
<path d="M45.6591 39.9872C45.1814 40.3671 44.4014 40.3714 43.9153 39.9872C43.4376 39.6059 43.4303 38.9869 43.9122 38.607C44.39 38.2228 45.1741 38.2257 45.6529 38.607C46.1379 38.9869 46.1379 39.6059 45.6591 39.9872Z" fill="#E3E7F0"/>
<path d="M45.898 38.634L45.8969 39.2544C45.8969 39.4678 45.7941 39.6813 45.5906 39.8435C45.1793 40.1707 44.5115 40.1707 44.0981 39.8435C43.8904 39.6784 43.7866 39.4622 43.7866 39.2459L43.7876 38.6255C43.7876 38.8418 43.8914 39.0581 44.0992 39.2231C44.5125 39.5489 45.1803 39.5489 45.5916 39.2231C45.7952 39.0595 45.898 38.8475 45.898 38.634Z" fill="#CC104A"/>
<path d="M45.8969 38.6353C45.8979 38.1732 45.4263 37.7968 44.8435 37.7945C44.2607 37.7923 43.7875 38.165 43.7866 38.6271C43.7856 39.0891 44.2572 39.4656 44.84 39.4678C45.4228 39.4701 45.896 39.0974 45.8969 38.6353Z" fill="#E3E7F0"/>
<path d="M45.898 38.6155V38.7806C45.898 38.7806 45.8938 38.7806 45.8938 38.7877C45.871 38.9727 45.7723 39.1491 45.5926 39.2914C45.5145 39.3544 45.4302 39.4018 45.3423 39.4323C44.9435 39.603 44.4325 39.5546 44.096 39.29C43.9122 39.1491 43.8136 38.9656 43.7866 38.7749V38.6155C43.7866 38.6084 43.7907 38.6084 43.7907 38.6084C43.8219 37.897 44.23 37.3193 44.7545 37.2567C44.7815 37.251 44.8137 37.251 44.8449 37.251C45.4057 37.251 45.8668 37.8529 45.898 38.6155Z" fill="#DF3260"/>
<path d="M45.898 38.6155V38.7806C45.898 38.7806 45.8938 38.7806 45.8938 38.7877C45.871 38.9727 45.7723 39.1491 45.5926 39.2914C45.5145 39.3544 45.4302 39.4018 45.3423 39.4323C45.01 39.4806 44.6517 39.401 44.392 39.1989C44.2124 39.0509 44.1095 38.8731 44.0867 38.6824V38.6767C44.0825 38.6525 44.0825 38.6269 44.0825 38.6027C44.0825 38.5714 44.0825 38.5472 44.0867 38.5231V38.5174C44.1095 37.9397 44.3827 37.4545 44.7545 37.2581C44.7815 37.251 44.8137 37.251 44.8449 37.251C45.4057 37.251 45.8668 37.8529 45.898 38.6155Z" fill="#F45170"/>
<path d="M46.0413 39.4878C46.0143 39.4678 45.979 39.4707 45.9385 39.502C45.8968 39.5393 45.8621 39.5895 45.8371 39.6485C45.8122 39.7076 45.7979 39.7739 45.7952 39.8421C45.7952 39.9047 45.8118 39.9474 45.8367 39.9687L45.6248 39.798C45.5989 39.778 45.5833 39.7353 45.5833 39.6727C45.5823 39.5475 45.6456 39.3953 45.7256 39.3312C45.7661 39.2999 45.8014 39.2985 45.8284 39.3184L46.0413 39.4878Z" fill="#E3E7F0"/>
<path d="M46.041 39.809C46.0972 39.6765 46.0973 39.533 46.0413 39.4883C45.9852 39.4437 45.8943 39.515 45.8381 39.6474C45.7819 39.7799 45.7817 39.9235 45.8378 39.9681C45.8938 40.0127 45.9848 39.9415 46.041 39.809Z" fill="#B0B8CF"/>
<path d="M49.3938 42.2225C49.371 42.204 49.3409 42.2083 49.3066 42.2339C49.2709 42.2657 49.2412 42.3085 49.2199 42.3589C49.1986 42.4094 49.1863 42.466 49.1841 42.5242C49.1841 42.5768 49.1976 42.6138 49.2204 42.6323L45.8637 39.9602C45.8419 39.9417 45.8284 39.9047 45.8284 39.852C45.8306 39.794 45.8427 39.7374 45.8638 39.687C45.8849 39.6366 45.9144 39.5937 45.9499 39.5618C45.9842 39.5347 46.0153 39.5333 46.0372 39.5504L49.3938 42.2225Z" fill="#423B37"/>
<path d="M49.3933 42.4973C49.4412 42.3845 49.4414 42.2624 49.3938 42.2244C49.3461 42.1865 49.2688 42.2472 49.2209 42.36C49.1731 42.4728 49.1729 42.595 49.2205 42.6329C49.2681 42.6708 49.3455 42.6101 49.3933 42.4973Z" fill="#C9CEE2"/>
<path d="M49.9256 42.6323C49.9256 42.7888 49.8425 42.9738 49.749 43.045C49.6867 43.1019 49.6348 43.0877 49.6036 43.0307C49.614 43.045 49.614 43.0592 49.6244 43.0592L49.022 42.5896C48.9909 42.5612 48.9701 42.5185 48.9701 42.4331C48.9701 42.2766 49.0532 42.0916 49.1467 42.0063C49.1986 41.9778 49.2401 41.9636 49.2817 41.992L49.8633 42.4758C49.9048 42.49 49.9256 42.547 49.9256 42.6323Z" fill="#D39E09"/>
<path d="M49.8747 42.4701C49.8425 42.4445 49.7968 42.4488 49.748 42.4872C49.696 42.5333 49.6527 42.5957 49.6217 42.6691C49.5906 42.7426 49.5727 42.825 49.5694 42.9098C49.5694 42.9866 49.5901 43.0407 49.6213 43.0663L49.0241 42.5925C48.9919 42.5669 48.9722 42.5128 48.9722 42.436C48.9722 42.2795 49.0511 42.0916 49.1487 42.0134C49.1996 41.9735 49.2443 41.9707 49.2765 41.9963L49.8747 42.4701Z" fill="#F5C403"/>
<path d="M49.8737 42.869C49.9435 42.7046 49.9437 42.5265 49.8743 42.4712C49.8049 42.4159 49.692 42.5044 49.6223 42.6688C49.5525 42.8333 49.5523 43.0114 49.6217 43.0666C49.6912 43.1219 49.804 43.0334 49.8737 42.869Z" fill="#E5AF05"/>
<path d="M49.8778 42.6665C49.8761 42.7268 49.8633 42.7856 49.8404 42.8372C49.8192 42.8925 49.7876 42.9391 49.749 42.9724C49.6774 43.0293 49.6192 42.9838 49.6192 42.8714C49.6192 42.8202 49.6306 42.7647 49.6504 42.7134C49.6723 42.6523 49.706 42.6006 49.748 42.564C49.8197 42.5071 49.8778 42.5541 49.8778 42.6665Z" fill="#D39E09"/>
<path d="M49.8404 42.8386C49.819 42.8934 49.7875 42.9395 49.749 42.9724C49.6774 43.0293 49.6192 42.9838 49.6192 42.8714C49.6192 42.8201 49.6306 42.7647 49.6504 42.7134L49.8404 42.8386Z" fill="#C99209"/>
<path d="M14.1153 15.683L11.9863 17.3904L9.8364 15.683L10.5322 11.3859L11.9966 12.5384L13.4299 11.3859L14.1153 15.683Z" fill="#D39E09"/>
<path d="M14.1122 15.6872L11.9842 17.3947L11.9935 12.5356L13.432 11.3802L14.1122 15.6872Z" fill="#E5AF05"/>
<path d="M11.9935 12.5356L11.9842 17.3947L9.83743 15.6872L10.5374 11.3802L11.9935 12.5356Z" fill="#D39E09"/>
<path d="M13.432 11.383L11.9904 12.5313L10.5395 11.383L11.9811 10.2362L13.432 11.383Z" fill="#F5C403"/>
<path d="M13.7207 11.2294V11.5566L11.9863 12.9226L10.2518 11.5566V11.2294L11.9759 9.8634L13.7207 11.2294Z" fill="#CC104A"/>
<path d="M13.7176 11.2365L13.7165 11.5524L11.9894 12.9283V12.6124L13.7176 11.2365Z" fill="#DF3260"/>
<path d="M11.9894 12.6124V12.9283L10.2477 11.5509L10.2487 11.2351L11.9894 12.6124Z" fill="#CC104A"/>
<path d="M13.7176 11.2365L11.9894 12.6124L10.2487 11.2351L11.9759 9.85914L13.7176 11.2365Z" fill="#F45170"/>
<path d="M12.0652 4.51337L11.9935 4.45646L11.9925 4.22311L12.0641 4.28002L12.0652 4.51337Z" fill="#5E626F"/>
<path d="M12.0641 4.28002L11.9925 4.22311L12.8452 3.54866L12.9168 3.60558L12.0641 4.28002Z" fill="#E3E7F0"/>
<path d="M12.9168 3.60558V3.65823L12.3228 4.3099L12.0652 4.51338L12.0641 4.28002L12.9168 3.60558Z" fill="#C9CEE2"/>
<path d="M12.7008 8.27405L12.5668 8.16875L12.5658 7.73193L12.6998 7.83865L12.7008 8.27405Z" fill="#5E626F"/>
<path d="M12.6998 7.83865L12.5658 7.73193L14.1538 6.47695L14.2867 6.58367L12.6998 7.83865Z" fill="#E3E7F0"/>
<path d="M14.2867 6.58366L14.2878 6.68042L13.1806 7.89556L12.7008 8.27404L12.6998 7.83864L14.2867 6.58366Z" fill="#C9CEE2"/>
<path d="M12.7008 7.11724L12.5668 7.01053L12.5658 6.57513L12.6998 6.68184L12.7008 7.11724Z" fill="#5E626F"/>
<path d="M12.6998 6.68184L12.5658 6.57512L14.1538 5.32014L14.2867 5.42544L12.6998 6.68184Z" fill="#E3E7F0"/>
<path d="M14.2867 5.42544L14.2878 5.52362L13.1806 6.73734L12.7008 7.11725L12.6998 6.68185L14.2867 5.42544Z" fill="#C9CEE2"/>
<path d="M12.7226 6.47552L12.0153 7.03899L11.3049 6.47695L11.1035 11.2578L12.005 11.9721L12.9033 11.2564L12.7226 6.47552Z" fill="#9EA9C9"/>
<path d="M12.7226 6.47552L12.9033 11.2564L12.005 11.9721L12.0153 7.03899L12.7226 6.47552Z" fill="#B0B8CF"/>
<path d="M12.6551 10.4027L12.248 10.7342L12.2584 7.89129L12.4952 7.7049L12.6551 10.4027Z" fill="#C9CEE2"/>
<path d="M12.0153 7.03899L12.005 11.9721L11.1035 11.2578L11.3049 6.47695L12.0153 7.03899Z" fill="#9EA9C9"/>
<path d="M12.7226 6.47552L12.0153 7.03898L11.3049 6.47695L12.0122 5.91349L12.7226 6.47552Z" fill="#C9CEE2"/>
<path d="M12.9418 6.42004V6.80421L12.0174 7.54411L11.0827 6.80421V6.43426L12.0174 5.68014L12.9418 6.42004Z" fill="#191716"/>
<path d="M12.9459 6.42288V6.80279L12.0153 7.54411V7.1642L12.9459 6.42288Z" fill="#282422"/>
<path d="M12.0153 7.1642V7.54411L11.0848 6.80848V6.42857L12.0153 7.1642Z" fill="#191716"/>
<path d="M12.9459 6.42288L12.0153 7.1642L11.0848 6.42857L12.0164 5.68725L12.9459 6.42288Z" fill="#423B37"/>
<path d="M12.194 6.42004L12.007 6.57655L11.8097 6.42004L11.8512 3.57428L12.007 3.44622L12.1524 3.57428L12.194 6.42004Z" fill="#9EA9C9"/>
<path d="M12.1566 3.57285L12.195 6.42573L12.0039 6.57798L12.006 3.69237L12.1566 3.57285Z" fill="#B0B8CF"/>
<path d="M12.006 3.69237L12.0039 6.57798L11.8118 6.42715L11.8554 3.57285L12.006 3.69237Z" fill="#9EA9C9"/>
<path d="M12.1566 3.57285L12.006 3.69237L11.8554 3.57285L12.0049 3.45333L12.1566 3.57285Z" fill="#C9CEE2"/>
<path d="M10.0337 8.88731L9.90079 8.78202L9.89975 8.68384L10.0337 8.79055V8.88731Z" fill="#9EA9C9"/>
<path d="M10.0337 8.79055L9.89975 8.68384L11.4857 7.42886L11.6196 7.53557L10.0337 8.79055Z" fill="#E3E7F0"/>
<path d="M11.6196 7.53557L11.6207 7.9724L11.1409 8.35088L10.0337 8.88731V8.79055L11.6196 7.53557Z" fill="#C9CEE2"/>
<path d="M11.0765 5.07683L11.0048 5.01992V4.96727L11.0765 5.02419V5.07683Z" fill="#9EA9C9"/>
<path d="M11.0765 5.02419L11.0048 4.96727L11.8554 4.29425L11.9281 4.35117L11.0765 5.02419Z" fill="#E3E7F0"/>
<path d="M11.9281 4.35117V4.58452L11.6705 4.78799L11.0765 5.07683V5.02419L11.9281 4.35117Z" fill="#C9CEE2"/>
<path d="M10.0337 10.0455L9.90079 9.93882L9.89975 9.84064L10.0337 9.94735V10.0455Z" fill="#9EA9C9"/>
<path d="M10.0337 9.94735L9.89975 9.84064L11.4857 8.58708L11.6196 8.6938L10.0337 9.94735Z" fill="#E3E7F0"/>
<path d="M11.6196 8.6938L11.6207 9.1292L11.1409 9.50911L10.0337 10.0455V9.94735L11.6196 8.6938Z" fill="#C9CEE2"/>
<path d="M18.6332 12.2396L16.5041 13.9471L14.3542 12.2396L15.0501 7.92828L16.5145 9.08082L17.9477 7.92828L18.6332 12.2396Z" fill="#E5AF05"/>
<path d="M18.629 12.2353L16.501 13.9428L16.5103 9.08367L17.9487 7.92686L18.629 12.2353Z" fill="#E5AF05"/>
<path d="M16.5103 9.08367L16.501 13.9428L14.3542 12.2353L15.0532 7.92686L16.5103 9.08367Z" fill="#D39E09"/>
<path d="M17.9487 7.92971L16.5072 9.07797L15.0563 7.92971L16.4979 6.78287L17.9487 7.92971Z" fill="#F5C403"/>
<path d="M18.2385 7.786V8.09903L16.5041 9.47922L14.7697 8.09903V7.786L16.4937 6.4058L18.2385 7.786Z" fill="#CC104A"/>
<path d="M18.2344 7.78315L18.2333 8.09903L16.5051 9.47496L16.5062 9.15908L18.2344 7.78315Z" fill="#DF3260"/>
<path d="M16.5062 9.15908L16.5051 9.47496L14.7645 8.09761V7.78173L16.5062 9.15908Z" fill="#CC104A"/>
<path d="M18.2344 7.78315L16.5062 9.15908L14.7645 7.78173L16.4927 6.40723L18.2344 7.78315Z" fill="#F45170"/>
<path d="M16.5809 1.06147L16.5093 1.00313V0.769779L16.5809 0.826694V1.06147Z" fill="#5E626F"/>
<path d="M16.5809 0.826693L16.5093 0.769778L17.3609 0.0953331L17.4326 0.152248L16.5809 0.826693Z" fill="#E3E7F0"/>
<path d="M17.4326 0.152245V0.204892L16.8385 0.85657L16.5809 1.06146V0.82669L17.4326 0.152245Z" fill="#C9CEE2"/>
<path d="M17.2176 4.82214L17.0836 4.71542L17.0826 4.28002L17.2165 4.38532L17.2176 4.82214Z" fill="#5E626F"/>
<path d="M17.2165 4.38532L17.0826 4.28002L18.6695 3.02362L18.8035 3.13034L17.2165 4.38532Z" fill="#E3E7F0"/>
<path d="M18.8035 3.13034V3.22852L17.6964 4.44223L17.2176 4.82214L17.2165 4.38532L18.8035 3.13034Z" fill="#C9CEE2"/>
<path d="M17.2176 3.66392L17.0836 3.55862L17.0826 3.1218L17.2165 3.22852L17.2176 3.66392Z" fill="#5E626F"/>
<path d="M17.2165 3.22851L17.0826 3.1218L18.6695 1.86682L18.8035 1.97353L17.2165 3.22851Z" fill="#E3E7F0"/>
<path d="M18.8035 1.97354V2.07029L17.6964 3.28543L17.2176 3.66392L17.2165 3.22852L18.8035 1.97354Z" fill="#C9CEE2"/>
<path d="M17.418 7.80023L16.5249 8.51167L15.6213 7.80023L15.8186 3.01935L16.5352 3.5885L17.2415 3.01935L17.418 7.80023Z" fill="#9EA9C9"/>
<path d="M17.2394 3.0222L17.4201 7.80307L16.5217 8.51878L16.5321 3.58566L17.2394 3.0222Z" fill="#B0B8CF"/>
<path d="M17.1719 6.94934L16.7648 7.28087L16.7741 4.43796L17.0119 4.25156L17.1719 6.94934Z" fill="#C9CEE2"/>
<path d="M16.5321 3.58566L16.5217 8.51878L15.6202 7.80592L15.8217 3.02362L16.5321 3.58566Z" fill="#9EA9C9"/>
<path d="M17.2394 3.0222L16.5321 3.58566L15.8217 3.02362L16.529 2.46016L17.2394 3.0222Z" fill="#C9CEE2"/>
<path d="M17.4596 2.97667V3.34661L16.5352 4.08651L15.6005 3.36084V2.97667L16.5352 2.23677L17.4596 2.97667Z" fill="#191716"/>
<path d="M17.4627 2.96955V3.34946L16.5311 4.09078L16.5321 3.71087L17.4627 2.96955Z" fill="#282422"/>
<path d="M16.5321 3.71087L16.5311 4.09078L15.6016 3.35515V2.97524L16.5321 3.71087Z" fill="#191716"/>
<path d="M17.4627 2.96955L16.5321 3.71087L15.6016 2.97524L16.5321 2.23392L17.4627 2.96955Z" fill="#423B37"/>
<path d="M16.7118 2.97667L16.5249 3.11895L16.3275 2.97667L16.3691 0.116676L16.5249 0.00284576L16.6703 0.116676L16.7118 2.97667Z" fill="#9EA9C9"/>
<path d="M16.6734 0.119522L16.7118 2.97382L16.5207 3.12607L16.5228 0.240467L16.6734 0.119522Z" fill="#B0B8CF"/>
<path d="M16.5228 0.240466L16.5207 3.12607L16.3286 2.97382L16.3711 0.120945L16.5228 0.240466Z" fill="#9EA9C9"/>
<path d="M16.6734 0.119521L16.5228 0.240466L16.3711 0.120945L16.5217 0L16.6734 0.119521Z" fill="#C9CEE2"/>
<path d="M14.5505 5.4354L14.4165 5.32869V5.23051L14.5505 5.33722V5.4354Z" fill="#9EA9C9"/>
<path d="M14.5505 5.33722L14.4165 5.2305L16.0024 3.97695L16.1364 4.08366L14.5505 5.33722Z" fill="#E3E7F0"/>
<path d="M16.1364 4.08366L16.1375 4.51906L15.6576 4.89897L14.5505 5.4354V5.33722L16.1364 4.08366Z" fill="#C9CEE2"/>
<path d="M15.5932 1.6235L15.5216 1.56659L15.5205 1.51394L15.5932 1.57086V1.6235Z" fill="#9EA9C9"/>
<path d="M15.5932 1.57086L15.5205 1.51395L16.3722 0.840923L16.4438 0.897838L15.5932 1.57086Z" fill="#E3E7F0"/>
<path d="M16.4438 0.897839L16.4449 1.13119L16.1873 1.33609L15.5932 1.62351V1.57086L16.4438 0.897839Z" fill="#C9CEE2"/>
<path d="M14.5505 6.5922L14.4165 6.48548V6.38873L14.5505 6.49402V6.5922Z" fill="#9EA9C9"/>
<path d="M14.5505 6.49403L14.4165 6.38873L16.0024 5.13375L16.1364 5.24047L14.5505 6.49403Z" fill="#E3E7F0"/>
<path d="M16.1364 5.24046L16.1375 5.67586L15.6576 6.05577L14.5505 6.5922V6.49402L16.1364 5.24046Z" fill="#C9CEE2"/>
<path d="M3.78666 14.4664C3.77743 14.4666 3.76832 14.4634 3.76029 14.4571C3.75225 14.4509 3.74558 14.4418 3.74097 14.4308C3.73424 14.4144 3.73254 14.395 3.73624 14.3769C3.73994 14.3587 3.74873 14.3434 3.7607 14.3341L10.7545 8.77632C10.7664 8.76699 10.7804 8.76444 10.7937 8.76924C10.8069 8.77403 10.8182 8.78578 10.8251 8.80194C10.8286 8.81013 10.8309 8.81919 10.8318 8.8286C10.8327 8.83801 10.8322 8.84757 10.8304 8.85672C10.8285 8.86587 10.8254 8.87442 10.8211 8.88187C10.8168 8.88932 10.8115 8.89553 10.8054 8.90011L3.81263 14.4565C3.80466 14.4624 3.79571 14.4667 3.78666 14.4664Z" fill="#E5AF05"/>
<path d="M8.22555 20.4681L8.23179 18.8347C8.12585 18.7507 8.03757 18.819 8.03757 18.9855L8.03238 20.6645C8.03238 20.8352 8.11858 21.0401 8.22452 21.1241L9.10108 21.817C9.20701 21.9024 9.29425 21.8327 9.29529 21.6633V21.6207L8.41873 20.9263C8.36251 20.8761 8.31572 20.8085 8.28216 20.7289C8.24859 20.6492 8.2292 20.5599 8.22555 20.4681Z" fill="#B0B8CF"/>
<path d="M9.10835 19.5276L8.23179 18.8347L8.22556 20.4681C8.22556 20.6375 8.3128 20.8438 8.41873 20.9263L9.29529 21.6207L9.30049 19.9843C9.29672 19.8931 9.27737 19.8044 9.24399 19.7253C9.21062 19.6463 9.16416 19.579 9.10835 19.529V19.5276Z" fill="#E3E7F0"/>
<path d="M10.8532 22.5413L10.8594 20.9092C10.7535 20.8238 10.6662 20.8936 10.6652 21.06L10.66 22.739C10.66 22.9098 10.7462 23.1147 10.8521 23.1986L11.7287 23.8916C11.8346 23.9755 11.9219 23.9072 11.9229 23.7379V23.6952L11.0463 23.0009C10.99 22.9505 10.9431 22.8827 10.9095 22.8028C10.876 22.7229 10.8567 22.6333 10.8532 22.5413Z" fill="#B0B8CF"/>
<path d="M11.736 21.6022L10.8594 20.9092L10.8532 22.5413C10.8532 22.712 10.9404 22.9169 11.0463 23.0009L11.9229 23.6952L11.9281 22.0589C11.9245 21.9675 11.9052 21.8785 11.8718 21.7991C11.8385 21.7198 11.7919 21.6523 11.736 21.6022Z" fill="#E3E7F0"/>
<path d="M13.4818 24.6158L13.487 22.9824C13.3811 22.8984 13.2938 22.9681 13.2928 23.1332L13.2876 24.8122C13.2876 24.9829 13.3738 25.1892 13.4797 25.2718L14.3563 25.9661C14.4622 26.0501 14.5495 25.9804 14.5505 25.811V25.7684L13.6739 25.0754C13.6178 25.0249 13.5711 24.957 13.5377 24.8771C13.5043 24.7973 13.4852 24.7077 13.4818 24.6158Z" fill="#B0B8CF"/>
<path d="M14.3636 23.6767L13.487 22.9824L13.4818 24.6158C13.4818 24.7866 13.568 24.9915 13.6739 25.0754L14.5505 25.7684L14.5557 24.132C14.5519 24.0408 14.5326 23.9521 14.4992 23.873C14.4658 23.794 14.4194 23.7267 14.3636 23.6767Z" fill="#E3E7F0"/>
<path d="M16.1094 26.6904L16.1146 25.0569C16.0087 24.973 15.9214 25.0413 15.9204 25.2077L15.9152 26.8867C15.9152 27.0575 16.0014 27.2624 16.1073 27.3463L16.9839 28.0407C17.0898 28.1232 17.1771 28.0549 17.1781 27.8856V27.8429L16.3016 27.15C16.2454 27.0995 16.1987 27.0315 16.1653 26.9517C16.132 26.8718 16.1128 26.7823 16.1094 26.6904Z" fill="#B0B8CF"/>
<path d="M16.9912 25.7499L16.1146 25.0569L16.1094 26.6904C16.1094 26.8611 16.1956 27.066 16.3016 27.15L17.1781 27.8429L17.1833 26.2066C17.1795 26.1154 17.1602 26.0267 17.1268 25.9476C17.0934 25.8685 17.047 25.7998 16.9912 25.7499Z" fill="#E3E7F0"/>
<path d="M18.737 28.7649L18.7422 27.1315C18.6363 27.0461 18.549 27.1158 18.548 27.2823L18.5428 28.9613C18.5428 29.132 18.629 29.3369 18.735 29.4209L19.6126 30.1138C19.7174 30.1992 19.8047 30.1295 19.8057 29.9602V29.9175L18.9292 29.2231C18.8731 29.1728 18.8266 29.105 18.7932 29.0255C18.7598 28.9459 18.7406 28.8566 18.737 28.7649Z" fill="#B0B8CF"/>
<path d="M19.6188 27.8244L18.7422 27.1315L18.737 28.7649C18.737 28.9343 18.8232 29.1406 18.9292 29.2231L19.8057 29.9175L19.8109 28.2812C19.8072 28.19 19.7878 28.1012 19.7544 28.0222C19.7211 27.9431 19.6746 27.8744 19.6188 27.8244Z" fill="#E3E7F0"/>
<path d="M21.3646 30.8381L21.3698 29.2046C21.2639 29.1221 21.1767 29.1904 21.1756 29.3554L21.1704 31.0344C21.1704 31.2052 21.2566 31.4115 21.3626 31.494L22.2402 32.1884C22.3451 32.2723 22.4323 32.2026 22.4333 32.0347V31.992L21.5568 31.2977C21.5006 31.2472 21.4539 31.1792 21.4206 31.0994C21.3872 31.0195 21.368 30.93 21.3646 30.8381Z" fill="#B0B8CF"/>
<path d="M22.2464 29.899L21.3698 29.2046L21.3646 30.8381C21.3646 31.0088 21.4508 31.2137 21.5568 31.2977L22.4333 31.9906L22.4385 30.3543C22.4348 30.2631 22.4154 30.1744 22.382 30.0953C22.3487 30.0162 22.3022 29.949 22.2464 29.899Z" fill="#E3E7F0"/>
<path d="M23.9922 32.9112L23.9974 31.2792C23.8915 31.1952 23.8043 31.2649 23.8032 31.43L23.798 33.109C23.798 33.2797 23.8842 33.4846 23.9902 33.5686L24.8678 34.2629C24.9727 34.3469 25.0599 34.2772 25.0609 34.1079V34.0652L24.1844 33.3722C24.1282 33.3217 24.0815 33.2538 24.0482 33.1739C24.0148 33.0941 23.9956 33.0046 23.9922 32.9126V32.9112Z" fill="#B0B8CF"/>
<path d="M24.874 31.9721L23.9974 31.2792L23.9922 32.9126C23.9922 33.0834 24.0784 33.2883 24.1844 33.3722L25.0609 34.0652L25.0661 32.4289C25.0624 32.3377 25.043 32.2489 25.0096 32.1698C24.9763 32.0908 24.9298 32.0221 24.874 31.9721Z" fill="#E3E7F0"/>
<path d="M26.6199 34.9872L26.625 33.3537C26.5191 33.2698 26.4319 33.3381 26.4308 33.5046L26.4256 35.1836C26.4256 35.3543 26.5118 35.5592 26.6178 35.6431L27.4954 36.3361C27.6003 36.4215 27.6886 36.3517 27.6886 36.1824V36.1397L26.812 35.4454C26.756 35.395 26.7094 35.3273 26.676 35.2477C26.6426 35.1681 26.6234 35.0789 26.6199 34.9872Z" fill="#B0B8CF"/>
<path d="M27.5016 34.0467L26.625 33.3537L26.6199 34.9872C26.6199 35.1565 26.7061 35.3628 26.812 35.4454L27.6886 36.1397L27.6937 34.5034C27.69 34.4122 27.6706 34.3235 27.6373 34.2444C27.6039 34.1653 27.5574 34.0967 27.5016 34.0467Z" fill="#E3E7F0"/>
</svg>
